<svg width="126" height="25" viewBox="0 0 126 25" fill="none" xmlns="http://www.w3.org/2000/svg">
<path d="M0.556873 1.8125C1.45271 1.89583 2.24437 1.95833 2.93187 2C3.61937 2.04167 4.19229 2.08333 4.65062 2.125C5.19229 2.16667 5.65062 2.19792 6.02562 2.21875C6.40062 2.23958 6.85896 2.25 7.40062 2.25C7.85896 2.27083 8.43187 2.28125 9.11937 2.28125C9.80687 2.28125 10.6194 2.28125 11.5569 2.28125C10.9527 2.57292 10.484 2.84375 10.1506 3.09375C9.83812 3.34375 9.59854 3.5625 9.43187 3.75C9.22354 3.97917 9.09854 4.1875 9.05687 4.375C9.03604 4.54167 9.07771 4.82292 9.18187 5.21875C9.28604 5.61458 9.43187 6.0625 9.61937 6.5625C9.80687 7.04167 10.036 7.55208 10.3069 8.09375C10.5777 8.63542 10.859 9.125 11.1506 9.5625C11.4631 9.97917 11.7756 10.3229 12.0881 10.5938C12.4006 10.8646 12.7027 10.9896 12.9944 10.9688C13.286 10.9479 13.6402 10.8125 14.0569 10.5625C14.4735 10.2917 14.9006 9.95833 15.3381 9.5625C15.7965 9.16667 16.2444 8.73958 16.6819 8.28125C17.1194 7.82292 17.5048 7.375 17.8381 6.9375C18.1923 6.5 18.4735 6.10417 18.6819 5.75C18.911 5.375 19.0256 5.10417 19.0256 4.9375C19.0048 4.72917 18.9215 4.48958 18.7756 4.21875C18.6506 3.98958 18.4423 3.71875 18.1506 3.40625C17.859 3.07292 17.4527 2.69792 16.9319 2.28125C18.6402 2.34375 19.8902 2.375 20.6819 2.375H21.8381H23.1506C23.6298 2.375 24.2652 2.375 25.0569 2.375C25.8485 2.35417 26.8381 2.32292 28.0256 2.28125C27.2131 2.82292 26.5048 3.3125 25.9006 3.75C25.3173 4.16667 24.8173 4.52083 24.4006 4.8125C23.9215 5.16667 23.5256 5.47917 23.2131 5.75C22.859 6.04167 22.3694 6.5 21.7444 7.125C21.2027 7.66667 20.484 8.39583 19.5881 9.3125C18.6923 10.2083 17.5673 11.375 16.2131 12.8125C16.0256 14.3333 15.9006 15.5625 15.8381 16.5C15.7965 17.4375 15.7756 18.1771 15.7756 18.7188C15.7756 19.3438 15.8173 19.8125 15.9006 20.125C16.0048 20.375 16.1819 20.6667 16.4319 21C16.6402 21.2917 16.9319 21.6354 17.3069 22.0312C17.7027 22.4271 18.2235 22.8646 18.8694 23.3438C18.1819 23.1771 17.536 23.0521 16.9319 22.9688C16.3485 22.8854 15.8277 22.8229 15.3694 22.7812C14.8277 22.7188 14.3381 22.6875 13.9006 22.6875C13.4423 22.6875 12.9006 22.7083 12.2756 22.75C11.734 22.7917 11.0881 22.8438 10.3381 22.9062C9.58812 22.9688 8.71312 23.0625 7.71312 23.1875C8.23396 22.8333 8.66104 22.4792 8.99437 22.125C9.32771 21.7708 9.58812 21.4479 9.77562 21.1562C10.0048 20.8229 10.1715 20.5104 10.2756 20.2188C10.359 19.8854 10.4215 19.4062 10.4631 18.7812C10.5048 18.2396 10.5048 17.5208 10.4631 16.625C10.4423 15.7292 10.3798 14.5938 10.2756 13.2188C9.02562 11.2188 8.00479 9.64583 7.21312 8.5C6.42146 7.33333 5.80687 6.44792 5.36937 5.84375C4.84854 5.15625 4.47354 4.69792 4.24437 4.46875C4.03604 4.30208 3.75479 4.09375 3.40062 3.84375C3.10896 3.61458 2.73396 3.34375 2.27562 3.03125C1.79646 2.69792 1.22354 2.29167 0.556873 1.8125ZM30.0094 10C30.551 10 31.1135 10.1042 31.6969 10.3125C32.2802 10.5 32.8427 10.75 33.3844 11.0625C33.926 11.3542 34.4156 11.6771 34.8531 12.0312C35.3115 12.3646 35.6865 12.6875 35.9781 13C36.499 13.5625 36.8531 14.3229 37.0406 15.2812C37.249 16.2188 37.2906 17.1875 37.1656 18.1875C37.0406 19.1667 36.749 20.0938 36.2906 20.9688C35.8323 21.8438 35.1969 22.4896 34.3844 22.9062C33.801 23.1979 33.2281 23.4271 32.6656 23.5938C32.1031 23.7604 31.5615 23.8854 31.0406 23.9688C30.5198 24.0521 30.0302 24.0938 29.5719 24.0938C29.1135 24.0938 28.7177 24.0833 28.3844 24.0625C27.7594 24.0208 27.1031 23.8021 26.4156 23.4062C25.749 23.0104 25.1135 22.5208 24.5094 21.9375C23.926 21.3542 23.426 20.7188 23.0094 20.0312C22.5927 19.3229 22.3427 18.6562 22.2594 18.0312C22.1344 17.1771 22.1135 16.2812 22.1969 15.3438C22.2802 14.4062 22.5823 13.5417 23.1031 12.75C23.6448 11.9583 24.4573 11.3021 25.5406 10.7812C26.6448 10.2604 28.1344 10 30.0094 10ZM28.9781 22.125C29.2073 22.1667 29.5198 22.1146 29.9156 21.9688C30.3115 21.8021 30.6969 21.5417 31.0719 21.1875C31.4677 20.8333 31.8115 20.3854 32.1031 19.8438C32.4156 19.2812 32.6031 18.6042 32.6656 17.8125C32.7281 17.0417 32.7281 16.3333 32.6656 15.6875C32.624 15.0417 32.5302 14.4792 32.3844 14C32.2385 13.5 32.0719 13.0938 31.8844 12.7812C31.6969 12.4688 31.499 12.25 31.2906 12.125C30.9365 11.9375 30.5094 11.7917 30.0094 11.6875C29.5094 11.5625 29.0823 11.5833 28.7281 11.75C28.5615 11.8333 28.3531 12.0104 28.1031 12.2812C27.8531 12.5521 27.6031 12.8958 27.3531 13.3125C27.1031 13.7083 26.874 14.1667 26.6656 14.6875C26.4781 15.2083 26.3427 15.75 26.2594 16.3125C26.176 16.875 26.1552 17.4792 26.1969 18.125C26.2594 18.7708 26.3948 19.3854 26.6031 19.9688C26.8115 20.5312 27.1031 21.0208 27.4781 21.4375C27.874 21.8333 28.374 22.0625 28.9781 22.125ZM39.4619 9.625C40.0035 9.72917 40.4723 9.8125 40.8681 9.875C41.2848 9.91667 41.639 9.95833 41.9306 10C42.264 10.0417 42.5556 10.0729 42.8056 10.0938C43.0556 10.1146 43.3473 10.1354 43.6806 10.1562C44.2431 10.1771 45.0348 10.1771 46.0556 10.1562C45.4515 10.1146 44.9723 10.2708 44.6181 10.625C44.2848 10.9583 44.0348 11.3438 43.8681 11.7812C43.6598 12.3021 43.5452 12.9062 43.5244 13.5938C43.4827 14.5104 43.5035 15.3438 43.5869 16.0938C43.691 16.8229 43.8681 17.4479 44.1181 17.9688C44.389 18.4688 44.7431 18.8438 45.1806 19.0938C45.6181 19.3229 46.1806 19.3854 46.8681 19.2812C47.5556 19.1771 48.0765 18.9375 48.4306 18.5625C48.8056 18.1667 49.0765 17.6875 49.2431 17.125C49.4098 16.5417 49.5035 15.8854 49.5244 15.1562C49.566 14.4271 49.5973 13.6667 49.6181 12.875C49.6181 12.0833 49.6077 11.5208 49.5869 11.1875C49.5869 10.8333 49.5765 10.6042 49.5556 10.5C49.5348 10.3958 49.5035 10.3542 49.4619 10.375C49.4202 10.375 49.3681 10.3229 49.3056 10.2188C49.264 10.1354 49.2015 10.0521 49.1181 9.96875C49.0556 9.88542 48.9723 9.79167 48.8681 9.6875C48.764 9.5625 48.6494 9.4375 48.5244 9.3125C49.066 9.33333 49.5452 9.35417 49.9619 9.375C50.3994 9.375 50.764 9.38542 51.0556 9.40625C51.389 9.42708 51.6806 9.44792 51.9306 9.46875C52.1598 9.48958 52.4619 9.52083 52.8369 9.5625C53.1494 9.60417 53.5556 9.64583 54.0556 9.6875C54.5556 9.72917 55.1494 9.79167 55.8369 9.875C55.3577 9.97917 54.9723 10.1354 54.6806 10.3438C54.389 10.5521 54.1598 10.7604 53.9931 10.9688C53.8056 11.1979 53.6702 11.4479 53.5869 11.7188C53.5244 12.0729 53.5244 12.6146 53.5869 13.3438C53.6285 13.9896 53.7327 14.875 53.8994 16C54.066 17.125 54.3265 18.6042 54.6806 20.4375L52.2119 21.9062L51.7119 17.75C51.1077 18.7708 50.4619 19.5625 49.7744 20.125C49.1077 20.6667 48.4827 21.0625 47.8994 21.3125C47.2119 21.6042 46.5452 21.7708 45.8994 21.8125C45.0452 21.8125 44.3056 21.7604 43.6806 21.6562C43.0765 21.5312 42.5556 21.375 42.1181 21.1875C41.6806 21 41.3265 20.7917 41.0556 20.5625C40.8056 20.3125 40.6181 20.0625 40.4931 19.8125C40.2015 19.2917 40.0452 18.625 40.0244 17.8125C40.0035 16.9792 40.0348 16.1562 40.1181 15.3438C40.2015 14.5104 40.2952 13.75 40.3994 13.0625C40.5035 12.375 40.5348 11.9062 40.4931 11.6562C40.4515 11.4688 40.389 11.2604 40.3056 11.0312C40.2223 10.8438 40.1181 10.6354 39.9931 10.4062C39.8681 10.1562 39.691 9.89583 39.4619 9.625ZM68.5544 24.875C68.7627 24.5625 68.9294 24.2708 69.0544 24C69.1794 23.7292 69.2835 23.5 69.3669 23.3125C69.4502 23.0833 69.5127 22.875 69.5544 22.6875C69.5752 22.5625 69.5856 22.1979 69.5856 21.5938C69.5856 20.9896 69.5648 20.2292 69.5231 19.3125C69.5023 18.3958 69.471 17.3646 69.4294 16.2188C69.4085 15.0729 69.3669 13.9062 69.3044 12.7188C69.2627 11.5312 69.2106 10.375 69.1481 9.25C69.1065 8.125 69.0648 7.11458 69.0231 6.21875C68.9815 5.30208 68.9398 4.55208 68.8981 3.96875C68.8565 3.38542 68.8252 3.05208 68.8044 2.96875C68.7627 2.84375 68.6898 2.71875 68.5856 2.59375C68.3773 2.34375 68.0231 2.10417 67.5231 1.875C68.5856 1.60417 69.3981 1.38542 69.9606 1.21875C70.294 1.13542 70.5856 1.05208 70.8356 0.96875C71.0648 0.885417 71.294 0.802083 71.5231 0.71875C71.7106 0.635417 71.919 0.541667 72.1481 0.4375C72.3773 0.3125 72.5856 0.177083 72.7731 0.03125C72.669 0.635417 72.5856 1.21875 72.5231 1.78125C72.4606 2.34375 72.4085 2.86458 72.3669 3.34375C72.3252 3.88542 72.3044 4.40625 72.3044 4.90625C72.2002 5.92708 72.1377 7.04167 72.1169 8.25C72.1169 9.4375 72.1273 10.6458 72.1481 11.875C72.169 13.1042 72.2106 14.3021 72.2731 15.4688C72.3356 16.6354 72.3981 17.6979 72.4606 18.6562C72.544 19.5938 72.6169 20.3958 72.6794 21.0625C72.7627 21.7083 72.8252 22.125 72.8669 22.3125C72.9502 22.625 73.0335 22.9271 73.1169 23.2188C73.2002 23.4688 73.294 23.7292 73.3981 24C73.5023 24.2917 73.6273 24.5208 73.7731 24.6875H70.7419C70.471 24.6875 70.2106 24.6979 69.9606 24.7188C69.7315 24.7396 69.4919 24.7604 69.2419 24.7812C68.9919 24.8021 68.7627 24.8333 68.5544 24.875ZM83.9131 10C84.4548 10 85.0173 10.1042 85.6006 10.3125C86.1839 10.5 86.7464 10.75 87.2881 11.0625C87.8298 11.3542 88.3194 11.6771 88.7569 12.0312C89.2152 12.3646 89.5902 12.6875 89.8819 13C90.4027 13.5625 90.7569 14.3229 90.9444 15.2812C91.1527 16.2188 91.1944 17.1875 91.0694 18.1875C90.9444 19.1667 90.6527 20.0938 90.1944 20.9688C89.736 21.8438 89.1006 22.4896 88.2881 22.9062C87.7048 23.1979 87.1319 23.4271 86.5694 23.5938C86.0069 23.7604 85.4652 23.8854 84.9444 23.9688C84.4235 24.0521 83.9339 24.0938 83.4756 24.0938C83.0173 24.0938 82.6214 24.0833 82.2881 24.0625C81.6631 24.0208 81.0069 23.8021 80.3194 23.4062C79.6527 23.0104 79.0173 22.5208 78.4131 21.9375C77.8298 21.3542 77.3298 20.7188 76.9131 20.0312C76.4964 19.3229 76.2464 18.6562 76.1631 18.0312C76.0381 17.1771 76.0173 16.2812 76.1006 15.3438C76.1839 14.4062 76.486 13.5417 77.0069 12.75C77.5485 11.9583 78.361 11.3021 79.4444 10.7812C80.5485 10.2604 82.0381 10 83.9131 10ZM82.8819 22.125C83.111 22.1667 83.4235 22.1146 83.8194 21.9688C84.2152 21.8021 84.6006 21.5417 84.9756 21.1875C85.3714 20.8333 85.7152 20.3854 86.0069 19.8438C86.3194 19.2812 86.5069 18.6042 86.5694 17.8125C86.6319 17.0417 86.6319 16.3333 86.5694 15.6875C86.5277 15.0417 86.4339 14.4792 86.2881 14C86.1423 13.5 85.9756 13.0938 85.7881 12.7812C85.6006 12.4688 85.4027 12.25 85.1944 12.125C84.8402 11.9375 84.4131 11.7917 83.9131 11.6875C83.4131 11.5625 82.986 11.5833 82.6319 11.75C82.4652 11.8333 82.2569 12.0104 82.0069 12.2812C81.7569 12.5521 81.5069 12.8958 81.2569 13.3125C81.0069 13.7083 80.7777 14.1667 80.5694 14.6875C80.3819 15.2083 80.2464 15.75 80.1631 16.3125C80.0798 16.875 80.0589 17.4792 80.1006 18.125C80.1631 18.7708 80.2985 19.3854 80.5069 19.9688C80.7152 20.5312 81.0069 21.0208 81.3819 21.4375C81.7777 21.8333 82.2777 22.0625 82.8819 22.125ZM106.991 6.15625C106.803 6.61458 106.636 7.03125 106.491 7.40625C106.366 7.78125 106.251 8.11458 106.147 8.40625C106.043 8.73958 105.949 9.03125 105.866 9.28125C105.782 9.57292 105.689 9.90625 105.584 10.2812C105.48 10.6146 105.345 11.0312 105.178 11.5312C105.032 12.0104 104.855 12.5833 104.647 13.25C104.48 12.25 104.178 11.4583 103.741 10.875C103.303 10.2708 102.855 9.80208 102.397 9.46875C101.855 9.09375 101.272 8.82292 100.647 8.65625C99.5219 8.46875 98.7094 8.48958 98.2094 8.71875C97.7094 8.94792 97.376 9.23958 97.2094 9.59375C97.126 9.73958 97.0323 9.92708 96.9281 10.1562C96.8448 10.3646 96.7719 10.5833 96.7094 10.8125C96.6677 11.0417 96.6573 11.2708 96.6781 11.5C96.6989 11.7292 96.7927 11.9167 96.9594 12.0625C97.0635 12.1667 97.3344 12.3125 97.7719 12.5C98.2094 12.6667 98.7302 12.8646 99.3344 13.0938C99.9594 13.3021 100.616 13.5312 101.303 13.7812C102.011 14.0312 102.678 14.2812 103.303 14.5312C103.928 14.7812 104.47 15.0312 104.928 15.2812C105.386 15.5312 105.689 15.7604 105.834 15.9688C105.959 16.1771 106.095 16.4583 106.241 16.8125C106.407 17.1458 106.522 17.5208 106.584 17.9375C106.668 18.3333 106.689 18.75 106.647 19.1875C106.626 19.6042 106.511 20.0208 106.303 20.4375C106.095 20.8542 105.761 21.2396 105.303 21.5938C104.866 21.9479 104.272 22.2396 103.522 22.4688C102.647 22.7396 101.803 22.8125 100.991 22.6875C100.178 22.5625 99.4281 22.375 98.7406 22.125C98.0739 21.875 97.4906 21.6354 96.9906 21.4062C96.4906 21.1562 96.1364 21.0521 95.9281 21.0938C95.6989 21.1354 95.4385 21.25 95.1469 21.4375C94.8552 21.625 94.5739 21.8229 94.3031 22.0312C94.0531 22.2188 93.8344 22.3958 93.6469 22.5625C93.4594 22.7083 93.3656 22.7604 93.3656 22.7188C93.3656 22.6771 93.3969 22.5521 93.4594 22.3438C93.5427 22.1354 93.626 21.8854 93.7094 21.5938C93.8135 21.2812 93.9073 20.9479 93.9906 20.5938C94.0948 20.2188 94.1677 19.8646 94.2094 19.5312C94.251 19.2604 94.3031 18.9271 94.3656 18.5312C94.4073 18.1771 94.4594 17.75 94.5219 17.25C94.6052 16.7292 94.6989 16.1042 94.8031 15.375C94.9073 15.9167 95.0531 16.3854 95.2406 16.7812C95.4489 17.1771 95.6469 17.5208 95.8344 17.8125C96.0635 18.1458 96.2823 18.4271 96.4906 18.6562C96.8031 18.9479 97.1677 19.2188 97.5844 19.4688C98.0219 19.7188 98.4594 19.9375 98.8969 20.125C99.3344 20.2917 99.751 20.3958 100.147 20.4375C100.543 20.4792 100.876 20.4375 101.147 20.3125C101.418 20.1875 101.647 19.9583 101.834 19.625C102.043 19.2917 102.189 18.9271 102.272 18.5312C102.355 18.1354 102.386 17.7604 102.366 17.4062C102.345 17.0312 102.251 16.7292 102.084 16.5C101.959 16.3542 101.668 16.1667 101.209 15.9375C100.772 15.7083 100.241 15.4583 99.6156 15.1875C99.0114 14.9167 98.3656 14.6354 97.6781 14.3438C97.0114 14.0521 96.376 13.7604 95.7719 13.4688C95.1885 13.1562 94.6989 12.8646 94.3031 12.5938C93.9281 12.3021 93.7198 12.0417 93.6781 11.8125C93.6364 11.4792 93.6052 11.1146 93.5844 10.7188C93.5635 10.3021 93.5844 9.89583 93.6469 9.5C93.7302 9.08333 93.876 8.6875 94.0844 8.3125C94.3135 7.9375 94.6469 7.625 95.0844 7.375C95.376 7.20833 95.7614 7.08333 96.2406 7C96.7198 6.91667 97.251 6.875 97.8344 6.875C98.4177 6.85417 99.0219 6.875 99.6469 6.9375C100.272 6.97917 100.866 7.04167 101.428 7.125C102.011 7.1875 102.532 7.27083 102.991 7.375C103.47 7.47917 103.834 7.57292 104.084 7.65625C104.376 7.76042 104.689 7.77083 105.022 7.6875C105.314 7.625 105.626 7.48958 105.959 7.28125C106.293 7.07292 106.636 6.69792 106.991 6.15625ZM116.881 18.9688C117.464 18.9688 118.006 18.9062 118.506 18.7812C118.922 18.6771 119.318 18.5104 119.693 18.2812C120.089 18.0312 120.349 17.6667 120.474 17.1875C120.891 17.2708 121.245 17.3438 121.537 17.4062C121.829 17.4479 122.079 17.4896 122.287 17.5312C122.516 17.5938 122.714 17.6354 122.881 17.6562C123.047 17.6979 123.245 17.7396 123.474 17.7812C123.683 17.8229 123.933 17.875 124.224 17.9375C124.537 17.9792 124.901 18.0417 125.318 18.125C125.006 18.0833 124.683 18.1146 124.349 18.2188C124.037 18.3229 123.735 18.4375 123.443 18.5625C123.11 18.7083 122.797 18.8854 122.506 19.0938C122.318 19.2188 122.099 19.4062 121.849 19.6562C121.62 19.9062 121.287 20.1458 120.849 20.375C120.412 20.6042 119.829 20.8021 119.099 20.9688C118.391 21.1146 117.474 21.1667 116.349 21.125C114.995 21.0833 113.86 20.8438 112.943 20.4062C112.026 19.9479 111.287 19.3958 110.724 18.75C110.162 18.0833 109.756 17.3646 109.506 16.5938C109.256 15.8229 109.12 15.1042 109.099 14.4375C109.079 13.7708 109.276 13.0729 109.693 12.3438C110.11 11.6146 110.693 10.9479 111.443 10.3438C112.214 9.73958 113.141 9.25 114.224 8.875C115.308 8.47917 116.495 8.28125 117.787 8.28125C118.537 8.28125 119.224 8.375 119.849 8.5625C120.495 8.72917 121.079 8.95833 121.599 9.25C122.141 9.54167 122.61 9.875 123.006 10.25C123.401 10.6042 123.735 10.9688 124.006 11.3438C124.276 11.7396 124.506 12.1562 124.693 12.5938C124.86 12.9688 124.995 13.3958 125.099 13.875C125.204 14.3542 125.235 14.8438 125.193 15.3438C123.61 15.3854 122.329 15.4167 121.349 15.4375C120.391 15.4583 119.641 15.4688 119.099 15.4688H117.693H116.631C116.256 15.4688 115.766 15.4792 115.162 15.5C114.558 15.5208 113.818 15.5521 112.943 15.5938C113.047 16.4271 113.308 17.0729 113.724 17.5312C114.162 17.9688 114.62 18.3021 115.099 18.5312C115.641 18.7812 116.235 18.9271 116.881 18.9688ZM114.068 13.3438C114.735 13.3854 115.287 13.4167 115.724 13.4375C116.183 13.4583 116.558 13.4792 116.849 13.5C117.162 13.5208 117.412 13.5312 117.599 13.5312H118.381C118.901 13.5312 119.87 13.5 121.287 13.4375C121.224 12.5208 121.026 11.8229 120.693 11.3438C120.381 10.8646 120.047 10.5104 119.693 10.2812C119.276 10.0312 118.818 9.88542 118.318 9.84375C116.964 9.86458 115.954 10.1458 115.287 10.6875C114.641 11.2292 114.235 12.1146 114.068 13.3438Z" fill="#F40E0E"/>
</svg>
