<svg width="135" height="24" viewBox="0 0 135 24" fill="none" xmlns="http://www.w3.org/2000/svg">
<path d="M0.697502 0.8125C1.59334 0.895833 2.385 0.958333 3.0725 1C3.76 1.04167 4.33292 1.08333 4.79125 1.125C5.33292 1.16667 5.79125 1.19792 6.16625 1.21875C6.54125 1.23958 6.99959 1.25 7.54125 1.25C7.99959 1.27083 8.5725 1.28125 9.26 1.28125C9.9475 1.28125 10.76 1.28125 11.6975 1.28125C11.0933 1.57292 10.6246 1.84375 10.2913 2.09375C9.97875 2.34375 9.73917 2.5625 9.5725 2.75C9.36417 2.97917 9.23917 3.1875 9.1975 3.375C9.17667 3.54167 9.21834 3.82292 9.3225 4.21875C9.42667 4.61458 9.5725 5.0625 9.76 5.5625C9.9475 6.04167 10.1767 6.55208 10.4475 7.09375C10.7183 7.63542 10.9996 8.125 11.2913 8.5625C11.6038 8.97917 11.9163 9.32292 12.2288 9.59375C12.5413 9.86458 12.8433 9.98958 13.135 9.96875C13.4267 9.94792 13.7808 9.8125 14.1975 9.5625C14.6142 9.29167 15.0413 8.95833 15.4788 8.5625C15.9371 8.16667 16.385 7.73958 16.8225 7.28125C17.26 6.82292 17.6454 6.375 17.9788 5.9375C18.3329 5.5 18.6142 5.10417 18.8225 4.75C19.0517 4.375 19.1663 4.10417 19.1663 3.9375C19.1454 3.72917 19.0621 3.48958 18.9163 3.21875C18.7913 2.98958 18.5829 2.71875 18.2913 2.40625C17.9996 2.07292 17.5933 1.69792 17.0725 1.28125C18.7808 1.34375 20.0308 1.375 20.8225 1.375H21.9788H23.2913C23.7704 1.375 24.4058 1.375 25.1975 1.375C25.9892 1.35417 26.9788 1.32292 28.1663 1.28125C27.3538 1.82292 26.6454 2.3125 26.0413 2.75C25.4579 3.16667 24.9579 3.52083 24.5413 3.8125C24.0621 4.16667 23.6663 4.47917 23.3538 4.75C22.9996 5.04167 22.51 5.5 21.885 6.125C21.3433 6.66667 20.6246 7.39583 19.7288 8.3125C18.8329 9.20833 17.7079 10.375 16.3538 11.8125C16.1663 13.3333 16.0413 14.5625 15.9788 15.5C15.9371 16.4375 15.9163 17.1771 15.9163 17.7188C15.9163 18.3438 15.9579 18.8125 16.0413 19.125C16.1454 19.375 16.3225 19.6667 16.5725 20C16.7808 20.2917 17.0725 20.6354 17.4475 21.0312C17.8433 21.4271 18.3642 21.8646 19.01 22.3438C18.3225 22.1771 17.6767 22.0521 17.0725 21.9688C16.4892 21.8854 15.9683 21.8229 15.51 21.7812C14.9683 21.7188 14.4788 21.6875 14.0413 21.6875C13.5829 21.6875 13.0413 21.7083 12.4163 21.75C11.8746 21.7917 11.2288 21.8438 10.4788 21.9062C9.72875 21.9688 8.85375 22.0625 7.85375 22.1875C8.37459 21.8333 8.80167 21.4792 9.135 21.125C9.46834 20.7708 9.72875 20.4479 9.91625 20.1562C10.1454 19.8229 10.3121 19.5104 10.4163 19.2188C10.4996 18.8854 10.5621 18.4062 10.6038 17.7812C10.6454 17.2396 10.6454 16.5208 10.6038 15.625C10.5829 14.7292 10.5204 13.5938 10.4163 12.2188C9.16625 10.2188 8.14542 8.64583 7.35375 7.5C6.56209 6.33333 5.9475 5.44792 5.51 4.84375C4.98917 4.15625 4.61417 3.69792 4.385 3.46875C4.17667 3.30208 3.89542 3.09375 3.54125 2.84375C3.24959 2.61458 2.87459 2.34375 2.41625 2.03125C1.93709 1.69792 1.36417 1.29167 0.697502 0.8125ZM30.15 9C30.6917 9 31.2542 9.10417 31.8375 9.3125C32.4208 9.5 32.9833 9.75 33.525 10.0625C34.0667 10.3542 34.5563 10.6771 34.9938 11.0312C35.4521 11.3646 35.8271 11.6875 36.1188 12C36.6396 12.5625 36.9938 13.3229 37.1813 14.2812C37.3896 15.2188 37.4313 16.1875 37.3063 17.1875C37.1813 18.1667 36.8896 19.0938 36.4313 19.9688C35.9729 20.8438 35.3375 21.4896 34.525 21.9062C33.9417 22.1979 33.3688 22.4271 32.8063 22.5938C32.2438 22.7604 31.7021 22.8854 31.1813 22.9688C30.6604 23.0521 30.1708 23.0938 29.7125 23.0938C29.2542 23.0938 28.8583 23.0833 28.525 23.0625C27.9 23.0208 27.2438 22.8021 26.5563 22.4062C25.8896 22.0104 25.2542 21.5208 24.65 20.9375C24.0667 20.3542 23.5667 19.7188 23.15 19.0312C22.7333 18.3229 22.4833 17.6562 22.4 17.0312C22.275 16.1771 22.2542 15.2812 22.3375 14.3438C22.4208 13.4062 22.7229 12.5417 23.2438 11.75C23.7854 10.9583 24.5979 10.3021 25.6813 9.78125C26.7854 9.26042 28.275 9 30.15 9ZM29.1188 21.125C29.3479 21.1667 29.6604 21.1146 30.0563 20.9688C30.4521 20.8021 30.8375 20.5417 31.2125 20.1875C31.6083 19.8333 31.9521 19.3854 32.2438 18.8438C32.5563 18.2812 32.7438 17.6042 32.8063 16.8125C32.8688 16.0417 32.8688 15.3333 32.8063 14.6875C32.7646 14.0417 32.6708 13.4792 32.525 13C32.3792 12.5 32.2125 12.0938 32.025 11.7812C31.8375 11.4688 31.6396 11.25 31.4313 11.125C31.0771 10.9375 30.65 10.7917 30.15 10.6875C29.65 10.5625 29.2229 10.5833 28.8688 10.75C28.7021 10.8333 28.4938 11.0104 28.2438 11.2812C27.9938 11.5521 27.7438 11.8958 27.4938 12.3125C27.2438 12.7083 27.0146 13.1667 26.8063 13.6875C26.6188 14.2083 26.4833 14.75 26.4 15.3125C26.3167 15.875 26.2958 16.4792 26.3375 17.125C26.4 17.7708 26.5354 18.3854 26.7438 18.9688C26.9521 19.5312 27.2438 20.0208 27.6188 20.4375C28.0146 20.8333 28.5146 21.0625 29.1188 21.125ZM39.6025 8.625C40.1442 8.72917 40.6129 8.8125 41.0088 8.875C41.4254 8.91667 41.7796 8.95833 42.0713 9C42.4046 9.04167 42.6963 9.07292 42.9463 9.09375C43.1963 9.11458 43.4879 9.13542 43.8213 9.15625C44.3838 9.17708 45.1754 9.17708 46.1963 9.15625C45.5921 9.11458 45.1129 9.27083 44.7588 9.625C44.4254 9.95833 44.1754 10.3438 44.0088 10.7812C43.8004 11.3021 43.6858 11.9062 43.665 12.5938C43.6233 13.5104 43.6442 14.3438 43.7275 15.0938C43.8317 15.8229 44.0088 16.4479 44.2588 16.9688C44.5296 17.4688 44.8838 17.8438 45.3213 18.0938C45.7588 18.3229 46.3213 18.3854 47.0088 18.2812C47.6963 18.1771 48.2171 17.9375 48.5713 17.5625C48.9463 17.1667 49.2171 16.6875 49.3838 16.125C49.5504 15.5417 49.6442 14.8854 49.665 14.1562C49.7067 13.4271 49.7379 12.6667 49.7588 11.875C49.7588 11.0833 49.7483 10.5208 49.7275 10.1875C49.7275 9.83333 49.7171 9.60417 49.6963 9.5C49.6754 9.39583 49.6442 9.35417 49.6025 9.375C49.5608 9.375 49.5088 9.32292 49.4463 9.21875C49.4046 9.13542 49.3421 9.05208 49.2588 8.96875C49.1963 8.88542 49.1129 8.79167 49.0088 8.6875C48.9046 8.5625 48.79 8.4375 48.665 8.3125C49.2067 8.33333 49.6858 8.35417 50.1025 8.375C50.54 8.375 50.9046 8.38542 51.1963 8.40625C51.5296 8.42708 51.8213 8.44792 52.0713 8.46875C52.3004 8.48958 52.6025 8.52083 52.9775 8.5625C53.29 8.60417 53.6963 8.64583 54.1963 8.6875C54.6963 8.72917 55.29 8.79167 55.9775 8.875C55.4983 8.97917 55.1129 9.13542 54.8213 9.34375C54.5296 9.55208 54.3004 9.76042 54.1338 9.96875C53.9463 10.1979 53.8108 10.4479 53.7275 10.7188C53.665 11.0729 53.665 11.6146 53.7275 12.3438C53.7692 12.9896 53.8733 13.875 54.04 15C54.2067 16.125 54.4671 17.6042 54.8213 19.4375L52.3525 20.9062L51.8525 16.75C51.2483 17.7708 50.6025 18.5625 49.915 19.125C49.2483 19.6667 48.6233 20.0625 48.04 20.3125C47.3525 20.6042 46.6858 20.7708 46.04 20.8125C45.1858 20.8125 44.4463 20.7604 43.8213 20.6562C43.2171 20.5312 42.6963 20.375 42.2588 20.1875C41.8213 20 41.4671 19.7917 41.1963 19.5625C40.9463 19.3125 40.7588 19.0625 40.6338 18.8125C40.3421 18.2917 40.1858 17.625 40.165 16.8125C40.1442 15.9792 40.1754 15.1562 40.2588 14.3438C40.3421 13.5104 40.4358 12.75 40.54 12.0625C40.6442 11.375 40.6754 10.9062 40.6338 10.6562C40.5921 10.4688 40.5296 10.2604 40.4463 10.0312C40.3629 9.84375 40.2588 9.63542 40.1338 9.40625C40.0088 9.15625 39.8317 8.89583 39.6025 8.625ZM66.07 8.59375C66.695 8.63542 67.2471 8.66667 67.7263 8.6875C68.2263 8.70833 68.6429 8.72917 68.9763 8.75C69.3513 8.77083 69.6846 8.78125 69.9763 8.78125C70.2679 8.78125 70.6013 8.77083 70.9763 8.75C71.3096 8.72917 71.7158 8.69792 72.195 8.65625C72.695 8.59375 73.2679 8.51042 73.9138 8.40625C73.4138 8.71875 73.0075 9.01042 72.695 9.28125C72.4033 9.53125 72.1742 9.76042 72.0075 9.96875C71.82 10.1979 71.695 10.4062 71.6325 10.5938C71.5908 10.7604 71.5492 11.0938 71.5075 11.5938C71.4867 12.0729 71.4658 12.6354 71.445 13.2812C71.445 13.9062 71.4554 14.5729 71.4763 15.2812C71.4971 15.9896 71.5283 16.6354 71.57 17.2188C71.6117 17.7812 71.6742 18.2604 71.7575 18.6562C71.8408 19.0312 71.945 19.2083 72.07 19.1875C72.2367 19.0417 72.5075 18.5521 72.8825 17.7188C73.0283 17.3646 73.2054 16.9167 73.4138 16.375C73.6221 15.8125 73.8617 15.1354 74.1325 14.3438C74.4033 13.5312 74.7054 12.5833 75.0388 11.5C75.3929 10.4167 75.7888 9.15625 76.2263 7.71875H78.945C79.0283 9.13542 79.1221 10.375 79.2263 11.4375C79.3304 12.5 79.4346 13.4271 79.5388 14.2188C79.6429 14.9896 79.7367 15.6458 79.82 16.1875C79.9242 16.7083 80.0283 17.1354 80.1325 17.4688C80.3617 18.2604 80.5908 18.6875 80.82 18.75C81.0075 18.7083 81.2054 18.4688 81.4138 18.0312C81.6429 17.5938 81.8513 17.0521 82.0388 16.4062C82.2471 15.7604 82.4346 15.0625 82.6013 14.3125C82.7679 13.5417 82.9138 12.8229 83.0388 12.1562C83.1638 11.4896 83.2471 10.9062 83.2888 10.4062C83.3304 9.90625 83.3304 9.59375 83.2888 9.46875C83.2263 9.34375 83.1013 9.16667 82.9138 8.9375C82.7471 8.75 82.5179 8.52083 82.2263 8.25C81.9554 7.97917 81.5804 7.65625 81.1013 7.28125C81.6846 7.38542 82.2367 7.45833 82.7575 7.5C83.2992 7.52083 83.7783 7.54167 84.195 7.5625C84.6742 7.58333 85.1117 7.58333 85.5075 7.5625C85.9242 7.5625 86.4346 7.55208 87.0388 7.53125C87.5596 7.51042 88.2054 7.5 88.9763 7.5C89.7679 7.5 90.695 7.47917 91.7575 7.4375C90.82 7.72917 90.07 8.01042 89.5075 8.28125C88.9658 8.53125 88.5492 8.77083 88.2575 9C87.9033 9.25 87.6533 9.48958 87.5075 9.71875C87.3617 10.0312 87.1325 10.6875 86.82 11.6875C86.695 12.1042 86.5388 12.625 86.3513 13.25C86.1638 13.8542 85.945 14.5729 85.695 15.4062C85.445 16.2396 85.1638 17.2083 84.8513 18.3125C84.5388 19.3958 84.1846 20.6354 83.7888 22.0312C83.5596 21.9896 83.32 21.9688 83.07 21.9688C82.8408 21.9479 82.6221 21.9375 82.4138 21.9375H81.695C81.445 21.9583 81.1742 21.9792 80.8825 22C80.6325 22.0208 80.3408 22.0521 80.0075 22.0938C79.6742 22.1354 79.3096 22.1875 78.9138 22.25L77.0388 14.6562L73.9763 22.25L70.4763 22.1562C70.0388 19.8021 69.6846 17.9271 69.4138 16.5312C69.1638 15.1146 68.9554 14.0312 68.7888 13.2812C68.6013 12.4062 68.4763 11.7917 68.4138 11.4375C68.3096 11.0625 68.1533 10.6979 67.945 10.3438C67.7783 10.0521 67.5388 9.75 67.2263 9.4375C66.9138 9.10417 66.5283 8.82292 66.07 8.59375ZM97.2412 9C97.7829 9 98.3454 9.10417 98.9287 9.3125C99.5121 9.5 100.075 9.75 100.616 10.0625C101.158 10.3542 101.647 10.6771 102.085 11.0312C102.543 11.3646 102.918 11.6875 103.21 12C103.731 12.5625 104.085 13.3229 104.272 14.2812C104.481 15.2188 104.522 16.1875 104.397 17.1875C104.272 18.1667 103.981 19.0938 103.522 19.9688C103.064 20.8438 102.429 21.4896 101.616 21.9062C101.033 22.1979 100.46 22.4271 99.8975 22.5938C99.335 22.7604 98.7933 22.8854 98.2725 22.9688C97.7517 23.0521 97.2621 23.0938 96.8037 23.0938C96.3454 23.0938 95.9496 23.0833 95.6162 23.0625C94.9912 23.0208 94.335 22.8021 93.6475 22.4062C92.9808 22.0104 92.3454 21.5208 91.7412 20.9375C91.1579 20.3542 90.6579 19.7188 90.2412 19.0312C89.8246 18.3229 89.5746 17.6562 89.4912 17.0312C89.3662 16.1771 89.3454 15.2812 89.4287 14.3438C89.5121 13.4062 89.8142 12.5417 90.335 11.75C90.8767 10.9583 91.6892 10.3021 92.7725 9.78125C93.8767 9.26042 95.3662 9 97.2412 9ZM96.21 21.125C96.4392 21.1667 96.7517 21.1146 97.1475 20.9688C97.5433 20.8021 97.9287 20.5417 98.3037 20.1875C98.6996 19.8333 99.0433 19.3854 99.335 18.8438C99.6475 18.2812 99.835 17.6042 99.8975 16.8125C99.96 16.0417 99.96 15.3333 99.8975 14.6875C99.8558 14.0417 99.7621 13.4792 99.6162 13C99.4704 12.5 99.3037 12.0938 99.1162 11.7812C98.9287 11.4688 98.7308 11.25 98.5225 11.125C98.1683 10.9375 97.7412 10.7917 97.2412 10.6875C96.7412 10.5625 96.3142 10.5833 95.96 10.75C95.7933 10.8333 95.585 11.0104 95.335 11.2812C95.085 11.5521 94.835 11.8958 94.585 12.3125C94.335 12.7083 94.1058 13.1667 93.8975 13.6875C93.71 14.2083 93.5746 14.75 93.4912 15.3125C93.4079 15.875 93.3871 16.4792 93.4287 17.125C93.4912 17.7708 93.6267 18.3854 93.835 18.9688C94.0433 19.5312 94.335 20.0208 94.71 20.4375C95.1058 20.8333 95.6058 21.0625 96.21 21.125ZM107.506 19.5625C107.652 18.875 107.756 18.2708 107.819 17.75C107.902 17.2083 107.965 16.7604 108.006 16.4062C108.048 15.9896 108.069 15.6354 108.069 15.3438C108.048 14.9896 108.027 14.5729 108.006 14.0938C108.006 13.5938 107.985 13.1042 107.944 12.625C107.923 12.125 107.892 11.6875 107.85 11.3125C107.808 10.9167 107.756 10.6354 107.694 10.4688C107.61 10.3021 107.496 10.125 107.35 9.9375C107.058 9.58333 106.631 9.23958 106.069 8.90625C106.548 8.80208 106.954 8.71875 107.287 8.65625C107.642 8.57292 107.933 8.5 108.162 8.4375C108.412 8.35417 108.631 8.28125 108.819 8.21875C108.985 8.15625 109.183 8.09375 109.412 8.03125C109.6 7.98958 109.829 7.9375 110.1 7.875C110.371 7.8125 110.683 7.73958 111.037 7.65625L110.944 10.5C111.61 9.70833 112.287 9.11458 112.975 8.71875C113.662 8.32292 114.308 8.04167 114.912 7.875C115.6 7.66667 116.277 7.5625 116.944 7.5625C117.777 7.60417 118.548 7.73958 119.256 7.96875C119.985 8.19792 120.61 8.46875 121.131 8.78125C121.673 9.07292 122.11 9.38542 122.444 9.71875C122.777 10.0521 122.975 10.3438 123.037 10.5938C123.287 11.4062 123.35 12.1562 123.225 12.8438C123.1 13.5104 122.933 14.1667 122.725 14.8125C122.537 15.4375 122.371 16.0625 122.225 16.6875C122.1 17.3125 122.152 17.9896 122.381 18.7188C122.465 18.9062 122.548 19.0938 122.631 19.2812C122.715 19.4479 122.819 19.6146 122.944 19.7812C123.069 19.9479 123.215 20.0833 123.381 20.1875C123.152 20.1667 122.923 20.1562 122.694 20.1562C122.465 20.1354 122.256 20.1146 122.069 20.0938C121.84 20.0729 121.631 20.0521 121.444 20.0312C121.235 20.0104 120.954 20 120.6 20C119.996 20 119.058 20.0312 117.787 20.0938C117.975 19.6562 118.121 19.2917 118.225 19C118.35 18.6875 118.454 18.4375 118.537 18.25C118.621 18.0208 118.683 17.8438 118.725 17.7188C118.975 17.1146 119.121 16.4271 119.162 15.6562C119.225 14.8854 119.173 14.1042 119.006 13.3125C118.944 13.0417 118.84 12.7188 118.694 12.3438C118.548 11.9688 118.35 11.6042 118.1 11.25C117.871 10.8958 117.59 10.5938 117.256 10.3438C116.944 10.0938 116.579 9.94792 116.162 9.90625C115.746 9.86458 115.277 9.96875 114.756 10.2188C114.256 10.4688 113.715 10.9271 113.131 11.5938C112.694 12.1562 112.35 12.8438 112.1 13.6562C111.871 14.3438 111.715 15.2083 111.631 16.25C111.548 17.2708 111.673 18.4688 112.006 19.8438C111.715 19.8021 111.444 19.7812 111.194 19.7812C110.944 19.7604 110.735 19.7396 110.569 19.7188C110.36 19.6979 110.173 19.6771 110.006 19.6562C109.819 19.6562 109.61 19.6458 109.381 19.625C109.173 19.625 108.912 19.625 108.6 19.625C108.287 19.6042 107.923 19.5833 107.506 19.5625ZM127.803 0.46875C128.198 0.572917 128.573 0.65625 128.928 0.71875C129.282 0.760417 129.594 0.802083 129.865 0.84375C130.178 0.885417 130.469 0.916667 130.74 0.9375C131.032 0.958333 131.375 0.979167 131.771 1C132.125 1.02083 132.553 1.03125 133.053 1.03125C133.553 1.03125 134.146 1.03125 134.834 1.03125C134.23 2.46875 133.74 3.6875 133.365 4.6875C132.99 5.66667 132.698 6.47917 132.49 7.125C132.261 7.875 132.094 8.48958 131.99 8.96875C131.907 9.44792 131.803 10.0312 131.678 10.7188C131.573 11.3229 131.428 12.0625 131.24 12.9375C131.053 13.8125 130.844 14.8542 130.615 16.0625L127.865 15.9375C128.032 14.8333 128.146 13.8958 128.209 13.125C128.271 12.3333 128.323 11.6771 128.365 11.1562C128.407 10.5521 128.428 10.0521 128.428 9.65625C128.428 9.23958 128.396 8.61458 128.334 7.78125C128.292 7.09375 128.23 6.16667 128.146 5C128.063 3.8125 127.948 2.30208 127.803 0.46875ZM131.24 18.4375C131.386 18.6667 131.469 18.9271 131.49 19.2188C131.532 19.4896 131.511 19.7708 131.428 20.0625C131.365 20.3333 131.23 20.5938 131.021 20.8438C130.834 21.0938 130.573 21.2917 130.24 21.4375C129.573 21.75 128.98 21.8333 128.459 21.6875C127.938 21.5208 127.553 21.25 127.303 20.875C127.157 20.6667 127.073 20.4375 127.053 20.1875C127.053 19.9167 127.105 19.6562 127.209 19.4062C127.313 19.1354 127.48 18.8854 127.709 18.6562C127.938 18.4271 128.23 18.2396 128.584 18.0938C129.271 17.8021 129.834 17.6979 130.271 17.7812C130.73 17.8646 131.053 18.0833 131.24 18.4375Z" fill="#FECA14"/>
</svg>
