<svg width="158" height="26" viewBox="0 0 158 26" fill="none" xmlns="http://www.w3.org/2000/svg">
<path d="M0.212891 1.97266C0.805339 2.04036 1.30469 2.09115 1.71094 2.125C2.11719 2.14193 2.4388 2.15885 2.67578 2.17578C2.96354 2.19271 3.19206 2.20117 3.36133 2.20117C3.64909 2.20117 3.97917 2.19271 4.35156 2.17578C4.67318 2.15885 5.04557 2.13346 5.46875 2.09961C5.90885 2.04883 6.38281 1.97266 6.89062 1.87109C6.65365 2.125 6.45898 2.37044 6.30664 2.60742C6.1543 2.82747 6.03581 3.0306 5.95117 3.2168C5.84961 3.41992 5.76497 3.60612 5.69727 3.77539C5.62956 3.99544 5.55339 4.33398 5.46875 4.79102C5.38411 5.18034 5.29102 5.73047 5.18945 6.44141C5.10482 7.15234 4.99479 8.08333 4.85938 9.23438C5.4349 9.2513 5.93424 9.25977 6.35742 9.25977C6.7806 9.24284 7.13607 9.23438 7.42383 9.23438H8.26172C8.4987 9.21745 8.76953 9.20052 9.07422 9.18359C9.58203 9.16667 10.3522 9.11589 11.3848 9.03125C11.4694 8.2526 11.5117 7.58398 11.5117 7.02539C11.5286 6.44987 11.5202 5.96745 11.4863 5.57812C11.4525 5.13802 11.4017 4.76562 11.334 4.46094C11.2832 4.29167 11.207 4.08854 11.1055 3.85156C11.0208 3.64844 10.9023 3.40299 10.75 3.11523C10.6146 2.81055 10.4284 2.44661 10.1914 2.02344C10.6315 2.09115 11.0208 2.14193 11.3594 2.17578C11.7148 2.19271 12.0111 2.20964 12.248 2.22656C12.5189 2.24349 12.7474 2.25195 12.9336 2.25195C13.1198 2.25195 13.3652 2.24349 13.6699 2.22656C13.9238 2.20964 14.237 2.20117 14.6094 2.20117C14.9818 2.18424 15.4388 2.15885 15.9805 2.125C15.8451 2.36198 15.7266 2.60742 15.625 2.86133C15.5234 3.11523 15.4388 3.34375 15.3711 3.54688C15.3034 3.78385 15.2357 4.02083 15.168 4.25781C15.0833 4.61328 15.0072 5.12956 14.9395 5.80664C14.8887 6.48372 14.8379 7.23698 14.7871 8.06641C14.7533 8.89583 14.7194 9.75911 14.6855 10.6562C14.6686 11.5534 14.6517 12.3997 14.6348 13.1953C14.6348 13.9909 14.6432 14.7018 14.6602 15.3281C14.6771 15.9375 14.7109 16.3691 14.7617 16.623C14.8125 16.9277 14.8971 17.2409 15.0156 17.5625C15.1172 17.8503 15.2526 18.1634 15.4219 18.502C15.5911 18.8236 15.8112 19.1283 16.082 19.416L9.96289 19.873C10.2168 19.6361 10.4199 19.4076 10.5723 19.1875C10.7246 18.9505 10.8431 18.7474 10.9277 18.5781C11.0124 18.3919 11.0716 18.2142 11.1055 18.0449C11.1224 17.8418 11.1478 17.4863 11.1816 16.9785C11.2155 16.5553 11.2493 15.9544 11.2832 15.1758C11.3171 14.3971 11.3509 13.3646 11.3848 12.0781C11.1478 12.0781 10.86 12.0866 10.5215 12.1035C10.1999 12.1035 9.89518 12.112 9.60742 12.1289C9.26888 12.1458 8.91341 12.1543 8.54102 12.1543C8.16862 12.1712 7.7793 12.1882 7.37305 12.2051C7.03451 12.2389 6.65365 12.2728 6.23047 12.3066C5.82422 12.3236 5.41797 12.349 5.01172 12.3828C4.97786 13.0938 4.97786 13.7201 5.01172 14.2617C5.04557 14.7865 5.09635 15.235 5.16406 15.6074C5.23177 16.0475 5.31641 16.4284 5.41797 16.75C5.51953 17.0547 5.62956 17.3594 5.74805 17.6641C5.84961 17.9349 5.9681 18.2227 6.10352 18.5273C6.25586 18.832 6.4082 19.1029 6.56055 19.3398C6.23893 19.306 5.94271 19.2806 5.67188 19.2637C5.40104 19.2298 5.16406 19.196 4.96094 19.1621C4.72396 19.1452 4.49544 19.1283 4.27539 19.1113C4.05534 19.1113 3.79297 19.1029 3.48828 19.0859C3.21745 19.069 2.87891 19.0605 2.47266 19.0605C2.06641 19.0436 1.59245 19.0352 1.05078 19.0352C1.3724 18.7135 1.6263 18.4004 1.8125 18.0957C2.01562 17.7741 2.15951 17.4863 2.24414 17.2324C2.3457 16.9277 2.41341 16.6484 2.44727 16.3945C2.46419 16.1745 2.47266 15.7598 2.47266 15.1504C2.48958 14.541 2.48958 13.847 2.47266 13.0684C2.47266 12.2728 2.46419 11.4434 2.44727 10.5801C2.43034 9.69987 2.40495 8.87891 2.37109 8.11719C2.35417 7.35547 2.32878 6.70378 2.29492 6.16211C2.27799 5.60352 2.26107 5.25651 2.24414 5.12109C2.15951 4.81641 2.03255 4.48633 1.86328 4.13086C1.71094 3.8431 1.50781 3.51302 1.25391 3.14062C1 2.7513 0.652995 2.36198 0.212891 1.97266ZM18.8811 9.7168C18.9657 9.61523 19.0165 9.42904 19.0334 9.1582C19.0673 8.87044 19.135 8.54883 19.2366 8.19336C19.3551 7.83789 19.5497 7.46549 19.8205 7.07617C20.0914 6.68685 20.5315 6.32292 21.1409 5.98438C21.7333 5.64583 22.3088 5.44271 22.8674 5.375C23.426 5.30729 23.9592 5.33268 24.467 5.45117C24.9748 5.56966 25.4488 5.75586 25.8889 6.00977C26.3459 6.26367 26.7607 6.54297 27.133 6.84766C27.387 7.05078 27.5901 7.34701 27.7424 7.73633C27.8948 8.10872 28.0133 8.5319 28.0979 9.00586C28.1825 9.47982 28.2418 9.97917 28.2756 10.5039C28.3264 11.0117 28.3603 11.5111 28.3772 12.002C28.3941 12.4759 28.4026 12.916 28.4026 13.3223C28.4195 13.7116 28.4534 14.0332 28.5041 14.2871C28.5718 14.6595 28.6903 14.9811 28.8596 15.252C29.0289 15.5059 29.2151 15.7259 29.4182 15.9121C29.6213 16.0814 29.8245 16.2168 30.0276 16.3184C30.2307 16.4199 30.4084 16.4961 30.5608 16.5469C30.6623 16.5977 30.7554 16.6315 30.8401 16.6484C31.0093 16.7161 31.1278 16.7161 31.1955 16.6484C31.094 16.8854 31.0009 17.0885 30.9163 17.2578C30.8316 17.4271 30.7639 17.571 30.7131 17.6895C30.6454 17.8249 30.5862 17.9349 30.5354 18.0195C30.4846 18.1211 30.4254 18.2142 30.3577 18.2988C30.3069 18.3835 30.2392 18.4766 30.1545 18.5781C30.0699 18.6797 29.9853 18.7897 29.9006 18.9082C29.6806 18.8236 29.469 18.722 29.2659 18.6035C29.0797 18.485 28.9104 18.375 28.758 18.2734C28.5718 18.1549 28.4026 18.0365 28.2502 17.918C28.0979 17.7995 27.954 17.6641 27.8186 17.5117C27.7001 17.3763 27.5732 17.2324 27.4377 17.0801C27.3192 16.9277 27.2177 16.7585 27.133 16.5723C27.0315 16.7923 26.786 17.1055 26.3967 17.5117C26.0243 17.918 25.5334 18.2904 24.9241 18.6289C24.3147 18.9505 23.6038 19.179 22.7913 19.3145C21.9957 19.4499 21.1155 19.3568 20.1506 19.0352C19.7274 18.8997 19.3297 18.7051 18.9573 18.4512C18.5849 18.1803 18.2633 17.8587 17.9924 17.4863C17.7385 17.1139 17.5523 16.6908 17.4338 16.2168C17.3323 15.7259 17.3407 15.1842 17.4592 14.5918C17.5777 13.9993 17.7893 13.5 18.094 13.0938C18.3987 12.6875 18.7626 12.3574 19.1858 12.1035C19.609 11.8496 20.0829 11.6549 20.6077 11.5195C21.1324 11.3841 21.6741 11.291 22.2327 11.2402C22.6728 11.2233 23.1129 11.2487 23.553 11.3164C23.9254 11.3841 24.3147 11.5111 24.7209 11.6973C25.1272 11.8665 25.4742 12.1289 25.762 12.4844C25.745 11.5872 25.7112 10.8763 25.6604 10.3516C25.6265 9.8099 25.5927 9.39518 25.5588 9.10742C25.4911 8.76888 25.4319 8.5319 25.3811 8.39648C25.2965 8.27799 25.2034 8.14258 25.1018 7.99023C25.0172 7.83789 24.9071 7.70247 24.7717 7.58398C24.6363 7.44857 24.467 7.33854 24.2639 7.25391C24.0608 7.16927 23.8238 7.13542 23.553 7.15234C23.2652 7.16927 23.0367 7.24544 22.8674 7.38086C22.6982 7.51628 22.5627 7.67708 22.4612 7.86328C22.3765 8.03255 22.3258 8.21875 22.3088 8.42188C22.2919 8.625 22.3004 8.80273 22.3342 8.95508C22.3681 9.05664 22.4189 9.16667 22.4866 9.28516C22.5543 9.38672 22.6474 9.49674 22.7659 9.61523C22.8843 9.73372 23.0452 9.83529 23.2483 9.91992C22.859 9.9707 22.512 10.013 22.2073 10.0469C21.9026 10.0638 21.6402 10.0892 21.4202 10.123C21.1663 10.1569 20.9462 10.1823 20.76 10.1992C20.5738 10.2161 20.3538 10.25 20.0998 10.3008C19.8798 10.3346 19.609 10.377 19.2873 10.4277C18.9657 10.4785 18.5933 10.5462 18.1702 10.6309C18.2717 10.5124 18.3648 10.4023 18.4495 10.3008C18.5341 10.1823 18.6103 10.0807 18.678 9.99609C18.7457 9.89453 18.8134 9.80143 18.8811 9.7168ZM22.6897 12.7383C22.385 12.7552 22.0803 12.8314 21.7756 12.9668C21.4709 13.0853 21.2001 13.263 20.9631 13.5C20.7261 13.7201 20.523 13.9824 20.3538 14.2871C20.2014 14.5749 20.1252 14.8965 20.1252 15.252C20.1252 15.6074 20.2099 15.9206 20.3791 16.1914C20.5653 16.4453 20.8023 16.6569 21.0901 16.8262C21.3948 16.9954 21.7164 17.097 22.0549 17.1309C22.4104 17.1647 22.7574 17.1309 23.0959 17.0293C23.4176 16.9108 23.7222 16.7246 24.01 16.4707C24.2978 16.1999 24.5432 15.9121 24.7463 15.6074C24.9495 15.2858 25.0933 14.9727 25.178 14.668C25.2626 14.3464 25.2711 14.084 25.2034 13.8809C25.0679 13.4408 24.7633 13.1361 24.2893 12.9668C23.8153 12.7806 23.2821 12.7044 22.6897 12.7383ZM30.4399 8.16797C30.9816 8.08333 31.4217 8.01562 31.7602 7.96484C32.1157 7.89714 32.4035 7.84635 32.6235 7.8125C32.8774 7.76172 33.0721 7.7194 33.2075 7.68555C33.3429 7.65169 33.5376 7.60091 33.7915 7.5332C34.0115 7.46549 34.2993 7.38932 34.6548 7.30469C35.0102 7.20312 35.4588 7.06771 36.0005 6.89844C35.8651 7.06771 35.755 7.22005 35.6704 7.35547C35.6027 7.47396 35.535 7.57552 35.4673 7.66016C35.3996 7.76172 35.3403 7.85482 35.2895 7.93945C35.2388 8.02409 35.188 8.15104 35.1372 8.32031C35.1033 8.45573 35.061 8.65039 35.0102 8.9043C34.9595 9.14128 34.9171 9.45443 34.8833 9.84375C35.7973 9.26823 36.6352 8.83659 37.397 8.54883C38.1756 8.26107 38.8527 8.05794 39.4282 7.93945C40.1053 7.80404 40.7147 7.75326 41.2563 7.78711C41.9334 7.83789 42.5597 7.99023 43.1352 8.24414C43.7277 8.48112 44.2609 8.76888 44.7348 9.10742C45.2088 9.44596 45.6235 9.81836 45.979 10.2246C46.3345 10.6309 46.6138 11.0371 46.8169 11.4434C46.9523 11.7142 47.0369 12.1035 47.0708 12.6113C47.1216 13.1191 47.0708 13.6608 46.9184 14.2363C46.7661 14.8118 46.4953 15.3789 46.1059 15.9375C45.7335 16.4792 45.2003 16.9108 44.5063 17.2324C43.3045 17.7741 42.1111 18.0788 40.9263 18.1465C40.4184 18.1803 39.8937 18.1634 39.352 18.0957C38.8273 18.028 38.2941 17.8841 37.7524 17.6641C37.2277 17.444 36.7199 17.1309 36.229 16.7246C35.7381 16.3014 35.2895 15.7598 34.8833 15.0996C34.7479 15.9629 34.6463 16.7161 34.5786 17.3594C34.5278 17.9857 34.494 18.5104 34.477 18.9336C34.4601 19.4245 34.4601 19.8392 34.477 20.1777C34.5109 20.5163 34.5786 20.8802 34.6802 21.2695C34.7648 21.6081 34.8833 21.9974 35.0356 22.4375C35.2049 22.8945 35.4165 23.3685 35.6704 23.8594C35.5688 23.8255 35.4249 23.8001 35.2388 23.7832C35.0695 23.7832 34.8917 23.8001 34.7055 23.834C34.5024 23.8678 34.2739 23.9017 34.02 23.9355C33.783 23.9863 33.5207 24.0456 33.2329 24.1133C32.9959 24.1641 32.7166 24.2233 32.395 24.291C32.0903 24.3757 31.7772 24.4688 31.4555 24.5703C31.6417 24.3503 31.7856 24.0964 31.8872 23.8086C32.0057 23.5378 32.0988 23.2839 32.1665 23.0469C32.2342 22.7591 32.2934 22.4714 32.3442 22.1836C32.3611 21.9297 32.3865 21.4473 32.4204 20.7363C32.4712 20.0423 32.5135 19.2383 32.5473 18.3242C32.5812 17.3932 32.6066 16.4199 32.6235 15.4043C32.6574 14.3887 32.6743 13.4492 32.6743 12.5859C32.6912 11.7057 32.6912 10.9609 32.6743 10.3516C32.6574 9.74219 32.6235 9.38672 32.5727 9.28516C32.505 9.16667 32.3781 9.03971 32.1919 8.9043C32.0395 8.78581 31.8195 8.66732 31.5317 8.54883C31.2609 8.43034 30.897 8.30339 30.4399 8.16797ZM36.4829 12.7891C36.3644 13.1784 36.339 13.5592 36.4067 13.9316C36.4744 14.304 36.6437 14.651 36.9145 14.9727C37.2023 15.2943 37.6001 15.582 38.1079 15.8359C38.6326 16.0729 39.2843 16.2507 40.063 16.3691C40.8416 16.4876 41.4341 16.4707 41.8403 16.3184C42.2466 16.166 42.5428 15.929 42.729 15.6074C42.9321 15.2689 43.0675 14.8796 43.1352 14.4395C43.2029 13.9824 43.2876 13.5085 43.3891 13.0176C43.4907 12.5436 43.4738 12.0612 43.3384 11.5703C43.2029 11.0625 43.0083 10.6055 42.7544 10.1992C42.5174 9.79297 42.2466 9.46289 41.9419 9.20898C41.6541 8.93815 41.4002 8.80273 41.1802 8.80273C40.6554 8.80273 40.1391 8.93815 39.6313 9.20898C39.1235 9.47982 38.658 9.81836 38.2348 10.2246C37.8117 10.6309 37.4393 11.071 37.1177 11.5449C36.813 12.002 36.6014 12.4167 36.4829 12.7891ZM47.6101 8.16797C48.1517 8.08333 48.5918 8.01562 48.9304 7.96484C49.2859 7.89714 49.5736 7.84635 49.7937 7.8125C50.0476 7.76172 50.2422 7.7194 50.3777 7.68555C50.5131 7.65169 50.7077 7.60091 50.9616 7.5332C51.1817 7.46549 51.4695 7.38932 51.8249 7.30469C52.1804 7.20312 52.629 7.06771 53.1706 6.89844C53.0352 7.06771 52.9252 7.22005 52.8405 7.35547C52.7728 7.47396 52.7051 7.57552 52.6374 7.66016C52.5697 7.76172 52.5105 7.85482 52.4597 7.93945C52.4089 8.02409 52.3581 8.15104 52.3073 8.32031C52.2735 8.45573 52.2312 8.65039 52.1804 8.9043C52.1296 9.14128 52.0873 9.45443 52.0534 9.84375C52.9675 9.26823 53.8054 8.83659 54.5671 8.54883C55.3458 8.26107 56.0228 8.05794 56.5984 7.93945C57.2754 7.80404 57.8848 7.75326 58.4265 7.78711C59.1036 7.83789 59.7299 7.99023 60.3054 8.24414C60.8978 8.48112 61.431 8.76888 61.905 9.10742C62.379 9.44596 62.7937 9.81836 63.1491 10.2246C63.5046 10.6309 63.7839 11.0371 63.987 11.4434C64.1224 11.7142 64.2071 12.1035 64.2409 12.6113C64.2917 13.1191 64.2409 13.6608 64.0886 14.2363C63.9362 14.8118 63.6654 15.3789 63.2761 15.9375C62.9037 16.4792 62.3705 16.9108 61.6765 17.2324C60.4747 17.7741 59.2813 18.0788 58.0964 18.1465C57.5886 18.1803 57.0639 18.1634 56.5222 18.0957C55.9974 18.028 55.4642 17.8841 54.9226 17.6641C54.3978 17.444 53.89 17.1309 53.3991 16.7246C52.9083 16.3014 52.4597 15.7598 52.0534 15.0996C51.918 15.9629 51.8165 16.7161 51.7487 17.3594C51.698 17.9857 51.6641 18.5104 51.6472 18.9336C51.6303 19.4245 51.6303 19.8392 51.6472 20.1777C51.681 20.5163 51.7487 20.8802 51.8503 21.2695C51.9349 21.6081 52.0534 21.9974 52.2058 22.4375C52.3751 22.8945 52.5866 23.3685 52.8405 23.8594C52.739 23.8255 52.5951 23.8001 52.4089 23.7832C52.2396 23.7832 52.0619 23.8001 51.8757 23.834C51.6726 23.8678 51.4441 23.9017 51.1902 23.9355C50.9532 23.9863 50.6908 24.0456 50.403 24.1133C50.1661 24.1641 49.8868 24.2233 49.5652 24.291C49.2605 24.3757 48.9473 24.4688 48.6257 24.5703C48.8119 24.3503 48.9558 24.0964 49.0573 23.8086C49.1758 23.5378 49.2689 23.2839 49.3366 23.0469C49.4043 22.7591 49.4636 22.4714 49.5144 22.1836C49.5313 21.9297 49.5567 21.4473 49.5905 20.7363C49.6413 20.0423 49.6836 19.2383 49.7175 18.3242C49.7514 17.3932 49.7767 16.4199 49.7937 15.4043C49.8275 14.3887 49.8445 13.4492 49.8445 12.5859C49.8614 11.7057 49.8614 10.9609 49.8445 10.3516C49.8275 9.74219 49.7937 9.38672 49.7429 9.28516C49.6752 9.16667 49.5482 9.03971 49.362 8.9043C49.2097 8.78581 48.9896 8.66732 48.7019 8.54883C48.431 8.43034 48.0671 8.30339 47.6101 8.16797ZM53.653 12.7891C53.5346 13.1784 53.5092 13.5592 53.5769 13.9316C53.6446 14.304 53.8139 14.651 54.0847 14.9727C54.3724 15.2943 54.7702 15.582 55.278 15.8359C55.8028 16.0729 56.4545 16.2507 57.2331 16.3691C58.0118 16.4876 58.6042 16.4707 59.0105 16.3184C59.4167 16.166 59.7129 15.929 59.8991 15.6074C60.1023 15.2689 60.2377 14.8796 60.3054 14.4395C60.3731 13.9824 60.4577 13.5085 60.5593 13.0176C60.6609 12.5436 60.6439 12.0612 60.5085 11.5703C60.3731 11.0625 60.1784 10.6055 59.9245 10.1992C59.6876 9.79297 59.4167 9.46289 59.112 9.20898C58.8243 8.93815 58.5704 8.80273 58.3503 8.80273C57.8256 8.80273 57.3093 8.93815 56.8015 9.20898C56.2937 9.47982 55.8282 9.81836 55.405 10.2246C54.9818 10.6309 54.6094 11.071 54.2878 11.5449C53.9831 12.002 53.7715 12.4167 53.653 12.7891ZM64.247 7.02539C64.5856 7.07617 64.8903 7.11849 65.1611 7.15234C65.415 7.16927 65.6435 7.1862 65.8466 7.20312C66.0667 7.22005 66.2783 7.22852 66.4814 7.22852C66.6676 7.22852 66.9046 7.22005 67.1923 7.20312C67.4293 7.1862 67.734 7.16927 68.1064 7.15234C68.4957 7.11849 68.9528 7.07617 69.4775 7.02539C69.4436 7.0931 69.3759 7.30469 69.2744 7.66016C69.1728 7.9987 69.0713 8.42188 68.9697 8.92969C68.8681 9.42057 68.775 9.9707 68.6904 10.5801C68.6227 11.1725 68.5888 11.765 68.5888 12.3574C68.6058 12.9329 68.6819 13.4831 68.8173 14.0078C68.9528 14.5156 69.1728 14.9303 69.4775 15.252C70.1207 15.9121 70.6878 16.3099 71.1787 16.4453C71.6865 16.5807 72.1266 16.5638 72.499 16.3945C72.8714 16.2253 73.1761 15.9714 73.413 15.6328C73.65 15.2943 73.8193 14.9811 73.9209 14.6934C74.1748 13.9147 74.3271 13.0938 74.3779 12.2305C74.4117 11.4857 74.3525 10.6562 74.2002 9.74219C74.0478 8.82812 73.6839 7.89714 73.1084 6.94922C73.5485 6.98307 73.9293 7.00846 74.2509 7.02539C74.5726 7.04232 74.8518 7.05924 75.0888 7.07617C75.3597 7.0931 75.5966 7.11003 75.7998 7.12695C75.986 7.14388 76.206 7.14388 76.4599 7.12695C76.68 7.12695 76.9423 7.11849 77.247 7.10156C77.5686 7.06771 77.9241 7.03385 78.3134 7C78.3811 8.65885 78.4404 10.14 78.4912 11.4434C78.542 12.7298 78.5758 13.8724 78.5927 14.8711C78.6266 15.8529 78.6435 16.7077 78.6435 17.4355C78.6435 18.1465 78.6435 18.7474 78.6435 19.2383C78.6266 20.4062 78.5758 21.1764 78.4912 21.5488C78.3558 22.0736 78.1103 22.5983 77.7548 23.123C77.4163 23.6478 76.9847 24.1133 76.4599 24.5195C75.9352 24.9427 75.3258 25.2643 74.6318 25.4844C73.9547 25.7214 73.2099 25.806 72.3974 25.7383C71.6018 25.6706 70.9671 25.5605 70.4931 25.4082C70.0361 25.2728 69.6722 25.112 69.4013 24.9258C69.1474 24.7396 68.9612 24.5449 68.8427 24.3418C68.7412 24.1387 68.665 23.9271 68.6142 23.707C68.5634 23.5039 68.5127 23.3092 68.4619 23.123C68.4111 22.9368 68.3095 22.776 68.1572 22.6406C67.971 22.4883 67.7763 22.3359 67.5732 22.1836C67.387 22.0482 67.1839 21.9128 66.9638 21.7773C66.7607 21.6419 66.5576 21.5319 66.3545 21.4473L71.7627 21.1426C71.6103 21.3457 71.5003 21.5319 71.4326 21.7012C71.3649 21.8704 71.3226 22.0143 71.3056 22.1328C71.2887 22.2852 71.2972 22.4121 71.331 22.5137C71.3987 22.7168 71.5172 22.9368 71.6865 23.1738C71.8727 23.4277 72.1097 23.6224 72.3974 23.7578C72.6852 23.9102 73.0237 23.9609 73.413 23.9102C73.8193 23.8594 74.2763 23.6478 74.7841 23.2754C75.2073 22.9538 75.5628 22.4375 75.8505 21.7266C76.0875 21.1172 76.2737 20.2624 76.4091 19.1621C76.5446 18.0618 76.5192 16.6146 76.333 14.8203C76.0283 15.8698 75.6136 16.6738 75.0888 17.2324C74.5641 17.791 74.0393 18.1973 73.5146 18.4512C72.9052 18.7559 72.2705 18.9167 71.6103 18.9336C70.7301 18.8997 69.9768 18.7897 69.3505 18.6035C68.7242 18.4004 68.208 18.1296 67.8017 17.791C67.3955 17.4525 67.0739 17.0547 66.8369 16.5977C66.6168 16.1237 66.456 15.599 66.3545 15.0234C66.2529 14.4479 66.2021 13.8724 66.2021 13.2969C66.2021 12.7044 66.2021 12.1543 66.2021 11.6465C66.219 11.1387 66.2275 10.6816 66.2275 10.2754C66.2275 9.85221 66.1852 9.51367 66.1005 9.25977C65.999 9.00586 65.8636 8.75195 65.6943 8.49805C65.5589 8.27799 65.3727 8.04102 65.1357 7.78711C64.8818 7.51628 64.5856 7.26237 64.247 7.02539ZM98.7397 1.66797C99.823 1.65104 100.712 1.8457 101.406 2.25195C102.117 2.6582 102.692 3.14062 103.132 3.69922C103.572 4.25781 103.911 4.82487 104.148 5.40039C104.385 5.95898 104.571 6.39909 104.706 6.7207C104.74 6.80534 104.808 6.91536 104.91 7.05078C104.994 7.16927 105.113 7.31315 105.265 7.48242C105.434 7.63477 105.646 7.8125 105.9 8.01562C105.375 8.03255 104.91 8.04948 104.503 8.06641C104.097 8.06641 103.75 8.07487 103.462 8.0918C103.141 8.10872 102.853 8.12565 102.599 8.14258C102.345 8.15951 102.032 8.1849 101.66 8.21875C101.321 8.2526 100.906 8.28646 100.415 8.32031C99.9246 8.35417 99.3237 8.40495 98.6127 8.47266C99.0359 7.96484 99.366 7.51628 99.603 7.12695C99.8569 6.7207 100.043 6.36523 100.162 6.06055C100.297 5.73893 100.373 5.45964 100.39 5.22266C100.424 4.98568 100.415 4.78255 100.365 4.61328C100.263 4.22396 100.001 3.94466 99.5776 3.77539C98.3588 3.43685 97.2924 3.70768 96.3784 4.58789C95.4812 5.45117 94.838 6.87305 94.4487 8.85352C94.2625 9.83529 94.0847 10.8594 93.9155 11.9258C93.7631 12.9753 93.7039 13.9401 93.7377 14.8203C93.7716 15.6836 93.9409 16.3861 94.2455 16.9277C94.5502 17.4694 95.075 17.7233 95.8198 17.6895C96.5476 17.6556 97.1655 17.5371 97.6733 17.334C98.1811 17.1139 98.5873 16.86 98.892 16.5723C99.1967 16.2676 99.4083 15.946 99.5268 15.6074C99.6622 15.252 99.713 14.9219 99.6791 14.6172C99.6114 14.3802 99.4337 14.1263 99.1459 13.8555C98.892 13.6185 98.5112 13.3561 98.0034 13.0684C97.4955 12.7637 96.7677 12.4505 95.8198 12.1289C96.7169 12.0781 97.4532 12.0443 98.0287 12.0273C98.6212 11.9935 99.0867 11.9596 99.4252 11.9258C99.8315 11.8919 100.145 11.8665 100.365 11.8496C100.568 11.8327 100.864 11.8158 101.253 11.7988C101.592 11.7819 102.024 11.7734 102.548 11.7734C103.09 11.7734 103.767 11.765 104.58 11.748C104.275 12.0527 104.038 12.332 103.869 12.5859C103.784 12.7214 103.708 12.8398 103.64 12.9414C103.572 13.1107 103.547 13.4577 103.564 13.9824C103.564 14.4225 103.598 15.0742 103.665 15.9375C103.733 16.7839 103.86 17.9434 104.046 19.416L100.669 19.873L100.822 16.4453C100.432 17.3763 99.9415 18.0703 99.3491 18.5273C98.7735 18.9844 98.2234 19.306 97.6987 19.4922C97.0724 19.7122 96.4207 19.8138 95.7436 19.7969C94.8634 19.7122 93.9832 19.5091 93.103 19.1875C92.2228 18.8659 91.4441 18.375 90.767 17.7148C90.0899 17.0378 89.5652 16.166 89.1928 15.0996C88.8373 14.0332 88.7273 12.7129 88.8627 11.1387C89.0151 9.56445 89.3875 8.19336 89.9799 7.02539C90.5893 5.84049 91.3425 4.85872 92.2397 4.08008C93.1368 3.30143 94.144 2.71745 95.2612 2.32812C96.3953 1.92188 97.5548 1.70182 98.7397 1.66797ZM106.033 0.753906C106.422 0.821615 106.778 0.872396 107.099 0.90625C107.421 0.923177 107.692 0.940104 107.912 0.957031C108.166 0.973958 108.386 0.982422 108.572 0.982422C108.826 0.965495 109.122 0.940104 109.461 0.90625C109.748 0.872396 110.095 0.830078 110.502 0.779297C110.925 0.728516 111.407 0.660807 111.949 0.576172C111.695 0.711589 111.483 0.847005 111.314 0.982422C111.145 1.10091 111.009 1.22786 110.908 1.36328C110.789 1.51562 110.696 1.65951 110.629 1.79492C110.544 2.01497 110.451 2.47201 110.349 3.16602C110.248 3.75846 110.121 4.63867 109.968 5.80664C109.833 6.97461 109.655 8.55729 109.435 10.5547C110.045 9.94531 110.62 9.48828 111.162 9.18359C111.72 8.86198 112.211 8.63346 112.634 8.49805C113.125 8.3457 113.582 8.26953 114.006 8.26953C114.53 8.32031 115.063 8.48958 115.605 8.77734C116.164 9.04818 116.68 9.36979 117.154 9.74219C117.645 10.1146 118.068 10.5124 118.424 10.9355C118.796 11.3587 119.058 11.7311 119.211 12.0527C119.312 12.2728 119.363 12.5605 119.363 12.916C119.363 13.2546 119.329 13.627 119.261 14.0332C119.194 14.4395 119.101 14.8542 118.982 15.2773C118.864 15.7005 118.745 16.0983 118.627 16.4707C118.525 16.8431 118.432 17.1732 118.347 17.4609C118.263 17.7318 118.212 17.9264 118.195 18.0449C118.161 18.2988 118.178 18.5443 118.246 18.7812C118.297 18.9844 118.398 19.2044 118.55 19.4414C118.703 19.6615 118.931 19.8477 119.236 20C118.999 19.9661 118.745 19.9408 118.474 19.9238C118.22 19.89 117.975 19.8646 117.738 19.8477C117.467 19.8307 117.196 19.8223 116.925 19.8223H116.011C115.724 19.8223 115.394 19.8307 115.021 19.8477C114.649 19.8477 114.243 19.8561 113.802 19.873C114.039 19.7884 114.243 19.6784 114.412 19.543C114.581 19.3906 114.725 19.2467 114.843 19.1113C114.979 18.959 115.097 18.7982 115.199 18.6289C115.267 18.4935 115.351 18.2396 115.453 17.8672C115.554 17.4779 115.647 17.0378 115.732 16.5469C115.817 16.0391 115.876 15.5059 115.91 14.9473C115.961 14.3887 115.969 13.8555 115.935 13.3477C115.918 12.8229 115.842 12.3574 115.707 11.9512C115.588 11.5449 115.402 11.2487 115.148 11.0625C114.386 10.487 113.692 10.2077 113.066 10.2246C112.457 10.2246 111.873 10.4701 111.314 10.9609C111.111 11.1471 110.916 11.3333 110.73 11.5195C110.561 11.6888 110.375 11.8919 110.172 12.1289C109.968 12.349 109.782 12.5775 109.613 12.8145C109.613 13.0684 109.621 13.3477 109.638 13.6523C109.655 13.957 109.672 14.2533 109.689 14.541C109.706 14.8626 109.731 15.1842 109.765 15.5059C109.799 15.9967 109.85 16.4792 109.918 16.9531C109.968 17.3594 110.036 17.8079 110.121 18.2988C110.205 18.7728 110.315 19.2044 110.451 19.5938C110.231 19.5599 110.002 19.5514 109.765 19.5684C109.528 19.5684 109.3 19.5684 109.08 19.5684C108.826 19.5853 108.58 19.5938 108.343 19.5938C108.123 19.6107 107.895 19.6361 107.658 19.6699C107.455 19.7038 107.235 19.7376 106.998 19.7715C106.761 19.7884 106.532 19.8223 106.312 19.873C106.515 19.4837 106.685 19.1029 106.82 18.7305C106.955 18.3411 107.065 18.0026 107.15 17.7148C107.252 17.3763 107.336 17.0462 107.404 16.7246C107.455 16.4707 107.489 15.9883 107.506 15.2773C107.539 14.5495 107.565 13.7201 107.582 12.7891C107.599 11.8411 107.607 10.8424 107.607 9.79297C107.607 8.74349 107.599 7.74479 107.582 6.79688C107.565 5.84896 107.531 5.01953 107.48 4.30859C107.446 3.59766 107.404 3.10677 107.353 2.83594C107.285 2.5651 107.192 2.29427 107.074 2.02344C106.972 1.78646 106.837 1.55794 106.668 1.33789C106.498 1.10091 106.287 0.90625 106.033 0.753906ZM127.697 8.625C128.137 8.625 128.594 8.70964 129.068 8.87891C129.542 9.03125 129.999 9.23438 130.439 9.48828C130.879 9.72526 131.277 9.98763 131.633 10.2754C132.005 10.5462 132.31 10.8086 132.547 11.0625C132.97 11.5195 133.258 12.1374 133.41 12.916C133.579 13.6777 133.613 14.4648 133.512 15.2773C133.41 16.0729 133.173 16.8262 132.801 17.5371C132.428 18.248 131.912 18.7728 131.252 19.1113C130.778 19.3483 130.312 19.5345 129.855 19.6699C129.398 19.8053 128.958 19.9069 128.535 19.9746C128.112 20.0423 127.714 20.0762 127.342 20.0762C126.969 20.0762 126.648 20.0677 126.377 20.0508C125.869 20.0169 125.336 19.8392 124.777 19.5176C124.236 19.196 123.719 18.7982 123.228 18.3242C122.754 17.8503 122.348 17.334 122.01 16.7754C121.671 16.1999 121.468 15.6582 121.4 15.1504C121.299 14.4564 121.282 13.7285 121.35 12.9668C121.417 12.2051 121.663 11.5026 122.086 10.8594C122.526 10.2161 123.186 9.68294 124.066 9.25977C124.963 8.83659 126.174 8.625 127.697 8.625ZM126.859 18.4766C127.045 18.5104 127.299 18.4681 127.621 18.3496C127.943 18.2142 128.256 18.0026 128.56 17.7148C128.882 17.4271 129.161 17.0632 129.398 16.623C129.652 16.166 129.805 15.6159 129.855 14.9727C129.906 14.3464 129.906 13.7708 129.855 13.2461C129.822 12.7214 129.745 12.2643 129.627 11.875C129.508 11.4688 129.373 11.1387 129.221 10.8848C129.068 10.6309 128.907 10.4531 128.738 10.3516C128.45 10.1992 128.103 10.0807 127.697 9.99609C127.291 9.89453 126.944 9.91146 126.656 10.0469C126.521 10.1146 126.351 10.2585 126.148 10.4785C125.945 10.6986 125.742 10.9779 125.539 11.3164C125.336 11.638 125.15 12.0104 124.98 12.4336C124.828 12.8568 124.718 13.2969 124.65 13.7539C124.583 14.2109 124.566 14.7018 124.6 15.2266C124.65 15.7513 124.76 16.2507 124.93 16.7246C125.099 17.1816 125.336 17.5794 125.641 17.918C125.962 18.2396 126.368 18.4258 126.859 18.4766ZM146.188 5.50195C146.035 5.87435 145.9 6.21289 145.781 6.51758C145.68 6.82227 145.587 7.0931 145.502 7.33008C145.417 7.60091 145.341 7.83789 145.274 8.04102C145.206 8.27799 145.13 8.54883 145.045 8.85352C144.96 9.12435 144.85 9.46289 144.715 9.86914C144.597 10.2585 144.453 10.724 144.283 11.2656C144.148 10.4531 143.902 9.8099 143.547 9.33594C143.192 8.84505 142.828 8.46419 142.455 8.19336C142.015 7.88867 141.541 7.66862 141.033 7.5332C140.119 7.38086 139.459 7.39779 139.053 7.58398C138.647 7.77018 138.376 8.00716 138.24 8.29492C138.173 8.41341 138.097 8.56576 138.012 8.75195C137.944 8.92122 137.885 9.09896 137.834 9.28516C137.8 9.47135 137.792 9.65755 137.809 9.84375C137.826 10.0299 137.902 10.1823 138.037 10.3008C138.122 10.3854 138.342 10.5039 138.697 10.6562C139.053 10.7917 139.476 10.9525 139.967 11.1387C140.475 11.3079 141.008 11.4941 141.567 11.6973C142.142 11.9004 142.684 12.1035 143.192 12.3066C143.699 12.5098 144.139 12.7129 144.512 12.916C144.884 13.1191 145.13 13.3053 145.248 13.4746C145.35 13.6439 145.46 13.8724 145.578 14.1602C145.714 14.431 145.807 14.7357 145.858 15.0742C145.925 15.3958 145.942 15.7344 145.908 16.0898C145.891 16.4284 145.798 16.7669 145.629 17.1055C145.46 17.444 145.189 17.7572 144.817 18.0449C144.461 18.3327 143.979 18.5697 143.369 18.7559C142.658 18.9759 141.973 19.0352 141.313 18.9336C140.652 18.832 140.043 18.6797 139.485 18.4766C138.943 18.2734 138.469 18.0788 138.063 17.8926C137.656 17.6895 137.369 17.6048 137.199 17.6387C137.013 17.6725 136.802 17.7656 136.565 17.918C136.328 18.0703 136.099 18.2311 135.879 18.4004C135.676 18.5527 135.498 18.6966 135.346 18.832C135.194 18.9505 135.117 18.9928 135.117 18.959C135.117 18.9251 135.143 18.8236 135.194 18.6543C135.261 18.485 135.329 18.2819 135.397 18.0449C135.481 17.791 135.557 17.5202 135.625 17.2324C135.71 16.9277 135.769 16.64 135.803 16.3691C135.837 16.1491 135.879 15.8783 135.93 15.5566C135.964 15.2689 136.006 14.9219 136.057 14.5156C136.125 14.0924 136.201 13.5846 136.285 12.9922C136.37 13.4323 136.488 13.8132 136.641 14.1348C136.81 14.4564 136.971 14.7357 137.123 14.9727C137.309 15.2435 137.487 15.472 137.656 15.6582C137.91 15.8952 138.207 16.1152 138.545 16.3184C138.901 16.5215 139.256 16.6992 139.611 16.8516C139.967 16.987 140.305 17.0716 140.627 17.1055C140.949 17.1393 141.22 17.1055 141.44 17.0039C141.66 16.9023 141.846 16.7161 141.998 16.4453C142.167 16.1745 142.286 15.8783 142.354 15.5566C142.421 15.235 142.447 14.9303 142.43 14.6426C142.413 14.3379 142.337 14.0924 142.201 13.9062C142.1 13.7878 141.863 13.6354 141.49 13.4492C141.135 13.263 140.703 13.0599 140.195 12.8398C139.705 12.6198 139.18 12.3913 138.621 12.1543C138.08 11.9173 137.563 11.6803 137.072 11.4434C136.598 11.1895 136.201 10.9525 135.879 10.7324C135.574 10.4954 135.405 10.2839 135.371 10.0977C135.337 9.82682 135.312 9.5306 135.295 9.20898C135.278 8.87044 135.295 8.54036 135.346 8.21875C135.414 7.88021 135.532 7.55859 135.701 7.25391C135.888 6.94922 136.158 6.69531 136.514 6.49219C136.751 6.35677 137.064 6.25521 137.453 6.1875C137.843 6.11979 138.274 6.08594 138.748 6.08594C139.222 6.06901 139.713 6.08594 140.221 6.13672C140.729 6.17057 141.211 6.22135 141.668 6.28906C142.142 6.33984 142.565 6.40755 142.938 6.49219C143.327 6.57682 143.623 6.65299 143.826 6.7207C144.063 6.80534 144.317 6.8138 144.588 6.74609C144.825 6.69531 145.079 6.58529 145.35 6.41602C145.621 6.24674 145.9 5.94206 146.188 5.50195ZM147.057 4.00391C147.565 4.05469 147.988 4.09701 148.327 4.13086C148.682 4.16471 148.97 4.1901 149.19 4.20703C149.444 4.22396 149.647 4.23242 149.799 4.23242C149.952 4.24935 150.155 4.24935 150.409 4.23242C150.629 4.21549 150.916 4.19857 151.272 4.18164C151.627 4.14779 152.076 4.09701 152.618 4.0293C152.499 4.19857 152.406 4.35091 152.338 4.48633C152.271 4.60482 152.211 4.71484 152.161 4.81641L152.008 5.12109C151.974 5.22266 151.941 5.32422 151.907 5.42578C151.873 5.51042 151.839 5.61198 151.805 5.73047C151.788 5.84896 151.771 5.97591 151.754 6.11133H155.664L155.309 8.16797L151.729 7.96484C151.644 8.82812 151.585 9.49674 151.551 9.9707C151.517 10.4447 151.483 10.7917 151.45 11.0117L151.399 11.4688C151.348 12.112 151.297 12.8145 151.246 13.5762C151.196 14.321 151.179 15.015 151.196 15.6582C151.213 16.3014 151.272 16.8431 151.373 17.2832C151.475 17.7064 151.653 17.918 151.907 17.918C152.161 17.918 152.398 17.8503 152.618 17.7148C152.838 17.5794 153.024 17.4186 153.176 17.2324C153.345 17.0462 153.472 16.86 153.557 16.6738C153.642 16.4707 153.684 16.3184 153.684 16.2168C153.684 16.1152 153.659 15.9967 153.608 15.8613C153.523 15.6074 153.371 15.2858 153.151 14.8965C153.642 15.015 154.073 15.1335 154.446 15.252C154.632 15.3197 154.801 15.3874 154.954 15.4551C155.123 15.5228 155.317 15.599 155.538 15.6836C155.724 15.7682 155.961 15.8698 156.248 15.9883C156.536 16.1068 156.875 16.2507 157.264 16.4199C156.892 16.4876 156.621 16.5977 156.452 16.75C156.35 16.8177 156.274 16.8939 156.223 16.9785C156.105 17.1647 155.969 17.4186 155.817 17.7402C155.664 18.0449 155.436 18.3496 155.131 18.6543C154.827 18.959 154.412 19.2298 153.887 19.4668C153.379 19.7038 152.694 19.8392 151.83 19.873C150.933 19.9069 150.248 19.7546 149.774 19.416C149.317 19.0775 148.978 18.6882 148.758 18.248C148.555 17.791 148.437 17.3424 148.403 16.9023C148.369 16.4622 148.343 16.166 148.327 16.0137C148.31 15.8613 148.31 15.4805 148.327 14.8711C148.343 14.2617 148.369 13.5931 148.403 12.8652C148.437 12.1204 148.47 11.4095 148.504 10.7324C148.538 10.0384 148.555 9.5306 148.555 9.20898C148.555 9.03971 148.564 8.86198 148.58 8.67578C148.58 8.52344 148.58 8.36263 148.58 8.19336C148.597 8.00716 148.606 7.82943 148.606 7.66016L144.924 7.63477L144.772 6.1875L148.479 6.28906C148.445 6.10286 148.403 5.93359 148.352 5.78125C148.318 5.61198 148.284 5.47656 148.25 5.375C148.2 5.25651 148.149 5.15495 148.098 5.07031C148.03 4.98568 147.954 4.89258 147.87 4.79102C147.785 4.70638 147.675 4.59635 147.539 4.46094C147.404 4.32552 147.243 4.17318 147.057 4.00391Z" fill="#8AC926"/>
</svg>
