<svg width="122" height="69" viewBox="0 0 122 69" fill="none" xmlns="http://www.w3.org/2000/svg">
<path d="M8.39938 0.84375C9.44104 0.90625 10.316 0.958333 11.0244 1C11.7535 1.02083 12.3577 1.04167 12.8369 1.0625C13.3785 1.08333 13.8369 1.08333 14.2119 1.0625C14.5869 1.04167 15.0973 0.989583 15.7431 0.90625C16.2848 0.84375 17.0035 0.75 17.8994 0.625C18.816 0.479167 19.9515 0.291667 21.3056 0.0625C20.8265 0.541667 20.4515 0.979167 20.1806 1.375C19.9306 1.75 19.7327 2.07292 19.5869 2.34375C19.4202 2.67708 19.3056 2.95833 19.2431 3.1875C19.2015 3.39583 19.2431 3.91667 19.3681 4.75C19.4931 5.58333 19.6702 6.57292 19.8994 7.71875C20.1285 8.84375 20.3785 10.0521 20.6494 11.3438C20.9202 12.6146 21.191 13.8125 21.4619 14.9375C21.7327 16.0417 21.9723 16.9896 22.1806 17.7812C22.4098 18.5521 22.5765 19.0104 22.6806 19.1562C22.9931 19.5938 23.191 19.8854 23.2744 20.0312C23.3577 20.1562 23.5035 20.2708 23.7119 20.375C23.7952 20.4167 23.9306 20.4792 24.1181 20.5625C24.2848 20.6458 24.5035 20.75 24.7744 20.875C25.066 21 25.4306 21.1458 25.8681 21.3125C25.0556 21.3542 24.3577 21.3854 23.7744 21.4062C23.191 21.4062 22.7119 21.4167 22.3369 21.4375C21.8994 21.4583 21.5244 21.4792 21.2119 21.5C20.8994 21.5 20.5244 21.5208 20.0869 21.5625C19.7119 21.6042 19.2223 21.6458 18.6181 21.6875C18.0348 21.7292 17.3473 21.7708 16.5556 21.8125C16.9723 21.5208 17.3056 21.2604 17.5556 21.0312C17.8265 20.7812 18.0348 20.5729 18.1806 20.4062C18.3473 20.1979 18.4619 20.0104 18.5244 19.8438C18.566 19.6562 18.5973 19.375 18.6181 19C18.639 18.6667 18.639 18.2292 18.6181 17.6875C18.5973 17.125 18.5452 16.3958 18.4619 15.5L10.2431 16.3438C10.0348 16.6979 9.87854 17.0104 9.77438 17.2812C9.67021 17.5312 9.59729 17.75 9.55563 17.9375C9.49313 18.1667 9.47229 18.3542 9.49313 18.5C9.53479 18.6667 9.60771 18.8646 9.71188 19.0938C9.81604 19.3021 9.96188 19.5521 10.1494 19.8438C10.3577 20.1146 10.6598 20.4375 11.0556 20.8125C10.5348 20.7917 10.0035 20.7812 9.46188 20.7812C8.92021 20.7812 8.42021 20.7917 7.96188 20.8125C7.42021 20.8333 6.88896 20.8542 6.36813 20.875C5.84729 20.8958 5.25354 20.9271 4.58688 20.9688C4.02438 21.0104 3.36813 21.0625 2.61813 21.125C1.84729 21.1667 1.02438 21.2292 0.149376 21.3125C0.691043 21.0625 1.14938 20.8125 1.52438 20.5625C1.89938 20.2917 2.21188 20.0417 2.46188 19.8125C2.75354 19.5625 3.00354 19.3229 3.21188 19.0938C3.35771 18.8854 3.64938 18.4062 4.08688 17.6562C4.52438 16.8854 5.01396 15.9792 5.55563 14.9375C6.11813 13.8958 6.70146 12.7812 7.30563 11.5938C7.93063 10.4062 8.49313 9.29167 8.99313 8.25C9.49313 7.1875 9.89938 6.27083 10.2119 5.5C10.5244 4.72917 10.6806 4.22917 10.6806 4C10.639 3.72917 10.5348 3.42708 10.3681 3.09375C10.2223 2.80208 9.99313 2.46875 9.68063 2.09375C9.38896 1.71875 8.96188 1.30208 8.39938 0.84375ZM18.0869 13.1875C17.9619 12.4583 17.8473 11.8333 17.7431 11.3125C17.639 10.7708 17.5556 10.3229 17.4931 9.96875C17.4098 9.55208 17.3473 9.1875 17.3056 8.875C17.2431 8.58333 17.1702 8.20833 17.0869 7.75C17.0035 7.35417 16.8994 6.86458 16.7744 6.28125C16.6702 5.67708 16.5348 4.95833 16.3681 4.125C15.1806 6.5 14.2535 8.34375 13.5869 9.65625C12.941 10.9479 12.4723 11.8958 12.1806 12.5C11.8265 13.2083 11.6285 13.625 11.5869 13.75L18.0869 13.1875ZM24.7194 7.03125C25.1152 7.05208 25.4694 7.0625 25.7819 7.0625C26.1152 7.04167 26.3965 7.02083 26.6256 7C26.8965 6.97917 27.136 6.95833 27.3444 6.9375C27.6569 6.89583 27.9798 6.84375 28.3131 6.78125C28.6048 6.73958 28.9069 6.6875 29.2194 6.625C29.5527 6.54167 29.8756 6.44792 30.1881 6.34375C30.0631 6.65625 29.959 6.92708 29.8756 7.15625C29.7923 7.38542 29.7298 7.58333 29.6881 7.75C29.6256 7.9375 29.5944 8.09375 29.5944 8.21875C29.5735 8.36458 29.5631 8.54167 29.5631 8.75C29.5423 9.10417 29.5423 9.67708 29.5631 10.4688C30.6465 9.53125 31.5527 8.80208 32.2819 8.28125C33.0319 7.76042 33.6256 7.35417 34.0631 7.0625C34.584 6.72917 34.9902 6.51042 35.2819 6.40625C36.0527 6.28125 36.7298 6.45833 37.3131 6.9375C37.5631 7.14583 37.8027 7.42708 38.0319 7.78125C38.261 8.11458 38.459 8.5625 38.6256 9.125C38.7923 9.6875 38.9173 10.3646 39.0006 11.1562C39.084 11.9271 39.0944 12.8542 39.0319 13.9375C38.5944 13.9792 38.1985 14.0208 37.8444 14.0625C37.511 14.1042 37.2298 14.1354 37.0006 14.1562C36.7298 14.1979 36.4798 14.2188 36.2506 14.2188L35.4069 14.3125C35.1152 14.3542 34.7506 14.3958 34.3131 14.4375C33.8965 14.4583 33.386 14.5 32.7819 14.5625C33.6569 13.8542 34.2194 13.2396 34.4694 12.7188C34.7402 12.1771 34.8548 11.7292 34.8131 11.375C34.7715 10.9792 34.584 10.6354 34.2506 10.3438C33.8548 10.1146 33.4277 10.0312 32.9694 10.0938C32.5735 10.1354 32.1152 10.3125 31.5944 10.625C31.0735 10.9375 30.5215 11.5208 29.9381 12.375C29.9798 13.7083 30.0215 14.8125 30.0631 15.6875C30.1256 16.5625 30.1777 17.2708 30.2194 17.8125C30.2819 18.4375 30.334 18.9271 30.3756 19.2812C30.4381 19.5938 30.5631 19.9271 30.7506 20.2812C30.8965 20.5729 31.1048 20.8958 31.3756 21.25C31.6465 21.6042 32.0006 21.9583 32.4381 22.3125C31.5215 22.2708 30.7715 22.2708 30.1881 22.3125C29.834 22.3333 29.5215 22.3542 29.2506 22.375C28.959 22.4167 28.6465 22.4583 28.3131 22.5C28.0215 22.5417 27.6777 22.5833 27.2819 22.625C26.9069 22.6875 26.4902 22.75 26.0319 22.8125C26.1985 22.5833 26.334 22.3125 26.4381 22C26.5423 21.7083 26.6256 21.4271 26.6881 21.1562C26.7715 20.8438 26.834 20.5208 26.8756 20.1875C26.8965 19.8958 26.9069 19.4583 26.9069 18.875C26.9277 18.2917 26.9173 17.6354 26.8756 16.9062C26.8548 16.1562 26.8235 15.3854 26.7819 14.5938C26.7402 13.7812 26.6881 13.0208 26.6256 12.3125C26.5631 11.6042 26.4902 10.9896 26.4069 10.4688C26.3444 9.92708 26.2715 9.55208 26.1881 9.34375C26.084 9.09375 25.959 8.84375 25.8131 8.59375C25.6881 8.36458 25.5319 8.125 25.3444 7.875C25.1569 7.60417 24.9485 7.32292 24.7194 7.03125ZM48.7894 16.9688C49.3727 16.9688 49.9144 16.9062 50.4144 16.7812C50.831 16.6771 51.2269 16.5104 51.6019 16.2812C51.9977 16.0312 52.2581 15.6667 52.3831 15.1875C52.7998 15.2708 53.154 15.3438 53.4456 15.4062C53.7373 15.4479 53.9873 15.4896 54.1956 15.5312C54.4248 15.5938 54.6227 15.6354 54.7894 15.6562C54.956 15.6979 55.154 15.7396 55.3831 15.7812C55.5915 15.8229 55.8415 15.875 56.1331 15.9375C56.4456 15.9792 56.8102 16.0417 57.2269 16.125C56.9144 16.0833 56.5915 16.1146 56.2581 16.2188C55.9456 16.3229 55.6435 16.4375 55.3519 16.5625C55.0185 16.7083 54.706 16.8854 54.4144 17.0938C54.2269 17.2188 54.0081 17.4062 53.7581 17.6562C53.529 17.9062 53.1956 18.1458 52.7581 18.375C52.3206 18.6042 51.7373 18.8021 51.0081 18.9688C50.2998 19.1146 49.3831 19.1667 48.2581 19.125C46.904 19.0833 45.7685 18.8438 44.8519 18.4062C43.9352 17.9479 43.1956 17.3958 42.6331 16.75C42.0706 16.0833 41.6644 15.3646 41.4144 14.5938C41.1644 13.8229 41.029 13.1042 41.0081 12.4375C40.9873 11.7708 41.1852 11.0729 41.6019 10.3438C42.0185 9.61458 42.6019 8.94792 43.3519 8.34375C44.1227 7.73958 45.0498 7.25 46.1331 6.875C47.2165 6.47917 48.404 6.28125 49.6956 6.28125C50.4456 6.28125 51.1331 6.375 51.7581 6.5625C52.404 6.72917 52.9873 6.95833 53.5081 7.25C54.0498 7.54167 54.5185 7.875 54.9144 8.25C55.3102 8.60417 55.6435 8.96875 55.9144 9.34375C56.1852 9.73958 56.4144 10.1562 56.6019 10.5938C56.7685 10.9688 56.904 11.3958 57.0081 11.875C57.1123 12.3542 57.1435 12.8438 57.1019 13.3438C55.5185 13.3854 54.2373 13.4167 53.2581 13.4375C52.2998 13.4583 51.5498 13.4688 51.0081 13.4688H49.6019H48.5394C48.1644 13.4688 47.6748 13.4792 47.0706 13.5C46.4665 13.5208 45.7269 13.5521 44.8519 13.5938C44.956 14.4271 45.2165 15.0729 45.6331 15.5312C46.0706 15.9688 46.529 16.3021 47.0081 16.5312C47.5498 16.7812 48.1435 16.9271 48.7894 16.9688ZM45.9769 11.3438C46.6435 11.3854 47.1956 11.4167 47.6331 11.4375C48.0915 11.4583 48.4665 11.4792 48.7581 11.5C49.0706 11.5208 49.3206 11.5312 49.5081 11.5312H50.2894C50.8102 11.5312 51.779 11.5 53.1956 11.4375C53.1331 10.5208 52.9352 9.82292 52.6019 9.34375C52.2894 8.86458 51.956 8.51042 51.6019 8.28125C51.1852 8.03125 50.7269 7.88542 50.2269 7.84375C48.8727 7.86458 47.8623 8.14583 47.1956 8.6875C46.5498 9.22917 46.1435 10.1146 45.9769 11.3438ZM67.6481 6.03125C68.0648 6.09375 68.4398 6.14583 68.7731 6.1875C69.0856 6.20833 69.3669 6.22917 69.6169 6.25C69.8877 6.27083 70.1481 6.28125 70.3981 6.28125C70.6273 6.28125 70.919 6.27083 71.2731 6.25C71.5648 6.22917 71.9398 6.20833 72.3981 6.1875C72.8773 6.14583 73.4398 6.09375 74.0856 6.03125C74.044 6.11458 73.9606 6.375 73.8356 6.8125C73.7106 7.22917 73.5856 7.75 73.4606 8.375C73.3356 8.97917 73.221 9.65625 73.1169 10.4062C73.0335 11.1354 72.9919 11.8646 72.9919 12.5938C73.0127 13.3021 73.1065 13.9792 73.2731 14.625C73.4398 15.25 73.7106 15.7604 74.0856 16.1562C74.8773 16.9688 75.5752 17.4583 76.1794 17.625C76.8044 17.7917 77.346 17.7708 77.8044 17.5625C78.2627 17.3542 78.6377 17.0417 78.9294 16.625C79.221 16.2083 79.4294 15.8229 79.5544 15.4688C79.8669 14.5104 80.0544 13.5 80.1169 12.4375C80.1585 11.5208 80.0856 10.5 79.8981 9.375C79.7106 8.25 79.2627 7.10417 78.5544 5.9375C79.096 5.97917 79.5648 6.01042 79.9606 6.03125C80.3565 6.05208 80.7002 6.07292 80.9919 6.09375C81.3252 6.11458 81.6169 6.13542 81.8669 6.15625C82.096 6.17708 82.3669 6.17708 82.6794 6.15625C82.9502 6.15625 83.2731 6.14583 83.6481 6.125C84.044 6.08333 84.4815 6.04167 84.9606 6C85.044 8.04167 85.1169 9.86458 85.1794 11.4688C85.2419 13.0521 85.2835 14.4583 85.3044 15.6875C85.346 16.8958 85.3669 17.9479 85.3669 18.8438C85.3669 19.7188 85.3669 20.4583 85.3669 21.0625C85.346 22.5 85.2835 23.4479 85.1794 23.9062C85.0127 24.5521 84.7106 25.1979 84.2731 25.8438C83.8565 26.4896 83.3252 27.0625 82.6794 27.5625C82.0335 28.0833 81.2835 28.4792 80.4294 28.75C79.596 29.0417 78.6794 29.1458 77.6794 29.0625C76.7002 28.9792 75.919 28.8438 75.3356 28.6562C74.7731 28.4896 74.3252 28.2917 73.9919 28.0625C73.6794 27.8333 73.4502 27.5938 73.3044 27.3438C73.1794 27.0938 73.0856 26.8333 73.0231 26.5625C72.9606 26.3125 72.8981 26.0729 72.8356 25.8438C72.7731 25.6146 72.6481 25.4167 72.4606 25.25C72.2315 25.0625 71.9919 24.875 71.7419 24.6875C71.5127 24.5208 71.2627 24.3542 70.9919 24.1875C70.7419 24.0208 70.4919 23.8854 70.2419 23.7812L76.8981 23.4062C76.7106 23.6562 76.5752 23.8854 76.4919 24.0938C76.4085 24.3021 76.3565 24.4792 76.3356 24.625C76.3148 24.8125 76.3252 24.9688 76.3669 25.0938C76.4502 25.3438 76.596 25.6146 76.8044 25.9062C77.0335 26.2188 77.3252 26.4583 77.6794 26.625C78.0335 26.8125 78.4502 26.875 78.9294 26.8125C79.4294 26.75 79.9919 26.4896 80.6169 26.0312C81.1377 25.6354 81.5752 25 81.9294 24.125C82.221 23.375 82.4502 22.3229 82.6169 20.9688C82.7835 19.6146 82.7523 17.8333 82.5231 15.625C82.1481 16.9167 81.6377 17.9062 80.9919 18.5938C80.346 19.2812 79.7002 19.7812 79.0544 20.0938C78.3044 20.4688 77.5231 20.6667 76.7106 20.6875C75.6273 20.6458 74.7002 20.5104 73.9294 20.2812C73.1585 20.0312 72.5231 19.6979 72.0231 19.2812C71.5231 18.8646 71.1273 18.375 70.8356 17.8125C70.5648 17.2292 70.3669 16.5833 70.2419 15.875C70.1169 15.1667 70.0544 14.4583 70.0544 13.75C70.0544 13.0208 70.0544 12.3438 70.0544 11.7188C70.0752 11.0938 70.0856 10.5312 70.0856 10.0312C70.0856 9.51042 70.0335 9.09375 69.9294 8.78125C69.8044 8.46875 69.6377 8.15625 69.4294 7.84375C69.2627 7.57292 69.0335 7.28125 68.7419 6.96875C68.4294 6.63542 68.0648 6.32292 67.6481 6.03125ZM96.1556 8C96.6973 8 97.2598 8.10417 97.8431 8.3125C98.4265 8.5 98.989 8.75 99.5306 9.0625C100.072 9.35417 100.562 9.67708 100.999 10.0312C101.458 10.3646 101.833 10.6875 102.124 11C102.645 11.5625 102.999 12.3229 103.187 13.2812C103.395 14.2188 103.437 15.1875 103.312 16.1875C103.187 17.1667 102.895 18.0938 102.437 18.9688C101.979 19.8438 101.343 20.4896 100.531 20.9062C99.9473 21.1979 99.3744 21.4271 98.8119 21.5938C98.2494 21.7604 97.7077 21.8854 97.1869 21.9688C96.666 22.0521 96.1765 22.0938 95.7181 22.0938C95.2598 22.0938 94.864 22.0833 94.5306 22.0625C93.9056 22.0208 93.2494 21.8021 92.5619 21.4062C91.8952 21.0104 91.2598 20.5208 90.6556 19.9375C90.0723 19.3542 89.5723 18.7188 89.1556 18.0312C88.739 17.3229 88.489 16.6562 88.4056 16.0312C88.2806 15.1771 88.2598 14.2812 88.3431 13.3438C88.4265 12.4062 88.7285 11.5417 89.2494 10.75C89.791 9.95833 90.6035 9.30208 91.6869 8.78125C92.791 8.26042 94.2806 8 96.1556 8ZM95.1244 20.125C95.3535 20.1667 95.666 20.1146 96.0619 19.9688C96.4577 19.8021 96.8431 19.5417 97.2181 19.1875C97.614 18.8333 97.9577 18.3854 98.2494 17.8438C98.5619 17.2812 98.7494 16.6042 98.8119 15.8125C98.8744 15.0417 98.8744 14.3333 98.8119 13.6875C98.7702 13.0417 98.6765 12.4792 98.5306 12C98.3848 11.5 98.2181 11.0938 98.0306 10.7812C97.8431 10.4688 97.6452 10.25 97.4369 10.125C97.0827 9.9375 96.6556 9.79167 96.1556 9.6875C95.6556 9.5625 95.2285 9.58333 94.8744 9.75C94.7077 9.83333 94.4994 10.0104 94.2494 10.2812C93.9994 10.5521 93.7494 10.8958 93.4994 11.3125C93.2494 11.7083 93.0202 12.1667 92.8119 12.6875C92.6244 13.2083 92.489 13.75 92.4056 14.3125C92.3223 14.875 92.3015 15.4792 92.3431 16.125C92.4056 16.7708 92.541 17.3854 92.7494 17.9688C92.9577 18.5312 93.2494 19.0208 93.6244 19.4375C94.0202 19.8333 94.5202 20.0625 95.1244 20.125ZM105.288 7.625C105.83 7.72917 106.299 7.8125 106.694 7.875C107.111 7.91667 107.465 7.95833 107.757 8C108.09 8.04167 108.382 8.07292 108.632 8.09375C108.882 8.11458 109.174 8.13542 109.507 8.15625C110.069 8.17708 110.861 8.17708 111.882 8.15625C111.278 8.11458 110.799 8.27083 110.444 8.625C110.111 8.95833 109.861 9.34375 109.694 9.78125C109.486 10.3021 109.371 10.9062 109.351 11.5938C109.309 12.5104 109.33 13.3438 109.413 14.0938C109.517 14.8229 109.694 15.4479 109.944 15.9688C110.215 16.4688 110.569 16.8438 111.007 17.0938C111.444 17.3229 112.007 17.3854 112.694 17.2812C113.382 17.1771 113.903 16.9375 114.257 16.5625C114.632 16.1667 114.903 15.6875 115.069 15.125C115.236 14.5417 115.33 13.8854 115.351 13.1562C115.392 12.4271 115.424 11.6667 115.444 10.875C115.444 10.0833 115.434 9.52083 115.413 9.1875C115.413 8.83333 115.403 8.60417 115.382 8.5C115.361 8.39583 115.33 8.35417 115.288 8.375C115.246 8.375 115.194 8.32292 115.132 8.21875C115.09 8.13542 115.028 8.05208 114.944 7.96875C114.882 7.88542 114.799 7.79167 114.694 7.6875C114.59 7.5625 114.476 7.4375 114.351 7.3125C114.892 7.33333 115.371 7.35417 115.788 7.375C116.226 7.375 116.59 7.38542 116.882 7.40625C117.215 7.42708 117.507 7.44792 117.757 7.46875C117.986 7.48958 118.288 7.52083 118.663 7.5625C118.976 7.60417 119.382 7.64583 119.882 7.6875C120.382 7.72917 120.976 7.79167 121.663 7.875C121.184 7.97917 120.799 8.13542 120.507 8.34375C120.215 8.55208 119.986 8.76042 119.819 8.96875C119.632 9.19792 119.496 9.44792 119.413 9.71875C119.351 10.0729 119.351 10.6146 119.413 11.3438C119.455 11.9896 119.559 12.875 119.726 14C119.892 15.125 120.153 16.6042 120.507 18.4375L118.038 19.9062L117.538 15.75C116.934 16.7708 116.288 17.5625 115.601 18.125C114.934 18.6667 114.309 19.0625 113.726 19.3125C113.038 19.6042 112.371 19.7708 111.726 19.8125C110.871 19.8125 110.132 19.7604 109.507 19.6562C108.903 19.5312 108.382 19.375 107.944 19.1875C107.507 19 107.153 18.7917 106.882 18.5625C106.632 18.3125 106.444 18.0625 106.319 17.8125C106.028 17.2917 105.871 16.625 105.851 15.8125C105.83 14.9792 105.861 14.1562 105.944 13.3438C106.028 12.5104 106.121 11.75 106.226 11.0625C106.33 10.375 106.361 9.90625 106.319 9.65625C106.278 9.46875 106.215 9.26042 106.132 9.03125C106.049 8.84375 105.944 8.63542 105.819 8.40625C105.694 8.15625 105.517 7.89583 105.288 7.625ZM10.0594 46.0312C10.4552 46.0521 10.8094 46.0625 11.1219 46.0625C11.4552 46.0417 11.7365 46.0208 11.9656 46C12.2365 45.9792 12.476 45.9583 12.6844 45.9375C12.9969 45.8958 13.3198 45.8438 13.6531 45.7812C13.9448 45.7396 14.2469 45.6875 14.5594 45.625C14.8927 45.5417 15.2156 45.4479 15.5281 45.3438C15.4031 45.6562 15.299 45.9271 15.2156 46.1562C15.1323 46.3854 15.0698 46.5833 15.0281 46.75C14.9656 46.9375 14.9344 47.0938 14.9344 47.2188C14.9135 47.3646 14.9031 47.5417 14.9031 47.75C14.8823 48.1042 14.8823 48.6771 14.9031 49.4688C15.9865 48.5312 16.8927 47.8021 17.6219 47.2812C18.3719 46.7604 18.9656 46.3542 19.4031 46.0625C19.924 45.7292 20.3302 45.5104 20.6219 45.4062C21.3927 45.2812 22.0698 45.4583 22.6531 45.9375C22.9031 46.1458 23.1427 46.4271 23.3719 46.7812C23.601 47.1146 23.799 47.5625 23.9656 48.125C24.1323 48.6875 24.2573 49.3646 24.3406 50.1562C24.424 50.9271 24.4344 51.8542 24.3719 52.9375C23.9344 52.9792 23.5385 53.0208 23.1844 53.0625C22.851 53.1042 22.5698 53.1354 22.3406 53.1562C22.0698 53.1979 21.8198 53.2188 21.5906 53.2188L20.7469 53.3125C20.4552 53.3542 20.0906 53.3958 19.6531 53.4375C19.2365 53.4583 18.726 53.5 18.1219 53.5625C18.9969 52.8542 19.5594 52.2396 19.8094 51.7188C20.0802 51.1771 20.1948 50.7292 20.1531 50.375C20.1115 49.9792 19.924 49.6354 19.5906 49.3438C19.1948 49.1146 18.7677 49.0312 18.3094 49.0938C17.9135 49.1354 17.4552 49.3125 16.9344 49.625C16.4135 49.9375 15.8615 50.5208 15.2781 51.375C15.3198 52.7083 15.3615 53.8125 15.4031 54.6875C15.4656 55.5625 15.5177 56.2708 15.5594 56.8125C15.6219 57.4375 15.674 57.9271 15.7156 58.2812C15.7781 58.5938 15.9031 58.9271 16.0906 59.2812C16.2365 59.5729 16.4448 59.8958 16.7156 60.25C16.9865 60.6042 17.3406 60.9583 17.7781 61.3125C16.8615 61.2708 16.1115 61.2708 15.5281 61.3125C15.174 61.3333 14.8615 61.3542 14.5906 61.375C14.299 61.4167 13.9865 61.4583 13.6531 61.5C13.3615 61.5417 13.0177 61.5833 12.6219 61.625C12.2469 61.6875 11.8302 61.75 11.3719 61.8125C11.5385 61.5833 11.674 61.3125 11.7781 61C11.8823 60.7083 11.9656 60.4271 12.0281 60.1562C12.1115 59.8438 12.174 59.5208 12.2156 59.1875C12.2365 58.8958 12.2469 58.4583 12.2469 57.875C12.2677 57.2917 12.2573 56.6354 12.2156 55.9062C12.1948 55.1562 12.1635 54.3854 12.1219 53.5938C12.0802 52.7812 12.0281 52.0208 11.9656 51.3125C11.9031 50.6042 11.8302 49.9896 11.7469 49.4688C11.6844 48.9271 11.6115 48.5521 11.5281 48.3438C11.424 48.0938 11.299 47.8438 11.1531 47.5938C11.0281 47.3646 10.8719 47.125 10.6844 46.875C10.4969 46.6042 10.2885 46.3229 10.0594 46.0312ZM34.1294 55.9688C34.7127 55.9688 35.2544 55.9062 35.7544 55.7812C36.171 55.6771 36.5669 55.5104 36.9419 55.2812C37.3377 55.0312 37.5981 54.6667 37.7231 54.1875C38.1398 54.2708 38.494 54.3438 38.7856 54.4062C39.0773 54.4479 39.3273 54.4896 39.5356 54.5312C39.7648 54.5938 39.9627 54.6354 40.1294 54.6562C40.296 54.6979 40.494 54.7396 40.7231 54.7812C40.9315 54.8229 41.1815 54.875 41.4731 54.9375C41.7856 54.9792 42.1502 55.0417 42.5669 55.125C42.2544 55.0833 41.9315 55.1146 41.5981 55.2188C41.2856 55.3229 40.9835 55.4375 40.6919 55.5625C40.3585 55.7083 40.046 55.8854 39.7544 56.0938C39.5669 56.2188 39.3481 56.4062 39.0981 56.6562C38.869 56.9062 38.5356 57.1458 38.0981 57.375C37.6606 57.6042 37.0773 57.8021 36.3481 57.9688C35.6398 58.1146 34.7231 58.1667 33.5981 58.125C32.244 58.0833 31.1085 57.8438 30.1919 57.4062C29.2752 56.9479 28.5356 56.3958 27.9731 55.75C27.4106 55.0833 27.0044 54.3646 26.7544 53.5938C26.5044 52.8229 26.369 52.1042 26.3481 51.4375C26.3273 50.7708 26.5252 50.0729 26.9419 49.3438C27.3585 48.6146 27.9419 47.9479 28.6919 47.3438C29.4627 46.7396 30.3898 46.25 31.4731 45.875C32.5565 45.4792 33.744 45.2812 35.0356 45.2812C35.7856 45.2812 36.4731 45.375 37.0981 45.5625C37.744 45.7292 38.3273 45.9583 38.8481 46.25C39.3898 46.5417 39.8585 46.875 40.2544 47.25C40.6502 47.6042 40.9835 47.9688 41.2544 48.3438C41.5252 48.7396 41.7544 49.1562 41.9419 49.5938C42.1085 49.9688 42.244 50.3958 42.3481 50.875C42.4523 51.3542 42.4835 51.8438 42.4419 52.3438C40.8585 52.3854 39.5773 52.4167 38.5981 52.4375C37.6398 52.4583 36.8898 52.4688 36.3481 52.4688H34.9419H33.8794C33.5044 52.4688 33.0148 52.4792 32.4106 52.5C31.8065 52.5208 31.0669 52.5521 30.1919 52.5938C30.296 53.4271 30.5565 54.0729 30.9731 54.5312C31.4106 54.9688 31.869 55.3021 32.3481 55.5312C32.8898 55.7812 33.4835 55.9271 34.1294 55.9688ZM31.3169 50.3438C31.9835 50.3854 32.5356 50.4167 32.9731 50.4375C33.4315 50.4583 33.8065 50.4792 34.0981 50.5C34.4106 50.5208 34.6606 50.5312 34.8481 50.5312H35.6294C36.1502 50.5312 37.119 50.5 38.5356 50.4375C38.4731 49.5208 38.2752 48.8229 37.9419 48.3438C37.6294 47.8646 37.296 47.5104 36.9419 47.2812C36.5252 47.0312 36.0669 46.8854 35.5669 46.8438C34.2127 46.8646 33.2023 47.1458 32.5356 47.6875C31.8898 48.2292 31.4835 49.1146 31.3169 50.3438ZM46.3556 48.3438C46.4598 48.2188 46.5223 47.9896 46.5431 47.6562C46.5848 47.3021 46.6681 46.9062 46.7931 46.4688C46.939 46.0312 47.1785 45.5729 47.5119 45.0938C47.8452 44.6146 48.3869 44.1667 49.1369 43.75C49.866 43.3333 50.5744 43.0833 51.2619 43C51.9494 42.9167 52.6056 42.9479 53.2306 43.0938C53.8556 43.2396 54.439 43.4688 54.9806 43.7812C55.5431 44.0938 56.0535 44.4375 56.5119 44.8125C56.8244 45.0625 57.0744 45.4271 57.2619 45.9062C57.4494 46.3646 57.5952 46.8854 57.6994 47.4688C57.8035 48.0521 57.8765 48.6667 57.9181 49.3125C57.9806 49.9375 58.0223 50.5521 58.0431 51.1562C58.064 51.7396 58.0744 52.2812 58.0744 52.7812C58.0952 53.2604 58.1369 53.6562 58.1994 53.9688C58.2827 54.4271 58.4285 54.8229 58.6369 55.1562C58.8452 55.4688 59.0744 55.7396 59.3244 55.9688C59.5744 56.1771 59.8244 56.3438 60.0744 56.4688C60.3244 56.5938 60.5431 56.6875 60.7306 56.75C60.8556 56.8125 60.9702 56.8542 61.0744 56.875C61.2827 56.9583 61.4285 56.9583 61.5119 56.875C61.3869 57.1667 61.2723 57.4167 61.1681 57.625C61.064 57.8333 60.9806 58.0104 60.9181 58.1562C60.8348 58.3229 60.7619 58.4583 60.6994 58.5625C60.6369 58.6875 60.564 58.8021 60.4806 58.9062C60.4181 59.0104 60.3348 59.125 60.2306 59.25C60.1265 59.375 60.0223 59.5104 59.9181 59.6562C59.6473 59.5521 59.3869 59.4271 59.1369 59.2812C58.9077 59.1354 58.6994 59 58.5119 58.875C58.2827 58.7292 58.0744 58.5833 57.8869 58.4375C57.6994 58.2917 57.5223 58.125 57.3556 57.9375C57.2098 57.7708 57.0535 57.5938 56.8869 57.4062C56.741 57.2188 56.616 57.0104 56.5119 56.7812C56.3869 57.0521 56.0848 57.4375 55.6056 57.9375C55.1473 58.4375 54.5431 58.8958 53.7931 59.3125C53.0431 59.7083 52.1681 59.9896 51.1681 60.1562C50.189 60.3229 49.1056 60.2083 47.9181 59.8125C47.3973 59.6458 46.9077 59.4062 46.4494 59.0938C45.991 58.7604 45.5952 58.3646 45.2619 57.9062C44.9494 57.4479 44.7202 56.9271 44.5744 56.3438C44.4494 55.7396 44.4598 55.0729 44.6056 54.3438C44.7515 53.6146 45.0119 53 45.3869 52.5C45.7619 52 46.2098 51.5938 46.7306 51.2812C47.2515 50.9688 47.8348 50.7292 48.4806 50.5625C49.1265 50.3958 49.7931 50.2812 50.4806 50.2188C51.0223 50.1979 51.564 50.2292 52.1056 50.3125C52.564 50.3958 53.0431 50.5521 53.5431 50.7812C54.0431 50.9896 54.4702 51.3125 54.8244 51.75C54.8035 50.6458 54.7619 49.7708 54.6994 49.125C54.6577 48.4583 54.616 47.9479 54.5744 47.5938C54.491 47.1771 54.4181 46.8854 54.3556 46.7188C54.2515 46.5729 54.1369 46.4062 54.0119 46.2188C53.9077 46.0312 53.7723 45.8646 53.6056 45.7188C53.439 45.5521 53.2306 45.4167 52.9806 45.3125C52.7306 45.2083 52.439 45.1667 52.1056 45.1875C51.7515 45.2083 51.4702 45.3021 51.2619 45.4688C51.0535 45.6354 50.8869 45.8333 50.7619 46.0625C50.6577 46.2708 50.5952 46.5 50.5744 46.75C50.5535 47 50.564 47.2188 50.6056 47.4062C50.6473 47.5312 50.7098 47.6667 50.7931 47.8125C50.8765 47.9375 50.991 48.0729 51.1369 48.2188C51.2827 48.3646 51.4806 48.4896 51.7306 48.5938C51.2515 48.6562 50.8244 48.7083 50.4494 48.75C50.0744 48.7708 49.7515 48.8021 49.4806 48.8438C49.1681 48.8854 48.8973 48.9167 48.6681 48.9375C48.439 48.9583 48.1681 49 47.8556 49.0625C47.5848 49.1042 47.2515 49.1562 46.8556 49.2188C46.4598 49.2812 46.0015 49.3646 45.4806 49.4688C45.6056 49.3229 45.7202 49.1875 45.8244 49.0625C45.9285 48.9167 46.0223 48.7917 46.1056 48.6875C46.189 48.5625 46.2723 48.4479 46.3556 48.3438ZM51.0431 52.0625C50.6681 52.0833 50.2931 52.1771 49.9181 52.3438C49.5431 52.4896 49.2098 52.7083 48.9181 53C48.6265 53.2708 48.3765 53.5938 48.1681 53.9688C47.9806 54.3229 47.8869 54.7188 47.8869 55.1562C47.8869 55.5938 47.991 55.9792 48.1994 56.3125C48.4285 56.625 48.7202 56.8854 49.0744 57.0938C49.4494 57.3021 49.8452 57.4271 50.2619 57.4688C50.6994 57.5104 51.1265 57.4688 51.5431 57.3438C51.939 57.1979 52.314 56.9688 52.6681 56.6562C53.0223 56.3229 53.3244 55.9688 53.5744 55.5938C53.8244 55.1979 54.0015 54.8125 54.1056 54.4375C54.2098 54.0417 54.2202 53.7188 54.1369 53.4688C53.9702 52.9271 53.5952 52.5521 53.0119 52.3438C52.4285 52.1146 51.7723 52.0208 51.0431 52.0625ZM76.8631 37.0625C77.259 37.0833 77.686 37.0938 78.1444 37.0938C78.5402 37.0938 78.9881 37.1042 79.4881 37.125C80.009 37.125 80.5506 37.1042 81.1131 37.0625C80.6131 37.2917 80.1756 37.625 79.8006 38.0625C79.4256 38.5 79.1235 38.9375 78.8944 39.375C78.6027 39.8958 78.3631 40.4375 78.1756 41C78.0715 41.3333 77.9881 41.9271 77.9256 42.7812C77.8631 43.6146 77.811 44.5938 77.7694 45.7188C77.7485 46.8438 77.7381 48.0312 77.7381 49.2812C77.7381 50.5312 77.7485 51.7292 77.7694 52.875C77.7902 54 77.8215 55 77.8631 55.875C77.9048 56.75 77.9569 57.3646 78.0194 57.7188C78.1027 58.1354 78.2069 58.5312 78.3319 58.9062C78.436 59.2396 78.5715 59.5833 78.7381 59.9375C78.9048 60.2708 79.1131 60.5417 79.3631 60.75L76.1756 62.1875C76.009 61.9583 75.8735 61.7188 75.7694 61.4688C75.6652 61.2396 75.5819 61.0312 75.5194 60.8438C75.436 60.6146 75.384 60.4062 75.3631 60.2188C75.3215 59.9688 75.2798 59.6979 75.2381 59.4062C75.1965 59.0938 75.1444 58.8021 75.0819 58.5312C75.0402 58.2396 75.009 58 74.9881 57.8125C74.9673 57.625 74.9673 57.5104 74.9881 57.4688C75.009 57.4271 74.884 57.6146 74.6131 58.0312C74.3423 58.4271 73.936 58.8958 73.3944 59.4375C72.8735 59.9583 72.2277 60.4688 71.4569 60.9688C70.686 61.4479 69.8215 61.75 68.8631 61.875C67.884 62 66.9777 61.8125 66.1444 61.3125C65.3319 60.8125 64.634 60.1146 64.0506 59.2188C63.4673 58.3021 63.0194 57.25 62.7069 56.0625C62.4152 54.8542 62.3006 53.625 62.3631 52.375C62.4048 51.5417 62.5923 50.8021 62.9256 50.1562C63.259 49.4896 63.6756 48.9167 64.1756 48.4375C64.6965 47.9375 65.259 47.5208 65.8631 47.1875C66.4881 46.8333 67.0923 46.5417 67.6756 46.3125C68.2798 46.0833 68.8423 45.9167 69.3631 45.8125C69.884 45.7083 70.3006 45.6354 70.6131 45.5938C70.9881 45.5729 71.4152 45.6354 71.8944 45.7812C72.311 45.9062 72.7902 46.1146 73.3319 46.4062C73.8944 46.6979 74.5194 47.1354 75.2069 47.7188C75.0819 45.6354 74.9673 43.9688 74.8631 42.7188C74.759 41.4479 74.6548 40.4792 74.5506 39.8125C74.4465 39.0208 74.3527 38.4792 74.2694 38.1875C74.1652 37.9792 74.0298 37.7708 73.8631 37.5625C73.7173 37.3958 73.5298 37.2292 73.3006 37.0625C73.0923 36.875 72.8423 36.7292 72.5506 36.625C73.0923 36.7292 73.6131 36.8021 74.1131 36.8438C74.6131 36.8854 75.0715 36.9271 75.4881 36.9688C75.9673 37.0104 76.4256 37.0417 76.8631 37.0625ZM69.0194 48.7188C68.6235 48.8646 68.3006 49.1146 68.0506 49.4688C67.8215 49.8229 67.634 50.25 67.4881 50.75C67.3423 51.2292 67.2381 51.75 67.1756 52.3125C67.134 52.8542 67.1027 53.3854 67.0819 53.9062C67.0819 54.4062 67.0819 54.8646 67.0819 55.2812C67.0819 55.6979 67.0819 56.0104 67.0819 56.2188C67.0819 56.3438 67.1027 56.5729 67.1444 56.9062C67.2069 57.2188 67.3319 57.5521 67.5194 57.9062C67.7069 58.2396 67.9673 58.5417 68.3006 58.8125C68.6548 59.0833 69.1235 59.2188 69.7069 59.2188C70.186 59.1771 70.6965 59.0104 71.2381 58.7188C71.7173 58.4688 72.259 58.0729 72.8631 57.5312C73.4881 56.9688 74.1548 56.1667 74.8631 55.125C74.8215 54.4583 74.7902 53.9062 74.7694 53.4688C74.7694 53.0312 74.759 52.6771 74.7381 52.4062C74.7173 52.0938 74.7069 51.8438 74.7069 51.6562V51.1875C74.7069 51.0625 74.7069 50.9271 74.7069 50.7812C74.7069 50.6354 74.7173 50.5 74.7381 50.375C74.1548 49.9583 73.634 49.6042 73.1756 49.3125C72.7381 49 72.3006 48.7708 71.8631 48.625C71.4465 48.4583 71.009 48.3854 70.5506 48.4062C70.1131 48.4062 69.6027 48.5104 69.0194 48.7188ZM79.1831 45.0312C79.5998 45.0938 79.9748 45.1458 80.3081 45.1875C80.6206 45.2083 80.9019 45.2292 81.1519 45.25C81.4227 45.2708 81.6831 45.2812 81.9331 45.2812C82.1623 45.2812 82.454 45.2708 82.8081 45.25C83.0998 45.2292 83.4748 45.2083 83.9331 45.1875C84.4123 45.1458 84.9748 45.0938 85.6206 45.0312C85.579 45.1146 85.4956 45.375 85.3706 45.8125C85.2456 46.2292 85.1206 46.75 84.9956 47.375C84.8706 47.9792 84.756 48.6562 84.6519 49.4062C84.5685 50.1354 84.5269 50.8646 84.5269 51.5938C84.5477 52.3021 84.6415 52.9792 84.8081 53.625C84.9748 54.25 85.2456 54.7604 85.6206 55.1562C86.4123 55.9688 87.1102 56.4583 87.7144 56.625C88.3394 56.7917 88.881 56.7708 89.3394 56.5625C89.7977 56.3542 90.1727 56.0417 90.4644 55.625C90.756 55.2083 90.9644 54.8229 91.0894 54.4688C91.4019 53.5104 91.5894 52.5 91.6519 51.4375C91.6935 50.5208 91.6206 49.5 91.4331 48.375C91.2456 47.25 90.7977 46.1042 90.0894 44.9375C90.631 44.9792 91.0998 45.0104 91.4956 45.0312C91.8915 45.0521 92.2352 45.0729 92.5269 45.0938C92.8602 45.1146 93.1519 45.1354 93.4019 45.1562C93.631 45.1771 93.9019 45.1771 94.2144 45.1562C94.4852 45.1562 94.8081 45.1458 95.1831 45.125C95.579 45.0833 96.0165 45.0417 96.4956 45C96.579 47.0417 96.6519 48.8646 96.7144 50.4688C96.7769 52.0521 96.8185 53.4583 96.8394 54.6875C96.881 55.8958 96.9019 56.9479 96.9019 57.8438C96.9019 58.7188 96.9019 59.4583 96.9019 60.0625C96.881 61.5 96.8185 62.4479 96.7144 62.9062C96.5477 63.5521 96.2456 64.1979 95.8081 64.8438C95.3915 65.4896 94.8602 66.0625 94.2144 66.5625C93.5685 67.0833 92.8185 67.4792 91.9644 67.75C91.131 68.0417 90.2144 68.1458 89.2144 68.0625C88.2352 67.9792 87.454 67.8438 86.8706 67.6562C86.3081 67.4896 85.8602 67.2917 85.5269 67.0625C85.2144 66.8333 84.9852 66.5938 84.8394 66.3438C84.7144 66.0938 84.6206 65.8333 84.5581 65.5625C84.4956 65.3125 84.4331 65.0729 84.3706 64.8438C84.3081 64.6146 84.1831 64.4167 83.9956 64.25C83.7665 64.0625 83.5269 63.875 83.2769 63.6875C83.0477 63.5208 82.7977 63.3542 82.5269 63.1875C82.2769 63.0208 82.0269 62.8854 81.7769 62.7812L88.4331 62.4062C88.2456 62.6562 88.1102 62.8854 88.0269 63.0938C87.9435 63.3021 87.8915 63.4792 87.8706 63.625C87.8498 63.8125 87.8602 63.9688 87.9019 64.0938C87.9852 64.3438 88.131 64.6146 88.3394 64.9062C88.5685 65.2188 88.8602 65.4583 89.2144 65.625C89.5685 65.8125 89.9852 65.875 90.4644 65.8125C90.9644 65.75 91.5269 65.4896 92.1519 65.0312C92.6727 64.6354 93.1102 64 93.4644 63.125C93.756 62.375 93.9852 61.3229 94.1519 59.9688C94.3185 58.6146 94.2873 56.8333 94.0581 54.625C93.6831 55.9167 93.1727 56.9062 92.5269 57.5938C91.881 58.2812 91.2352 58.7812 90.5894 59.0938C89.8394 59.4688 89.0581 59.6667 88.2456 59.6875C87.1623 59.6458 86.2352 59.5104 85.4644 59.2812C84.6935 59.0312 84.0581 58.6979 83.5581 58.2812C83.0581 57.8646 82.6623 57.375 82.3706 56.8125C82.0998 56.2292 81.9019 55.5833 81.7769 54.875C81.6519 54.1667 81.5894 53.4583 81.5894 52.75C81.5894 52.0208 81.5894 51.3438 81.5894 50.7188C81.6102 50.0938 81.6206 49.5312 81.6206 49.0312C81.6206 48.5104 81.5685 48.0938 81.4644 47.7812C81.3394 47.4688 81.1727 47.1562 80.9644 46.8438C80.7977 46.5729 80.5685 46.2812 80.2769 45.9688C79.9644 45.6354 79.5998 45.3229 79.1831 45.0312ZM105.722 44.8438C105.347 44.9062 104.972 44.9688 104.597 45.0312C104.222 45.0938 103.889 45.1458 103.597 45.1875C103.243 45.25 102.909 45.3021 102.597 45.3438C102.284 45.4062 101.941 45.4583 101.566 45.5C101.253 45.5417 100.889 45.5833 100.472 45.625C100.055 45.6458 99.6177 45.6667 99.1594 45.6875C99.201 45.5208 99.2427 45.3125 99.2844 45.0625C99.3469 44.8125 99.399 44.5729 99.4406 44.3438C99.5031 44.0729 99.5552 43.7917 99.5969 43.5C99.6594 43.125 99.701 42.8125 99.7219 42.5625C99.7635 42.3125 99.7948 42.0938 99.8156 41.9062C99.8573 41.7188 99.9094 41.5521 99.9719 41.4062C100.034 41.2604 100.149 41.1146 100.316 40.9688C100.566 40.7396 100.878 40.4896 101.253 40.2188C101.649 39.9271 102.118 39.6771 102.659 39.4688C103.222 39.2396 103.868 39.0625 104.597 38.9375C105.347 38.8125 106.211 38.7812 107.191 38.8438C108.17 38.9062 108.982 39.0104 109.628 39.1562C110.274 39.3021 110.816 39.4896 111.253 39.7188C111.691 39.9271 112.045 40.1771 112.316 40.4688C112.607 40.7396 112.878 41.0625 113.128 41.4375C113.378 41.8125 113.618 42.2708 113.847 42.8125C114.097 43.3333 114.305 43.8854 114.472 44.4688C114.639 45.0521 114.732 45.6354 114.753 46.2188C114.795 46.8021 114.743 47.3229 114.597 47.7812C114.409 48.1562 114.045 48.5312 113.503 48.9062C113.024 49.2396 112.336 49.6146 111.441 50.0312C110.566 50.4479 109.347 50.8646 107.784 51.2812C107.826 51.6771 107.889 52.0312 107.972 52.3438C108.055 52.6562 108.139 52.9271 108.222 53.1562C108.305 53.4271 108.409 53.6667 108.534 53.875C108.659 54.0625 108.774 54.2708 108.878 54.5C108.982 54.6875 109.086 54.8958 109.191 55.125C109.316 55.3333 109.43 55.5312 109.534 55.7188L103.409 56.4688C103.597 56.2396 103.743 56 103.847 55.75C103.972 55.4792 104.066 55.2292 104.128 55C104.211 54.7292 104.253 54.4583 104.253 54.1875C104.253 53.8958 104.232 53.5417 104.191 53.125C104.149 52.7708 104.086 52.3229 104.003 51.7812C103.941 51.2188 103.826 50.5625 103.659 49.8125C104.639 49.7708 105.441 49.6667 106.066 49.5C106.711 49.3125 107.232 49.125 107.628 48.9375C108.086 48.7083 108.441 48.4688 108.691 48.2188C108.878 47.9896 109.034 47.6354 109.159 47.1562C109.305 46.6562 109.399 46.1042 109.441 45.5C109.503 44.8958 109.503 44.2812 109.441 43.6562C109.378 43.0104 109.232 42.4375 109.003 41.9375C108.774 41.4375 108.451 41.0417 108.034 40.75C107.639 40.4375 107.128 40.3021 106.503 40.3438C105.566 40.4271 104.857 40.6042 104.378 40.875C103.899 41.125 103.566 41.4062 103.378 41.7188C103.191 42.0312 103.097 42.3438 103.097 42.6562C103.118 42.9688 103.149 43.1979 103.191 43.3438C103.211 43.4896 103.326 43.6354 103.534 43.7812C103.701 43.9271 103.951 44.0833 104.284 44.25C104.639 44.4167 105.118 44.6146 105.722 44.8438ZM106.316 57.5625C107.066 57.4583 107.649 57.5833 108.066 57.9375C108.503 58.2917 108.711 58.7812 108.691 59.4062C108.67 59.7188 108.607 59.9688 108.503 60.1562C108.399 60.3438 108.253 60.4896 108.066 60.5938C107.899 60.6771 107.691 60.75 107.441 60.8125C107.211 60.8542 106.941 60.8958 106.628 60.9375C106.316 61 106.014 60.9896 105.722 60.9062C105.43 60.8021 105.17 60.6562 104.941 60.4688C104.711 60.2812 104.524 60.0729 104.378 59.8438C104.253 59.6146 104.191 59.3854 104.191 59.1562C104.191 58.9062 104.253 58.6979 104.378 58.5312C104.524 58.3438 104.701 58.1875 104.909 58.0625C105.139 57.9167 105.368 57.8125 105.597 57.75C105.847 57.6667 106.086 57.6042 106.316 57.5625Z" fill="#8AC926"/>
</svg>
