<svg width="125" height="133" viewBox="0 0 125 133" fill="none" xmlns="http://www.w3.org/2000/svg">
<path d="M34.6918 19.5384C30.9638 24.1873 28.3484 35.1839 26.5688 39.8549L24.7892 43.3636C20.7438 53.8014 17.9877 48.0863 16.3429 43.3636C14.9185 39.2738 10.1295 33.9691 7.31404 32.0321C4.51801 29.9401 1.81212 31.4289 0.355857 33.1722C-0.809182 35.4966 1.18409 37.1417 2.07145 37.8432C4.98388 40.1454 5.46939 44.5258 4.98396 47.1408C4.51796 52.9518 4.59563 57.6975 4.69271 59.344C7.02274 77.4744 18.2845 79.1015 23.6242 77.6488C24.7892 82.2976 20.8087 93.5323 18.6729 98.5685C17.2749 101.59 13.4622 110.459 12.2653 114.549C9.96719 128.764 27.0221 124.04 34.1093 120.069C39.9344 117.28 43.9792 119.176 45.4682 121.522C46.0298 122.407 47.5389 124.406 48.672 125.59C61.9925 139.513 76.2439 130.432 80.4186 125.59C86.4766 118.849 94.2046 120.263 97.3113 121.813C105.466 125.532 109.342 123.06 111 121.232C119.187 112.202 113.653 101.742 109.253 97.1158C104.333 92.1542 100.321 82.3945 99.9325 77.3582C108.321 80.6124 113.913 74.6464 115.66 71.2566C121.019 64.2834 120.417 53.6298 119.447 49.1747C118.281 40.8068 121.291 38.1337 122.942 37.8432C126.67 37.1458 124.495 34.6471 122.942 33.4849C119.214 29.9982 114.398 33.388 112.456 35.5187C110.592 37.3783 109.562 38.9832 108.961 40.4581C102.586 56.1258 99.382 47.1187 98.4763 40.4581L97.6025 31.451C95.9715 18.4343 86.0495 10.725 81.2923 8.49747C73.6032 4.54597 60.8075 4.7203 55.3708 5.3014C45.1187 5.99873 37.3131 15.0833 34.6918 19.5384Z" fill="#AC9F9F"/>
<path d="M34.6918 15.4091C30.9638 20.0579 28.3484 31.0545 26.5688 35.7255L24.7892 39.2342C20.7438 49.672 17.9877 43.9569 16.3429 39.2342C14.9185 35.1444 10.1295 29.8397 7.31404 27.9027C4.51801 25.8107 1.81212 27.2995 0.355857 29.0428C-0.809182 31.3672 1.18409 33.0123 2.07145 33.7138C4.98388 36.016 5.46939 40.3965 4.98396 43.0114C4.51796 48.8224 4.59563 53.5681 4.69271 55.2146C7.02274 73.345 18.2845 74.9721 23.6242 73.5194C24.7892 78.1682 20.8087 89.4029 18.6729 94.4391C17.2749 97.4609 13.4622 106.33 12.2653 110.419C9.96719 124.634 27.0221 119.911 34.1093 115.94C39.9344 113.151 43.9792 115.046 45.4682 117.393C46.0298 118.278 47.5388 120.276 48.672 121.46C61.9925 135.383 76.2439 126.303 80.4186 121.46C86.4766 114.72 94.2046 116.134 97.3113 117.683C105.466 121.402 109.342 118.931 111 117.102C119.187 108.073 113.653 97.6131 109.253 92.9864C104.333 88.0249 100.321 78.2651 99.9325 73.2288C108.321 76.483 113.913 70.517 115.66 67.1272C121.019 60.154 120.417 49.5004 119.447 45.0453C118.282 36.6774 121.291 34.0043 122.942 33.7138C126.67 33.0164 124.495 30.5177 122.942 29.3555C119.214 25.8689 114.398 29.2586 112.456 31.3893C110.592 33.2489 109.562 34.8538 108.961 36.3287C102.586 51.9964 99.382 42.9893 98.4763 36.3287L97.6025 27.3216C95.9715 14.3049 85.8011 5.83973 81.0439 3.61219C73.2406 -1.2731 59.7527 -0.104289 54.945 0.859252C44.6429 2.92395 37.3131 10.9539 34.6918 15.4091Z" fill="#FFF9EF"/>
<ellipse cx="54.9451" cy="28.3886" rx="4.12088" ry="5.50587" fill="#2D1D27"/>
<ellipse cx="74.1758" cy="28.3886" rx="4.12088" ry="5.50587" fill="#2D1D27"/>
<path d="M70.8022 46.9708C71.9067 46.9708 72.8279 46.0602 72.54 44.9939C72.1982 43.7279 71.5309 42.5611 70.5894 41.6176C69.1725 40.1979 67.2509 39.4003 65.2472 39.4003C63.2435 39.4003 61.3219 40.1979 59.9051 41.6176C58.9635 42.5611 58.2962 43.7279 57.9544 44.9939C57.6665 46.0602 58.5877 46.9708 59.6923 46.9708L65.2472 46.9708H70.8022Z" fill="#2D1D27"/>
</svg>
