<svg width="89" height="27" viewBox="0 0 89 27" fill="none" xmlns="http://www.w3.org/2000/svg">
<path d="M0.821877 3.4375C2.07188 3.54167 3.16563 3.60417 4.10313 3.625C5.06146 3.64583 5.87396 3.65625 6.54063 3.65625C7.31146 3.65625 7.97813 3.63542 8.54063 3.59375C9.12396 3.53125 9.88438 3.44792 10.8219 3.34375C11.6135 3.23958 12.6344 3.10417 13.8844 2.9375C15.1344 2.75 16.6552 2.51042 18.4469 2.21875C18.2177 2.57292 18.0198 2.94792 17.8531 3.34375C17.7073 3.71875 17.5823 4.0625 17.4781 4.375C17.374 4.75 17.2802 5.11458 17.1969 5.46875C17.1344 5.86458 17.0615 6.35417 16.9781 6.9375C16.8948 7.4375 16.7906 8.07292 16.6656 8.84375C16.5615 9.59375 16.426 10.4896 16.2594 11.5312C15.6344 9.90625 14.999 8.65625 14.3531 7.78125C13.7281 6.90625 13.1448 6.26042 12.6031 5.84375C11.9781 5.36458 11.3844 5.09375 10.8219 5.03125C10.0094 5.03125 9.34271 5.1875 8.82188 5.5C8.30104 5.8125 7.87396 6.21875 7.54063 6.71875C7.22813 7.19792 6.98854 7.72917 6.82188 8.3125C6.65521 8.875 6.54063 9.42708 6.47813 9.96875C6.41563 10.4896 6.37396 10.9583 6.35313 11.375C6.33229 11.7708 6.31146 12.0417 6.29063 12.1875C7.01979 12.1458 7.63438 12.0938 8.13438 12.0312C8.63438 11.9688 9.03021 11.9062 9.32188 11.8438C9.67604 11.7604 9.95729 11.6771 10.1656 11.5938C10.4781 11.4271 10.7906 11.2292 11.1031 11C11.374 10.7917 11.6552 10.5417 11.9469 10.25C12.2594 9.95833 12.5302 9.60417 12.7594 9.1875C12.6344 9.9375 12.5198 10.5625 12.4156 11.0625C12.3323 11.5625 12.2594 11.9583 12.1969 12.25C12.1135 12.6042 12.0615 12.875 12.0406 13.0625C11.999 13.25 11.9469 13.5104 11.8844 13.8438C11.8219 14.1354 11.749 14.5104 11.6656 14.9688C11.5823 15.4271 11.4885 16 11.3844 16.6875C11.1344 16.25 10.874 15.8958 10.6031 15.625C10.3323 15.3333 10.0823 15.1042 9.85313 14.9375C9.58229 14.75 9.32188 14.6042 9.07188 14.5C8.80104 14.4167 8.50938 14.3333 8.19688 14.25C7.92604 14.1875 7.60313 14.125 7.22813 14.0625C6.87396 13.9792 6.48854 13.9062 6.07188 13.8438C6.11354 14.9688 6.17604 15.9375 6.25938 16.75C6.34271 17.5417 6.41563 18.2083 6.47813 18.75C6.56146 19.375 6.64479 19.8958 6.72813 20.3125C6.83229 20.7292 6.99896 21.1771 7.22813 21.6562C7.41563 22.0729 7.67604 22.5521 8.00938 23.0938C8.36354 23.6146 8.81146 24.1771 9.35313 24.7812C8.93646 24.6771 8.49896 24.6042 8.04063 24.5625C7.58229 24.5208 7.17604 24.4896 6.82188 24.4688C6.38438 24.4479 5.96771 24.4479 5.57188 24.4688C5.15521 24.4896 4.69688 24.5312 4.19688 24.5938C3.78021 24.6354 3.30104 24.6979 2.75938 24.7812C2.21771 24.8646 1.64479 24.9583 1.04063 25.0625C1.39479 24.7083 1.68646 24.3542 1.91563 24C2.14479 23.6458 2.31146 23.3333 2.41563 23.0625C2.54063 22.75 2.62396 22.4479 2.66563 22.1562C2.68646 21.9062 2.69688 21.3646 2.69688 20.5312C2.69688 19.6771 2.68646 18.6875 2.66563 17.5625C2.64479 16.4167 2.61354 15.2083 2.57188 13.9375C2.53021 12.6667 2.48854 11.4792 2.44688 10.375C2.40521 9.25 2.35313 8.29167 2.29063 7.5C2.24896 6.70833 2.19688 6.22917 2.13438 6.0625C2.05104 5.85417 1.95729 5.61458 1.85313 5.34375C1.68646 4.90625 1.34271 4.27083 0.821877 3.4375ZM19.5244 12.3438C19.6285 12.2188 19.691 11.9896 19.7119 11.6562C19.7535 11.3021 19.8369 10.9062 19.9619 10.4688C20.1077 10.0312 20.3473 9.57292 20.6806 9.09375C21.014 8.61458 21.5556 8.16667 22.3056 7.75C23.0348 7.33333 23.7431 7.08333 24.4306 7C25.1181 6.91667 25.7744 6.94792 26.3994 7.09375C27.0244 7.23958 27.6077 7.46875 28.1494 7.78125C28.7119 8.09375 29.2223 8.4375 29.6806 8.8125C29.9931 9.0625 30.2431 9.42708 30.4306 9.90625C30.6181 10.3646 30.764 10.8854 30.8681 11.4688C30.9723 12.0521 31.0452 12.6667 31.0869 13.3125C31.1494 13.9375 31.191 14.5521 31.2119 15.1562C31.2327 15.7396 31.2431 16.2812 31.2431 16.7812C31.264 17.2604 31.3056 17.6562 31.3681 17.9688C31.4515 18.4271 31.5973 18.8229 31.8056 19.1562C32.014 19.4688 32.2431 19.7396 32.4931 19.9688C32.7431 20.1771 32.9931 20.3438 33.2431 20.4688C33.4931 20.5938 33.7119 20.6875 33.8994 20.75C34.0244 20.8125 34.139 20.8542 34.2431 20.875C34.4515 20.9583 34.5973 20.9583 34.6806 20.875C34.5556 21.1667 34.441 21.4167 34.3369 21.625C34.2327 21.8333 34.1494 22.0104 34.0869 22.1562C34.0035 22.3229 33.9306 22.4583 33.8681 22.5625C33.8056 22.6875 33.7327 22.8021 33.6494 22.9062C33.5869 23.0104 33.5035 23.125 33.3994 23.25C33.2952 23.375 33.191 23.5104 33.0869 23.6562C32.816 23.5521 32.5556 23.4271 32.3056 23.2812C32.0765 23.1354 31.8681 23 31.6806 22.875C31.4515 22.7292 31.2431 22.5833 31.0556 22.4375C30.8681 22.2917 30.691 22.125 30.5244 21.9375C30.3785 21.7708 30.2223 21.5938 30.0556 21.4062C29.9098 21.2188 29.7848 21.0104 29.6806 20.7812C29.5556 21.0521 29.2535 21.4375 28.7744 21.9375C28.316 22.4375 27.7119 22.8958 26.9619 23.3125C26.2119 23.7083 25.3369 23.9896 24.3369 24.1562C23.3577 24.3229 22.2744 24.2083 21.0869 23.8125C20.566 23.6458 20.0765 23.4062 19.6181 23.0938C19.1598 22.7604 18.764 22.3646 18.4306 21.9062C18.1181 21.4479 17.889 20.9271 17.7431 20.3438C17.6181 19.7396 17.6285 19.0729 17.7744 18.3438C17.9202 17.6146 18.1806 17 18.5556 16.5C18.9306 16 19.3785 15.5938 19.8994 15.2812C20.4202 14.9688 21.0035 14.7292 21.6494 14.5625C22.2952 14.3958 22.9619 14.2812 23.6494 14.2188C24.191 14.1979 24.7327 14.2292 25.2744 14.3125C25.7327 14.3958 26.2119 14.5521 26.7119 14.7812C27.2119 14.9896 27.639 15.3125 27.9931 15.75C27.9723 14.6458 27.9306 13.7708 27.8681 13.125C27.8265 12.4583 27.7848 11.9479 27.7431 11.5938C27.6598 11.1771 27.5869 10.8854 27.5244 10.7188C27.4202 10.5729 27.3056 10.4062 27.1806 10.2188C27.0765 10.0312 26.941 9.86458 26.7744 9.71875C26.6077 9.55208 26.3994 9.41667 26.1494 9.3125C25.8994 9.20833 25.6077 9.16667 25.2744 9.1875C24.9202 9.20833 24.639 9.30208 24.4306 9.46875C24.2223 9.63542 24.0556 9.83333 23.9306 10.0625C23.8265 10.2708 23.764 10.5 23.7431 10.75C23.7223 11 23.7327 11.2188 23.7744 11.4062C23.816 11.5312 23.8785 11.6667 23.9619 11.8125C24.0452 11.9375 24.1598 12.0729 24.3056 12.2188C24.4515 12.3646 24.6494 12.4896 24.8994 12.5938C24.4202 12.6562 23.9931 12.7083 23.6181 12.75C23.2431 12.7708 22.9202 12.8021 22.6494 12.8438C22.3369 12.8854 22.066 12.9167 21.8369 12.9375C21.6077 12.9583 21.3369 13 21.0244 13.0625C20.7535 13.1042 20.4202 13.1562 20.0244 13.2188C19.6285 13.2812 19.1702 13.3646 18.6494 13.4688C18.7744 13.3229 18.889 13.1875 18.9931 13.0625C19.0973 12.9167 19.191 12.7917 19.2744 12.6875C19.3577 12.5625 19.441 12.4479 19.5244 12.3438ZM24.2119 16.0625C23.8369 16.0833 23.4619 16.1771 23.0869 16.3438C22.7119 16.4896 22.3785 16.7083 22.0869 17C21.7952 17.2708 21.5452 17.5938 21.3369 17.9688C21.1494 18.3229 21.0556 18.7188 21.0556 19.1562C21.0556 19.5938 21.1598 19.9792 21.3681 20.3125C21.5973 20.625 21.889 20.8854 22.2431 21.0938C22.6181 21.3021 23.014 21.4271 23.4306 21.4688C23.8681 21.5104 24.2952 21.4688 24.7119 21.3438C25.1077 21.1979 25.4827 20.9688 25.8369 20.6562C26.191 20.3229 26.4931 19.9688 26.7431 19.5938C26.9931 19.1979 27.1702 18.8125 27.2744 18.4375C27.3785 18.0417 27.389 17.7188 27.3056 17.4688C27.139 16.9271 26.764 16.5521 26.1806 16.3438C25.5973 16.1146 24.941 16.0208 24.2119 16.0625ZM35.0081 11.0312L40.7581 11.0938C40.4248 12.3646 40.1748 13.4479 40.0081 14.3438C39.8623 15.2396 39.7685 15.9896 39.7269 16.5938C39.6435 17.2812 39.6227 17.8646 39.6644 18.3438C39.7269 18.7812 39.831 19.25 39.9769 19.75C40.1019 20.1667 40.2894 20.6458 40.5394 21.1875C40.7894 21.7292 41.1227 22.2708 41.5394 22.8125C41.2894 22.7292 41.0185 22.6667 40.7269 22.625C40.4352 22.5833 40.1644 22.5521 39.9144 22.5312C39.6227 22.5104 39.331 22.5104 39.0394 22.5312C38.7477 22.5521 38.4248 22.5833 38.0706 22.625C37.779 22.6667 37.4248 22.7188 37.0081 22.7812C36.5915 22.8438 36.154 22.9271 35.6956 23.0312C36.0081 22.0938 36.2477 21.2812 36.4144 20.5938C36.6019 19.9062 36.7373 19.3333 36.8206 18.875C36.904 18.3333 36.956 17.8958 36.9769 17.5625C36.9769 17.1458 36.9769 16.6771 36.9769 16.1562C36.9769 15.6146 36.9769 15.0938 36.9769 14.5938C36.9769 14.0938 36.9665 13.6562 36.9456 13.2812C36.9248 12.8854 36.8831 12.6354 36.8206 12.5312L36.5081 12.2188C36.3831 12.1146 36.1956 11.9688 35.9456 11.7812C35.7165 11.5729 35.404 11.3229 35.0081 11.0312ZM37.2269 6.21875C37.6644 5.98958 38.1019 5.92708 38.5394 6.03125C38.9977 6.13542 39.3519 6.33333 39.6019 6.625C39.8519 6.91667 39.9352 7.26042 39.8519 7.65625C39.7894 8.05208 39.456 8.4375 38.8519 8.8125C38.2477 9.16667 37.7165 9.29167 37.2581 9.1875C36.7998 9.08333 36.4769 8.86458 36.2894 8.53125C36.1019 8.19792 36.0706 7.8125 36.1956 7.375C36.3206 6.91667 36.6644 6.53125 37.2269 6.21875ZM44.0231 25.875C44.2315 25.5625 44.3981 25.2708 44.5231 25C44.6481 24.7292 44.7523 24.5 44.8356 24.3125C44.919 24.0833 44.9815 23.875 45.0231 23.6875C45.044 23.5625 45.0544 23.1979 45.0544 22.5938C45.0544 21.9896 45.0335 21.2292 44.9919 20.3125C44.971 19.3958 44.9398 18.3646 44.8981 17.2188C44.8773 16.0729 44.8356 14.9062 44.7731 13.7188C44.7315 12.5312 44.6794 11.375 44.6169 10.25C44.5752 9.125 44.5335 8.11458 44.4919 7.21875C44.4502 6.30208 44.4085 5.55208 44.3669 4.96875C44.3252 4.38542 44.294 4.05208 44.2731 3.96875C44.2315 3.84375 44.1585 3.71875 44.0544 3.59375C43.846 3.34375 43.4919 3.10417 42.9919 2.875C44.0544 2.60417 44.8669 2.38542 45.4294 2.21875C45.7627 2.13542 46.0544 2.05208 46.3044 1.96875C46.5335 1.88542 46.7627 1.80208 46.9919 1.71875C47.1794 1.63542 47.3877 1.54167 47.6169 1.4375C47.846 1.3125 48.0544 1.17708 48.2419 1.03125C48.1377 1.63542 48.0544 2.21875 47.9919 2.78125C47.9294 3.34375 47.8773 3.86458 47.8356 4.34375C47.794 4.88542 47.7731 5.40625 47.7731 5.90625C47.669 6.92708 47.6065 8.04167 47.5856 9.25C47.5856 10.4375 47.596 11.6458 47.6169 12.875C47.6377 14.1042 47.6794 15.3021 47.7419 16.4688C47.8044 17.6354 47.8669 18.6979 47.9294 19.6562C48.0127 20.5938 48.0856 21.3958 48.1481 22.0625C48.2315 22.7083 48.294 23.125 48.3356 23.3125C48.419 23.625 48.5023 23.9271 48.5856 24.2188C48.669 24.4688 48.7627 24.7292 48.8669 25C48.971 25.2917 49.096 25.5208 49.2419 25.6875H46.2106C45.9398 25.6875 45.6794 25.6979 45.4294 25.7188C45.2002 25.7396 44.9606 25.7604 44.7106 25.7812C44.4606 25.8021 44.2315 25.8333 44.0231 25.875ZM59.1319 19.9688C59.7152 19.9688 60.2569 19.9062 60.7569 19.7812C61.1735 19.6771 61.5694 19.5104 61.9444 19.2812C62.3402 19.0312 62.6006 18.6667 62.7256 18.1875C63.1423 18.2708 63.4965 18.3438 63.7881 18.4062C64.0798 18.4479 64.3298 18.4896 64.5381 18.5312C64.7673 18.5938 64.9652 18.6354 65.1319 18.6562C65.2985 18.6979 65.4965 18.7396 65.7256 18.7812C65.934 18.8229 66.184 18.875 66.4756 18.9375C66.7881 18.9792 67.1527 19.0417 67.5694 19.125C67.2569 19.0833 66.934 19.1146 66.6006 19.2188C66.2881 19.3229 65.986 19.4375 65.6944 19.5625C65.361 19.7083 65.0485 19.8854 64.7569 20.0938C64.5694 20.2188 64.3506 20.4062 64.1006 20.6562C63.8715 20.9062 63.5381 21.1458 63.1006 21.375C62.6631 21.6042 62.0798 21.8021 61.3506 21.9688C60.6423 22.1146 59.7256 22.1667 58.6006 22.125C57.2465 22.0833 56.111 21.8438 55.1944 21.4062C54.2777 20.9479 53.5381 20.3958 52.9756 19.75C52.4131 19.0833 52.0069 18.3646 51.7569 17.5938C51.5069 16.8229 51.3715 16.1042 51.3506 15.4375C51.3298 14.7708 51.5277 14.0729 51.9444 13.3438C52.361 12.6146 52.9444 11.9479 53.6944 11.3438C54.4652 10.7396 55.3923 10.25 56.4756 9.875C57.559 9.47917 58.7465 9.28125 60.0381 9.28125C60.7881 9.28125 61.4756 9.375 62.1006 9.5625C62.7465 9.72917 63.3298 9.95833 63.8506 10.25C64.3923 10.5417 64.861 10.875 65.2569 11.25C65.6527 11.6042 65.986 11.9688 66.2569 12.3438C66.5277 12.7396 66.7569 13.1562 66.9444 13.5938C67.111 13.9688 67.2465 14.3958 67.3506 14.875C67.4548 15.3542 67.486 15.8438 67.4444 16.3438C65.861 16.3854 64.5798 16.4167 63.6006 16.4375C62.6423 16.4583 61.8923 16.4688 61.3506 16.4688H59.9444H58.8819C58.5069 16.4688 58.0173 16.4792 57.4131 16.5C56.809 16.5208 56.0694 16.5521 55.1944 16.5938C55.2985 17.4271 55.559 18.0729 55.9756 18.5312C56.4131 18.9688 56.8715 19.3021 57.3506 19.5312C57.8923 19.7812 58.486 19.9271 59.1319 19.9688ZM56.3194 14.3438C56.986 14.3854 57.5381 14.4167 57.9756 14.4375C58.434 14.4583 58.809 14.4792 59.1006 14.5C59.4131 14.5208 59.6631 14.5312 59.8506 14.5312H60.6319C61.1527 14.5312 62.1215 14.5 63.5381 14.4375C63.4756 13.5208 63.2777 12.8229 62.9444 12.3438C62.6319 11.8646 62.2985 11.5104 61.9444 11.2812C61.5277 11.0312 61.0694 10.8854 60.5694 10.8438C59.2152 10.8646 58.2048 11.1458 57.5381 11.6875C56.8923 12.2292 56.486 13.1146 56.3194 14.3438ZM84.6781 1.0625C85.074 1.08333 85.501 1.09375 85.9594 1.09375C86.3552 1.09375 86.8031 1.10417 87.3031 1.125C87.824 1.125 88.3656 1.10417 88.9281 1.0625C88.4281 1.29167 87.9906 1.625 87.6156 2.0625C87.2406 2.5 86.9385 2.9375 86.7094 3.375C86.4177 3.89583 86.1781 4.4375 85.9906 5C85.8865 5.33333 85.8031 5.92708 85.7406 6.78125C85.6781 7.61458 85.626 8.59375 85.5844 9.71875C85.5635 10.8438 85.5531 12.0312 85.5531 13.2812C85.5531 14.5312 85.5635 15.7292 85.5844 16.875C85.6052 18 85.6365 19 85.6781 19.875C85.7198 20.75 85.7719 21.3646 85.8344 21.7188C85.9177 22.1354 86.0219 22.5312 86.1469 22.9062C86.251 23.2396 86.3865 23.5833 86.5531 23.9375C86.7198 24.2708 86.9281 24.5417 87.1781 24.75L83.9906 26.1875C83.824 25.9583 83.6885 25.7188 83.5844 25.4688C83.4802 25.2396 83.3969 25.0312 83.3344 24.8438C83.251 24.6146 83.199 24.4062 83.1781 24.2188C83.1365 23.9688 83.0948 23.6979 83.0531 23.4062C83.0115 23.0938 82.9594 22.8021 82.8969 22.5312C82.8552 22.2396 82.824 22 82.8031 21.8125C82.7823 21.625 82.7823 21.5104 82.8031 21.4688C82.824 21.4271 82.699 21.6146 82.4281 22.0312C82.1573 22.4271 81.751 22.8958 81.2094 23.4375C80.6885 23.9583 80.0427 24.4688 79.2719 24.9688C78.501 25.4479 77.6365 25.75 76.6781 25.875C75.699 26 74.7927 25.8125 73.9594 25.3125C73.1469 24.8125 72.449 24.1146 71.8656 23.2188C71.2823 22.3021 70.8344 21.25 70.5219 20.0625C70.2302 18.8542 70.1156 17.625 70.1781 16.375C70.2198 15.5417 70.4073 14.8021 70.7406 14.1562C71.074 13.4896 71.4906 12.9167 71.9906 12.4375C72.5115 11.9375 73.074 11.5208 73.6781 11.1875C74.3031 10.8333 74.9073 10.5417 75.4906 10.3125C76.0948 10.0833 76.6573 9.91667 77.1781 9.8125C77.699 9.70833 78.1156 9.63542 78.4281 9.59375C78.8031 9.57292 79.2302 9.63542 79.7094 9.78125C80.126 9.90625 80.6052 10.1146 81.1469 10.4062C81.7094 10.6979 82.3344 11.1354 83.0219 11.7188C82.8969 9.63542 82.7823 7.96875 82.6781 6.71875C82.574 5.44792 82.4698 4.47917 82.3656 3.8125C82.2615 3.02083 82.1677 2.47917 82.0844 2.1875C81.9802 1.97917 81.8448 1.77083 81.6781 1.5625C81.5323 1.39583 81.3448 1.22917 81.1156 1.0625C80.9073 0.875 80.6573 0.729167 80.3656 0.625C80.9073 0.729167 81.4281 0.802083 81.9281 0.84375C82.4281 0.885417 82.8865 0.927083 83.3031 0.96875C83.7823 1.01042 84.2406 1.04167 84.6781 1.0625ZM76.8344 12.7188C76.4385 12.8646 76.1156 13.1146 75.8656 13.4688C75.6365 13.8229 75.449 14.25 75.3031 14.75C75.1573 15.2292 75.0531 15.75 74.9906 16.3125C74.949 16.8542 74.9177 17.3854 74.8969 17.9062C74.8969 18.4062 74.8969 18.8646 74.8969 19.2812C74.8969 19.6979 74.8969 20.0104 74.8969 20.2188C74.8969 20.3438 74.9177 20.5729 74.9594 20.9062C75.0219 21.2188 75.1469 21.5521 75.3344 21.9062C75.5219 22.2396 75.7823 22.5417 76.1156 22.8125C76.4698 23.0833 76.9385 23.2188 77.5219 23.2188C78.001 23.1771 78.5115 23.0104 79.0531 22.7188C79.5323 22.4688 80.074 22.0729 80.6781 21.5312C81.3031 20.9688 81.9698 20.1667 82.6781 19.125C82.6365 18.4583 82.6052 17.9062 82.5844 17.4688C82.5844 17.0312 82.574 16.6771 82.5531 16.4062C82.5323 16.0938 82.5219 15.8438 82.5219 15.6562V15.1875C82.5219 15.0625 82.5219 14.9271 82.5219 14.7812C82.5219 14.6354 82.5323 14.5 82.5531 14.375C81.9698 13.9583 81.449 13.6042 80.9906 13.3125C80.5531 13 80.1156 12.7708 79.6781 12.625C79.2615 12.4583 78.824 12.3854 78.3656 12.4062C77.9281 12.4062 77.4177 12.5104 76.8344 12.7188Z" fill="#F40E0E"/>
</svg>
