<svg width="157" height="22" viewBox="0 0 157 22" fill="none" xmlns="http://www.w3.org/2000/svg">
<path d="M0.66906 2.00781C1.12218 2.08594 1.52062 2.14062 1.86437 2.17188C2.22375 2.20313 2.52062 2.22656 2.755 2.24219C3.03625 2.25781 3.27843 2.26562 3.48156 2.26562C3.68468 2.26562 3.97375 2.25 4.34875 2.21875C4.66125 2.1875 5.0675 2.14844 5.5675 2.10156C6.08312 2.05469 6.71593 1.97656 7.46593 1.86719C7.24718 1.92969 7.04406 2.10938 6.85656 2.40625C6.68468 2.6875 6.52843 2.99219 6.38781 3.32031C6.21593 3.71094 6.0675 4.14062 5.9425 4.60938C5.83312 5.03125 5.6925 5.60938 5.52062 6.34375C5.36437 7.07812 5.20812 7.875 5.05187 8.73438C4.91125 9.59375 4.80187 10.4688 4.72375 11.3594C4.64562 12.2344 4.63 13.0391 4.67687 13.7734C4.73937 14.5078 4.88781 15.1172 5.12218 15.6016C5.35656 16.0703 5.71593 16.3203 6.20031 16.3516C6.93468 16.4141 7.54406 16.4219 8.02843 16.375C8.52843 16.3125 8.93468 16.2266 9.24718 16.1172C9.55968 16.0078 9.80187 15.8828 9.97375 15.7422C10.1456 15.5859 10.2784 15.4375 10.3722 15.2969C10.6222 14.9375 10.88 14.4766 11.1456 13.9141C11.4112 13.3516 11.6456 12.8125 11.8487 12.2969C12.0675 11.7812 12.2472 11.3438 12.3878 10.9844C12.5284 10.625 12.5987 10.4531 12.5987 10.4688C12.5987 10.5 12.5909 10.6797 12.5753 11.0078C12.5753 11.3203 12.5675 11.7031 12.5519 12.1562C12.5519 12.5938 12.5441 13.0547 12.5284 13.5391C12.5284 14.0234 12.5206 14.4375 12.505 14.7812C12.4894 15.0625 12.4737 15.375 12.4581 15.7188C12.4425 16.0156 12.4269 16.3672 12.4112 16.7734C12.4112 17.1797 12.3956 17.625 12.3644 18.1094C11.7081 18.0625 11.0831 18.0312 10.4894 18.0156C9.89562 18 9.37218 17.9922 8.91906 17.9922C8.38781 17.9922 7.89562 18 7.4425 18.0156C6.95812 18.0312 6.39562 18.0547 5.755 18.0859C5.20812 18.1172 4.52843 18.1562 3.71593 18.2031C2.90343 18.2344 1.96593 18.2812 0.903435 18.3438C1.02843 18.125 1.13 17.9219 1.20812 17.7344C1.30187 17.5469 1.37218 17.3906 1.41906 17.2656C1.48156 17.1094 1.52062 16.9766 1.53625 16.8672C1.63 16.3672 1.70812 15.7344 1.77062 14.9688C1.83312 14.1875 1.88 13.3594 1.91125 12.4844C1.95812 11.6094 1.98156 10.7188 1.98156 9.8125C1.99718 8.89062 1.99718 8.03906 1.98156 7.25781C1.96593 6.47656 1.93468 5.79688 1.88781 5.21875C1.85656 4.64062 1.80968 4.24219 1.74718 4.02344C1.66906 3.77344 1.57531 3.52344 1.46593 3.27344C1.37218 3.05469 1.255 2.83594 1.11437 2.61719C0.989372 2.38281 0.840935 2.17969 0.66906 2.00781ZM20.6725 8.5C21.0787 8.5 21.5006 8.57812 21.9381 8.73438C22.3756 8.875 22.7975 9.0625 23.2037 9.29688C23.61 9.51562 23.9772 9.75781 24.3053 10.0234C24.6491 10.2734 24.9303 10.5156 25.1491 10.75C25.5397 11.1719 25.8053 11.7422 25.9459 12.4609C26.1022 13.1641 26.1334 13.8906 26.0397 14.6406C25.9459 15.375 25.7272 16.0703 25.3834 16.7266C25.0397 17.3828 24.5631 17.8672 23.9537 18.1797C23.5162 18.3984 23.0866 18.5703 22.6647 18.6953C22.2428 18.8203 21.8366 18.9141 21.4459 18.9766C21.0553 19.0391 20.6881 19.0703 20.3444 19.0703C20.0006 19.0703 19.7037 19.0625 19.4537 19.0469C18.985 19.0156 18.4928 18.8516 17.9772 18.5547C17.4772 18.2578 17.0006 17.8906 16.5475 17.4531C16.11 17.0156 15.735 16.5391 15.4225 16.0234C15.11 15.4922 14.9225 14.9922 14.86 14.5234C14.7662 13.8828 14.7506 13.2109 14.8131 12.5078C14.8756 11.8047 15.1022 11.1562 15.4928 10.5625C15.8991 9.96875 16.5084 9.47656 17.3209 9.08594C18.1491 8.69531 19.2662 8.5 20.6725 8.5ZM19.8991 17.5938C20.0709 17.625 20.3053 17.5859 20.6022 17.4766C20.8991 17.3516 21.1881 17.1562 21.4694 16.8906C21.7662 16.625 22.0241 16.2891 22.2428 15.8828C22.4772 15.4609 22.6178 14.9531 22.6647 14.3594C22.7116 13.7812 22.7116 13.25 22.6647 12.7656C22.6334 12.2812 22.5631 11.8594 22.4537 11.5C22.3444 11.125 22.2194 10.8203 22.0787 10.5859C21.9381 10.3516 21.7897 10.1875 21.6334 10.0938C21.3678 9.95312 21.0475 9.84375 20.6725 9.76562C20.2975 9.67188 19.9772 9.6875 19.7116 9.8125C19.5866 9.875 19.4303 10.0078 19.2428 10.2109C19.0553 10.4141 18.8678 10.6719 18.6803 10.9844C18.4928 11.2812 18.3209 11.625 18.1647 12.0156C18.0241 12.4062 17.9225 12.8125 17.86 13.2344C17.7975 13.6562 17.7819 14.1094 17.8131 14.5938C17.86 15.0781 17.9616 15.5391 18.1178 15.9766C18.2741 16.3984 18.4928 16.7656 18.7741 17.0781C19.0709 17.375 19.4459 17.5469 19.8991 17.5938ZM33.9259 8.5C34.3322 8.5 34.7541 8.57812 35.1916 8.73438C35.6291 8.875 36.0509 9.0625 36.4572 9.29688C36.8634 9.51562 37.2306 9.75781 37.5587 10.0234C37.9025 10.2734 38.1837 10.5156 38.4025 10.75C38.7931 11.1719 39.0587 11.7422 39.1994 12.4609C39.3556 13.1641 39.3869 13.8906 39.2931 14.6406C39.1994 15.375 38.9806 16.0703 38.6369 16.7266C38.2931 17.3828 37.8166 17.8672 37.2072 18.1797C36.7697 18.3984 36.34 18.5703 35.9181 18.6953C35.4962 18.8203 35.09 18.9141 34.6994 18.9766C34.3087 19.0391 33.9416 19.0703 33.5978 19.0703C33.2541 19.0703 32.9572 19.0625 32.7072 19.0469C32.2384 19.0156 31.7462 18.8516 31.2306 18.5547C30.7306 18.2578 30.2541 17.8906 29.8009 17.4531C29.3634 17.0156 28.9884 16.5391 28.6759 16.0234C28.3634 15.4922 28.1759 14.9922 28.1134 14.5234C28.0197 13.8828 28.0041 13.2109 28.0666 12.5078C28.1291 11.8047 28.3556 11.1562 28.7462 10.5625C29.1525 9.96875 29.7619 9.47656 30.5744 9.08594C31.4025 8.69531 32.5197 8.5 33.9259 8.5ZM33.1525 17.5938C33.3244 17.625 33.5587 17.5859 33.8556 17.4766C34.1525 17.3516 34.4416 17.1562 34.7228 16.8906C35.0197 16.625 35.2775 16.2891 35.4962 15.8828C35.7306 15.4609 35.8712 14.9531 35.9181 14.3594C35.965 13.7812 35.965 13.25 35.9181 12.7656C35.8869 12.2812 35.8166 11.8594 35.7072 11.5C35.5978 11.125 35.4728 10.8203 35.3322 10.5859C35.1916 10.3516 35.0431 10.1875 34.8869 10.0938C34.6212 9.95312 34.3009 9.84375 33.9259 9.76562C33.5509 9.67188 33.2306 9.6875 32.965 9.8125C32.84 9.875 32.6837 10.0078 32.4962 10.2109C32.3087 10.4141 32.1212 10.6719 31.9337 10.9844C31.7462 11.2812 31.5744 11.625 31.4181 12.0156C31.2775 12.4062 31.1759 12.8125 31.1134 13.2344C31.0509 13.6562 31.0353 14.1094 31.0666 14.5938C31.1134 15.0781 31.215 15.5391 31.3712 15.9766C31.5275 16.3984 31.7462 16.7656 32.0275 17.0781C32.3244 17.375 32.6994 17.5469 33.1525 17.5938ZM40.6637 2.10156C40.8356 2.17969 41.0387 2.23437 41.2731 2.26562C41.5231 2.29688 41.7575 2.3125 41.9762 2.3125C42.2419 2.3125 42.5153 2.30469 42.7966 2.28906C43.0778 2.27344 43.4216 2.24219 43.8278 2.19531C44.1559 2.16406 44.5622 2.125 45.0466 2.07812C45.5309 2.03125 46.07 1.96875 46.6637 1.89062C46.445 2 46.2575 2.11719 46.1012 2.24219C45.945 2.36719 45.8122 2.49219 45.7028 2.61719C45.5778 2.75781 45.4762 2.89844 45.3981 3.03906C45.2887 3.22656 45.1403 3.55469 44.9528 4.02344C44.7809 4.47656 44.6012 4.98438 44.4137 5.54688C44.2419 6.10938 44.0856 6.67969 43.945 7.25781C43.82 7.83594 43.7497 8.32812 43.7341 8.73438C43.7184 9.07812 43.7028 9.46875 43.6872 9.90625C43.6716 10.2812 43.6559 10.7422 43.6403 11.2891C43.6247 11.8359 43.6091 12.4609 43.5934 13.1641C44.7184 12.3516 45.5856 11.7031 46.195 11.2188C46.8044 10.7188 47.2497 10.3359 47.5309 10.0703C47.8591 9.77344 48.0544 9.5625 48.1169 9.4375C48.1012 9.34375 48.0622 9.24219 47.9997 9.13281C47.9216 9.03906 47.8122 8.92969 47.6716 8.80469C47.5309 8.67969 47.32 8.53906 47.0387 8.38281C47.445 8.42969 47.7966 8.46094 48.0934 8.47656C48.4059 8.49219 48.6716 8.50781 48.8903 8.52344C49.1403 8.53906 49.3591 8.53906 49.5466 8.52344C49.7497 8.52344 49.9997 8.51562 50.2966 8.5C50.8122 8.48438 51.6091 8.46094 52.6872 8.42969C51.6403 8.97656 50.8122 9.44531 50.2028 9.83594C49.8591 10.0547 49.5544 10.2578 49.2887 10.4453C49.0231 10.6484 48.7497 10.8594 48.4684 11.0781C48.2184 11.2656 47.9294 11.4844 47.6012 11.7344C47.2887 11.9844 46.9762 12.25 46.6637 12.5312C47.2106 13.4219 47.6872 14.1562 48.0934 14.7344C48.5153 15.3125 48.8669 15.7812 49.1481 16.1406C49.4762 16.5625 49.7653 16.8984 50.0153 17.1484C50.2653 17.3828 50.5934 17.6484 50.9997 17.9453C51.3434 18.2109 51.7887 18.5234 52.3356 18.8828C52.8981 19.2266 53.5778 19.625 54.3747 20.0781C53.9684 20 53.5778 19.9453 53.2028 19.9141C52.8278 19.8984 52.5075 19.8984 52.2419 19.9141C51.9137 19.9297 51.6169 19.9609 51.3512 20.0078C51.07 20.0703 50.7575 20.1484 50.4137 20.2422C50.1169 20.3203 49.7653 20.4219 49.3591 20.5469C48.9684 20.6875 48.5387 20.8672 48.07 21.0859C48.3669 20.8672 48.5856 20.6562 48.7262 20.4531C48.8825 20.2656 48.9919 20.1094 49.0544 19.9844C49.1169 19.8281 49.1403 19.6953 49.1247 19.5859C49.0466 19.4297 48.8669 19.1094 48.5856 18.625C48.32 18.2188 47.9294 17.625 47.4137 16.8438C46.8981 16.0625 46.1637 15 45.2106 13.6562C45.1637 13.6719 45.0856 13.7188 44.9762 13.7969C44.8825 13.875 44.7419 13.9844 44.5544 14.125C44.3669 14.25 44.1169 14.4375 43.8044 14.6875L44.4372 18.7891C44.2966 18.8516 44.1403 18.9062 43.9684 18.9531C43.8122 19 43.6637 19.0391 43.5231 19.0703C43.3512 19.1172 43.1794 19.1484 43.0075 19.1641C42.8356 19.1797 42.6325 19.2109 42.3981 19.2578C42.195 19.2891 41.9528 19.3281 41.6716 19.375C41.3903 19.4375 41.07 19.5078 40.7106 19.5859C40.9137 19.4453 41.0778 19.2812 41.2028 19.0938C41.3278 18.9219 41.4294 18.7578 41.5075 18.6016C41.5856 18.4297 41.6559 18.25 41.7184 18.0625C41.7497 17.9062 41.7809 17.5 41.8122 16.8438C41.8591 16.1875 41.8981 15.4062 41.9294 14.5C41.9606 13.5781 41.9841 12.5938 41.9997 11.5469C42.0309 10.5 42.0466 9.51562 42.0466 8.59375C42.0466 7.65625 42.0387 6.84375 42.0231 6.15625C42.0075 5.45312 41.9762 5 41.9294 4.79688C41.8512 4.54688 41.7575 4.28125 41.6481 4C41.5544 3.75 41.4216 3.46875 41.2497 3.15625C41.0934 2.82812 40.8981 2.47656 40.6637 2.10156ZM62.2487 9.50781C62.3269 9.41406 62.3737 9.24219 62.3894 8.99219C62.4206 8.72656 62.4831 8.42969 62.5769 8.10156C62.6862 7.77344 62.8659 7.42969 63.1159 7.07031C63.3659 6.71094 63.7722 6.375 64.3347 6.0625C64.8816 5.75 65.4128 5.5625 65.9284 5.5C66.4441 5.4375 66.9362 5.46094 67.405 5.57031C67.8737 5.67969 68.3112 5.85156 68.7175 6.08594C69.1394 6.32031 69.5222 6.57812 69.8659 6.85938C70.1003 7.04688 70.2878 7.32031 70.4284 7.67969C70.5691 8.02344 70.6784 8.41406 70.7566 8.85156C70.8347 9.28906 70.8894 9.75 70.9206 10.2344C70.9675 10.7031 70.9987 11.1641 71.0144 11.6172C71.03 12.0547 71.0378 12.4609 71.0378 12.8359C71.0534 13.1953 71.0847 13.4922 71.1316 13.7266C71.1941 14.0703 71.3034 14.3672 71.4597 14.6172C71.6159 14.8516 71.7878 15.0547 71.9753 15.2266C72.1628 15.3828 72.3503 15.5078 72.5378 15.6016C72.7253 15.6953 72.8894 15.7656 73.03 15.8125C73.1237 15.8594 73.2097 15.8906 73.2878 15.9062C73.4441 15.9688 73.5534 15.9688 73.6159 15.9062C73.5222 16.125 73.4362 16.3125 73.3581 16.4688C73.28 16.625 73.2175 16.7578 73.1706 16.8672C73.1081 16.9922 73.0534 17.0938 73.0066 17.1719C72.9597 17.2656 72.905 17.3516 72.8425 17.4297C72.7956 17.5078 72.7331 17.5938 72.655 17.6875C72.5769 17.7812 72.4987 17.8828 72.4206 17.9922C72.2175 17.9141 72.0222 17.8203 71.8347 17.7109C71.6628 17.6016 71.5066 17.5 71.3659 17.4062C71.1941 17.2969 71.0378 17.1875 70.8972 17.0781C70.7566 16.9688 70.6237 16.8438 70.4987 16.7031C70.3894 16.5781 70.2722 16.4453 70.1472 16.3047C70.0378 16.1641 69.9441 16.0078 69.8659 15.8359C69.7722 16.0391 69.5456 16.3281 69.1862 16.7031C68.8425 17.0781 68.3894 17.4219 67.8269 17.7344C67.2644 18.0312 66.6081 18.2422 65.8581 18.3672C65.1237 18.4922 64.3112 18.4062 63.4206 18.1094C63.03 17.9844 62.6628 17.8047 62.3191 17.5703C61.9753 17.3203 61.6784 17.0234 61.4284 16.6797C61.1941 16.3359 61.0222 15.9453 60.9128 15.5078C60.8191 15.0547 60.8269 14.5547 60.9362 14.0078C61.0456 13.4609 61.2409 13 61.5222 12.625C61.8034 12.25 62.1394 11.9453 62.53 11.7109C62.9206 11.4766 63.3581 11.2969 63.8425 11.1719C64.3269 11.0469 64.8269 10.9609 65.3425 10.9141C65.7487 10.8984 66.155 10.9219 66.5612 10.9844C66.905 11.0469 67.2644 11.1641 67.6394 11.3359C68.0144 11.4922 68.3347 11.7344 68.6003 12.0625C68.5847 11.2344 68.5534 10.5781 68.5066 10.0938C68.4753 9.59375 68.4441 9.21094 68.4128 8.94531C68.3503 8.63281 68.2956 8.41406 68.2487 8.28906C68.1706 8.17969 68.0847 8.05469 67.9909 7.91406C67.9128 7.77344 67.8112 7.64844 67.6862 7.53906C67.5612 7.41406 67.405 7.3125 67.2175 7.23438C67.03 7.15625 66.8112 7.125 66.5612 7.14062C66.2956 7.15625 66.0847 7.22656 65.9284 7.35156C65.7722 7.47656 65.6472 7.625 65.5534 7.79688C65.4753 7.95312 65.4284 8.125 65.4128 8.3125C65.3972 8.5 65.405 8.66406 65.4362 8.80469C65.4675 8.89844 65.5144 9 65.5769 9.10938C65.6394 9.20312 65.7253 9.30469 65.8347 9.41406C65.9441 9.52344 66.0925 9.61719 66.28 9.69531C65.9206 9.74219 65.6003 9.78125 65.3191 9.8125C65.0378 9.82812 64.7956 9.85156 64.5925 9.88281C64.3581 9.91406 64.155 9.9375 63.9831 9.95312C63.8112 9.96875 63.6081 10 63.3737 10.0469C63.1706 10.0781 62.9206 10.1172 62.6237 10.1641C62.3269 10.2109 61.9831 10.2734 61.5925 10.3516C61.6862 10.2422 61.7722 10.1406 61.8503 10.0469C61.9284 9.9375 61.9987 9.84375 62.0612 9.76562C62.1237 9.67188 62.1862 9.58594 62.2487 9.50781ZM65.7644 12.2969C65.4831 12.3125 65.2019 12.3828 64.9206 12.5078C64.6394 12.6172 64.3894 12.7812 64.1706 13C63.9519 13.2031 63.7644 13.4453 63.6081 13.7266C63.4675 13.9922 63.3972 14.2891 63.3972 14.6172C63.3972 14.9453 63.4753 15.2344 63.6316 15.4844C63.8034 15.7188 64.0222 15.9141 64.2878 16.0703C64.5691 16.2266 64.8659 16.3203 65.1784 16.3516C65.5066 16.3828 65.8269 16.3516 66.1394 16.2578C66.4362 16.1484 66.7175 15.9766 66.9831 15.7422C67.2487 15.4922 67.4753 15.2266 67.6628 14.9453C67.8503 14.6484 67.9831 14.3594 68.0612 14.0781C68.1394 13.7812 68.1472 13.5391 68.0847 13.3516C67.9597 12.9453 67.6784 12.6641 67.2409 12.5078C66.8034 12.3359 66.3112 12.2656 65.7644 12.2969ZM73.6272 7.77344C73.9241 7.78906 74.1897 7.79688 74.4241 7.79688C74.6741 7.78125 74.885 7.76562 75.0569 7.75C75.26 7.73438 75.4397 7.71875 75.5959 7.70312C75.8303 7.67188 76.0725 7.63281 76.3225 7.58594C76.5412 7.55469 76.7678 7.51562 77.0022 7.46875C77.2522 7.40625 77.4944 7.33594 77.7287 7.25781C77.635 7.49219 77.5569 7.69531 77.4944 7.86719C77.4319 8.03906 77.385 8.1875 77.3537 8.3125C77.3069 8.45312 77.2834 8.57031 77.2834 8.66406C77.2678 8.77344 77.26 8.90625 77.26 9.0625C77.2444 9.32812 77.2444 9.75781 77.26 10.3516C78.0725 9.64844 78.7522 9.10156 79.2991 8.71094C79.8616 8.32031 80.3069 8.01562 80.635 7.79688C81.0256 7.54688 81.3303 7.38281 81.5491 7.30469C82.1272 7.21094 82.635 7.34375 83.0725 7.70312C83.26 7.85938 83.4397 8.07031 83.6116 8.33594C83.7834 8.58594 83.9319 8.92188 84.0569 9.34375C84.1819 9.76562 84.2756 10.2734 84.3381 10.8672C84.4006 11.4453 84.4084 12.1406 84.3616 12.9531C84.0334 12.9844 83.7366 13.0156 83.4709 13.0469C83.2209 13.0781 83.01 13.1016 82.8381 13.1172C82.635 13.1484 82.4475 13.1641 82.2756 13.1641L81.6428 13.2344C81.4241 13.2656 81.1506 13.2969 80.8225 13.3281C80.51 13.3438 80.1272 13.375 79.6741 13.4219C80.3303 12.8906 80.7522 12.4297 80.9397 12.0391C81.1428 11.6328 81.2287 11.2969 81.1975 11.0312C81.1662 10.7344 81.0256 10.4766 80.7756 10.2578C80.4787 10.0859 80.1584 10.0234 79.8147 10.0703C79.5178 10.1016 79.1741 10.2344 78.7834 10.4688C78.3928 10.7031 77.9787 11.1406 77.5412 11.7812C77.5725 12.7812 77.6037 13.6094 77.635 14.2656C77.6819 14.9219 77.7209 15.4531 77.7522 15.8594C77.7991 16.3281 77.8381 16.6953 77.8694 16.9609C77.9162 17.1953 78.01 17.4453 78.1506 17.7109C78.26 17.9297 78.4162 18.1719 78.6194 18.4375C78.8225 18.7031 79.0881 18.9688 79.4162 19.2344C78.7287 19.2031 78.1662 19.2031 77.7287 19.2344C77.4631 19.25 77.2287 19.2656 77.0256 19.2812C76.8069 19.3125 76.5725 19.3438 76.3225 19.375C76.1037 19.4062 75.8459 19.4375 75.5491 19.4688C75.2678 19.5156 74.9553 19.5625 74.6116 19.6094C74.7366 19.4375 74.8381 19.2344 74.9162 19C74.9944 18.7812 75.0569 18.5703 75.1037 18.3672C75.1662 18.1328 75.2131 17.8906 75.2444 17.6406C75.26 17.4219 75.2678 17.0938 75.2678 16.6562C75.2834 16.2188 75.2756 15.7266 75.2444 15.1797C75.2287 14.6172 75.2053 14.0391 75.1741 13.4453C75.1428 12.8359 75.1037 12.2656 75.0569 11.7344C75.01 11.2031 74.9553 10.7422 74.8928 10.3516C74.8459 9.94531 74.7912 9.66406 74.7287 9.50781C74.6506 9.32031 74.5569 9.13281 74.4475 8.94531C74.3537 8.77344 74.2366 8.59375 74.0959 8.40625C73.9553 8.20312 73.7991 7.99219 73.6272 7.77344ZM92.1072 8.5C92.5134 8.5 92.9353 8.57812 93.3728 8.73438C93.8103 8.875 94.2322 9.0625 94.6384 9.29688C95.0447 9.51562 95.4119 9.75781 95.74 10.0234C96.0837 10.2734 96.365 10.5156 96.5837 10.75C96.9744 11.1719 97.24 11.7422 97.3806 12.4609C97.5369 13.1641 97.5681 13.8906 97.4744 14.6406C97.3806 15.375 97.1619 16.0703 96.8181 16.7266C96.4744 17.3828 95.9978 17.8672 95.3884 18.1797C94.9509 18.3984 94.5212 18.5703 94.0994 18.6953C93.6775 18.8203 93.2712 18.9141 92.8806 18.9766C92.49 19.0391 92.1228 19.0703 91.7791 19.0703C91.4353 19.0703 91.1384 19.0625 90.8884 19.0469C90.4197 19.0156 89.9275 18.8516 89.4119 18.5547C88.9119 18.2578 88.4353 17.8906 87.9822 17.4531C87.5447 17.0156 87.1697 16.5391 86.8572 16.0234C86.5447 15.4922 86.3572 14.9922 86.2947 14.5234C86.2009 13.8828 86.1853 13.2109 86.2478 12.5078C86.3103 11.8047 86.5369 11.1562 86.9275 10.5625C87.3337 9.96875 87.9431 9.47656 88.7556 9.08594C89.5837 8.69531 90.7009 8.5 92.1072 8.5ZM91.3337 17.5938C91.5056 17.625 91.74 17.5859 92.0369 17.4766C92.3337 17.3516 92.6228 17.1562 92.9041 16.8906C93.2009 16.625 93.4587 16.2891 93.6775 15.8828C93.9119 15.4609 94.0525 14.9531 94.0994 14.3594C94.1462 13.7812 94.1462 13.25 94.0994 12.7656C94.0681 12.2812 93.9978 11.8594 93.8884 11.5C93.7791 11.125 93.6541 10.8203 93.5134 10.5859C93.3728 10.3516 93.2244 10.1875 93.0681 10.0938C92.8025 9.95312 92.4822 9.84375 92.1072 9.76562C91.7322 9.67188 91.4119 9.6875 91.1462 9.8125C91.0212 9.875 90.865 10.0078 90.6775 10.2109C90.49 10.4141 90.3025 10.6719 90.115 10.9844C89.9275 11.2812 89.7556 11.625 89.5994 12.0156C89.4587 12.4062 89.3572 12.8125 89.2947 13.2344C89.2322 13.6562 89.2166 14.1094 89.2478 14.5938C89.2947 15.0781 89.3962 15.5391 89.5525 15.9766C89.7087 16.3984 89.9275 16.7656 90.2087 17.0781C90.5056 17.375 90.8806 17.5469 91.3337 17.5938ZM99.1966 8.21875C99.6028 8.29688 99.9544 8.35938 100.251 8.40625C100.564 8.4375 100.829 8.46875 101.048 8.5C101.298 8.53125 101.517 8.55469 101.704 8.57031C101.892 8.58594 102.111 8.60156 102.361 8.61719C102.782 8.63281 103.376 8.63281 104.142 8.61719C103.689 8.58594 103.329 8.70312 103.064 8.96875C102.814 9.21875 102.626 9.50781 102.501 9.83594C102.345 10.2266 102.259 10.6797 102.243 11.1953C102.212 11.8828 102.228 12.5078 102.29 13.0703C102.368 13.6172 102.501 14.0859 102.689 14.4766C102.892 14.8516 103.157 15.1328 103.486 15.3203C103.814 15.4922 104.236 15.5391 104.751 15.4609C105.267 15.3828 105.657 15.2031 105.923 14.9219C106.204 14.625 106.407 14.2656 106.532 13.8438C106.657 13.4062 106.728 12.9141 106.743 12.3672C106.775 11.8203 106.798 11.25 106.814 10.6562C106.814 10.0625 106.806 9.64062 106.79 9.39062C106.79 9.125 106.782 8.95312 106.767 8.875C106.751 8.79688 106.728 8.76562 106.697 8.78125C106.665 8.78125 106.626 8.74219 106.579 8.66406C106.548 8.60156 106.501 8.53906 106.439 8.47656C106.392 8.41406 106.329 8.34375 106.251 8.26562C106.173 8.17188 106.087 8.07812 105.993 7.98438C106.4 8 106.759 8.01562 107.072 8.03125C107.4 8.03125 107.673 8.03906 107.892 8.05469C108.142 8.07031 108.361 8.08594 108.548 8.10156C108.72 8.11719 108.947 8.14062 109.228 8.17188C109.462 8.20312 109.767 8.23438 110.142 8.26562C110.517 8.29688 110.962 8.34375 111.478 8.40625C111.118 8.48438 110.829 8.60156 110.611 8.75781C110.392 8.91406 110.22 9.07031 110.095 9.22656C109.954 9.39844 109.853 9.58594 109.79 9.78906C109.743 10.0547 109.743 10.4609 109.79 11.0078C109.822 11.4922 109.9 12.1562 110.025 13C110.15 13.8438 110.345 14.9531 110.611 16.3281L108.759 17.4297L108.384 14.3125C107.931 15.0781 107.447 15.6719 106.931 16.0938C106.431 16.5 105.962 16.7969 105.525 16.9844C105.009 17.2031 104.509 17.3281 104.025 17.3594C103.384 17.3594 102.829 17.3203 102.361 17.2422C101.907 17.1484 101.517 17.0312 101.189 16.8906C100.861 16.75 100.595 16.5938 100.392 16.4219C100.204 16.2344 100.064 16.0469 99.97 15.8594C99.7512 15.4688 99.6341 14.9688 99.6184 14.3594C99.6028 13.7344 99.6262 13.1172 99.6887 12.5078C99.7512 11.8828 99.8216 11.3125 99.8997 10.7969C99.9778 10.2812 100.001 9.92969 99.97 9.74219C99.9387 9.60156 99.8919 9.44531 99.8294 9.27344C99.7669 9.13281 99.6887 8.97656 99.595 8.80469C99.5012 8.61719 99.3684 8.42188 99.1966 8.21875ZM113.036 16.4219C113.145 15.9062 113.223 15.4531 113.27 15.0625C113.333 14.6562 113.38 14.3203 113.411 14.0547C113.442 13.7422 113.458 13.4766 113.458 13.2578C113.442 12.9922 113.427 12.6797 113.411 12.3203C113.411 11.9453 113.395 11.5781 113.364 11.2188C113.348 10.8438 113.325 10.5156 113.294 10.2344C113.262 9.9375 113.223 9.72656 113.177 9.60156C113.114 9.47656 113.028 9.34375 112.919 9.20312C112.7 8.9375 112.38 8.67969 111.958 8.42969C112.317 8.35156 112.622 8.28906 112.872 8.24219C113.137 8.17969 113.356 8.125 113.528 8.07812C113.716 8.01562 113.88 7.96094 114.02 7.91406C114.145 7.86719 114.294 7.82031 114.466 7.77344C114.606 7.74219 114.778 7.70312 114.981 7.65625C115.184 7.60938 115.419 7.55469 115.684 7.49219L115.614 9.625C116.114 9.03125 116.622 8.58594 117.137 8.28906C117.653 7.99219 118.137 7.78125 118.591 7.65625C119.106 7.5 119.614 7.42188 120.114 7.42188C120.739 7.45312 121.317 7.55469 121.848 7.72656C122.395 7.89844 122.864 8.10156 123.255 8.33594C123.661 8.55469 123.989 8.78906 124.239 9.03906C124.489 9.28906 124.637 9.50781 124.684 9.69531C124.872 10.3047 124.919 10.8672 124.825 11.3828C124.731 11.8828 124.606 12.375 124.45 12.8594C124.309 13.3281 124.184 13.7969 124.075 14.2656C123.981 14.7344 124.02 15.2422 124.192 15.7891C124.255 15.9297 124.317 16.0703 124.38 16.2109C124.442 16.3359 124.52 16.4609 124.614 16.5859C124.708 16.7109 124.817 16.8125 124.942 16.8906C124.77 16.875 124.598 16.8672 124.427 16.8672C124.255 16.8516 124.098 16.8359 123.958 16.8203C123.786 16.8047 123.63 16.7891 123.489 16.7734C123.333 16.7578 123.122 16.75 122.856 16.75C122.403 16.75 121.7 16.7734 120.747 16.8203C120.887 16.4922 120.997 16.2188 121.075 16C121.169 15.7656 121.247 15.5781 121.309 15.4375C121.372 15.2656 121.419 15.1328 121.45 15.0391C121.637 14.5859 121.747 14.0703 121.778 13.4922C121.825 12.9141 121.786 12.3281 121.661 11.7344C121.614 11.5312 121.536 11.2891 121.427 11.0078C121.317 10.7266 121.169 10.4531 120.981 10.1875C120.809 9.92188 120.598 9.69531 120.348 9.50781C120.114 9.32031 119.841 9.21094 119.528 9.17969C119.216 9.14844 118.864 9.22656 118.473 9.41406C118.098 9.60156 117.692 9.94531 117.255 10.4453C116.927 10.8672 116.669 11.3828 116.481 11.9922C116.309 12.5078 116.192 13.1562 116.13 13.9375C116.067 14.7031 116.161 15.6016 116.411 16.6328C116.192 16.6016 115.989 16.5859 115.802 16.5859C115.614 16.5703 115.458 16.5547 115.333 16.5391C115.177 16.5234 115.036 16.5078 114.911 16.4922C114.77 16.4922 114.614 16.4844 114.442 16.4688C114.286 16.4688 114.091 16.4688 113.856 16.4688C113.622 16.4531 113.348 16.4375 113.036 16.4219ZM138.125 1.04688C138.422 1.0625 138.743 1.07031 139.086 1.07031C139.383 1.07031 139.719 1.07813 140.094 1.09375C140.485 1.09375 140.891 1.07813 141.313 1.04688C140.938 1.21875 140.61 1.46875 140.328 1.79688C140.047 2.125 139.821 2.45312 139.649 2.78125C139.43 3.17187 139.25 3.57812 139.11 4C139.032 4.25 138.969 4.69531 138.922 5.33594C138.875 5.96094 138.836 6.69531 138.805 7.53906C138.789 8.38281 138.782 9.27344 138.782 10.2109C138.782 11.1484 138.789 12.0469 138.805 12.9062C138.821 13.75 138.844 14.5 138.875 15.1562C138.907 15.8125 138.946 16.2734 138.993 16.5391C139.055 16.8516 139.133 17.1484 139.227 17.4297C139.305 17.6797 139.407 17.9375 139.532 18.2031C139.657 18.4531 139.813 18.6562 140 18.8125L137.61 19.8906C137.485 19.7188 137.383 19.5391 137.305 19.3516C137.227 19.1797 137.164 19.0234 137.118 18.8828C137.055 18.7109 137.016 18.5547 137 18.4141C136.969 18.2266 136.938 18.0234 136.907 17.8047C136.875 17.5703 136.836 17.3516 136.789 17.1484C136.758 16.9297 136.735 16.75 136.719 16.6094C136.703 16.4688 136.703 16.3828 136.719 16.3516C136.735 16.3203 136.641 16.4609 136.438 16.7734C136.235 17.0703 135.93 17.4219 135.524 17.8281C135.133 18.2188 134.649 18.6016 134.071 18.9766C133.493 19.3359 132.844 19.5625 132.125 19.6562C131.391 19.75 130.711 19.6094 130.086 19.2344C129.477 18.8594 128.953 18.3359 128.516 17.6641C128.078 16.9766 127.743 16.1875 127.508 15.2969C127.289 14.3906 127.203 13.4688 127.25 12.5312C127.282 11.9062 127.422 11.3516 127.672 10.8672C127.922 10.3672 128.235 9.9375 128.61 9.57812C129 9.20312 129.422 8.89062 129.875 8.64062C130.344 8.375 130.797 8.15625 131.235 7.98438C131.688 7.8125 132.11 7.6875 132.5 7.60938C132.891 7.53125 133.203 7.47656 133.438 7.44531C133.719 7.42969 134.039 7.47656 134.399 7.58594C134.711 7.67969 135.071 7.83594 135.477 8.05469C135.899 8.27344 136.368 8.60156 136.883 9.03906C136.789 7.47656 136.703 6.22656 136.625 5.28906C136.547 4.33594 136.469 3.60938 136.391 3.10938C136.313 2.51562 136.243 2.10938 136.18 1.89062C136.102 1.73438 136 1.57812 135.875 1.42188C135.766 1.29687 135.625 1.17188 135.453 1.04688C135.297 0.90625 135.11 0.796875 134.891 0.71875C135.297 0.796875 135.688 0.851562 136.063 0.882812C136.438 0.914063 136.782 0.945312 137.094 0.976562C137.453 1.00781 137.797 1.03125 138.125 1.04688ZM132.243 9.78906C131.946 9.89844 131.703 10.0859 131.516 10.3516C131.344 10.6172 131.203 10.9375 131.094 11.3125C130.985 11.6719 130.907 12.0625 130.86 12.4844C130.828 12.8906 130.805 13.2891 130.789 13.6797C130.789 14.0547 130.789 14.3984 130.789 14.7109C130.789 15.0234 130.789 15.2578 130.789 15.4141C130.789 15.5078 130.805 15.6797 130.836 15.9297C130.883 16.1641 130.977 16.4141 131.118 16.6797C131.258 16.9297 131.453 17.1562 131.703 17.3594C131.969 17.5625 132.321 17.6641 132.758 17.6641C133.118 17.6328 133.5 17.5078 133.907 17.2891C134.266 17.1016 134.672 16.8047 135.125 16.3984C135.594 15.9766 136.094 15.375 136.625 14.5938C136.594 14.0938 136.571 13.6797 136.555 13.3516C136.555 13.0234 136.547 12.7578 136.532 12.5547C136.516 12.3203 136.508 12.1328 136.508 11.9922V11.6406C136.508 11.5469 136.508 11.4453 136.508 11.3359C136.508 11.2266 136.516 11.125 136.532 11.0312C136.094 10.7188 135.703 10.4531 135.36 10.2344C135.032 10 134.703 9.82812 134.375 9.71875C134.063 9.59375 133.735 9.53906 133.391 9.55469C133.063 9.55469 132.68 9.63281 132.243 9.78906ZM143.504 16.4219C144.066 16.3438 144.504 16.4375 144.816 16.7031C145.144 16.9688 145.301 17.3359 145.285 17.8047C145.269 18.0391 145.223 18.2266 145.144 18.3672C145.066 18.5078 144.957 18.6172 144.816 18.6953C144.691 18.7578 144.535 18.8125 144.348 18.8594C144.176 18.8906 143.973 18.9219 143.738 18.9531C143.504 19 143.277 18.9922 143.058 18.9297C142.84 18.8516 142.644 18.7422 142.473 18.6016C142.301 18.4609 142.16 18.3047 142.051 18.1328C141.957 17.9609 141.91 17.7891 141.91 17.6172C141.91 17.4297 141.957 17.2734 142.051 17.1484C142.16 17.0078 142.293 16.8906 142.449 16.7969C142.621 16.6875 142.793 16.6094 142.965 16.5625C143.152 16.5 143.332 16.4531 143.504 16.4219ZM149.281 16.4219C149.843 16.3438 150.281 16.4375 150.593 16.7031C150.921 16.9688 151.077 17.3359 151.062 17.8047C151.046 18.0391 150.999 18.2266 150.921 18.3672C150.843 18.5078 150.734 18.6172 150.593 18.6953C150.468 18.7578 150.312 18.8125 150.124 18.8594C149.952 18.8906 149.749 18.9219 149.515 18.9531C149.281 19 149.054 18.9922 148.835 18.9297C148.617 18.8516 148.421 18.7422 148.249 18.6016C148.077 18.4609 147.937 18.3047 147.827 18.1328C147.734 17.9609 147.687 17.7891 147.687 17.6172C147.687 17.4297 147.734 17.2734 147.827 17.1484C147.937 17.0078 148.07 16.8906 148.226 16.7969C148.398 16.6875 148.57 16.6094 148.742 16.5625C148.929 16.5 149.109 16.4531 149.281 16.4219ZM155.057 16.4219C155.62 16.3438 156.057 16.4375 156.37 16.7031C156.698 16.9688 156.854 17.3359 156.839 17.8047C156.823 18.0391 156.776 18.2266 156.698 18.3672C156.62 18.5078 156.511 18.6172 156.37 18.6953C156.245 18.7578 156.089 18.8125 155.901 18.8594C155.729 18.8906 155.526 18.9219 155.292 18.9531C155.057 19 154.831 18.9922 154.612 18.9297C154.393 18.8516 154.198 18.7422 154.026 18.6016C153.854 18.4609 153.714 18.3047 153.604 18.1328C153.511 17.9609 153.464 17.7891 153.464 17.6172C153.464 17.4297 153.511 17.2734 153.604 17.1484C153.714 17.0078 153.847 16.8906 154.003 16.7969C154.175 16.6875 154.347 16.6094 154.518 16.5625C154.706 16.5 154.886 16.4531 155.057 16.4219Z" fill="#8AC926"/>
</svg>
