<svg width="123" height="344" viewBox="0 0 123 344" fill="none" xmlns="http://www.w3.org/2000/svg">
<rect x="47.5227" y="120.26" width="27.9545" height="223.74" fill="#D9D9D9"/>
<rect x="69.8864" y="120.26" width="5.5909" height="223.74" fill="#BBAFAF"/>
<path d="M123 61.5285C123 95.5097 95.4655 123.057 61.5 123.057C27.5345 123.057 0 95.5097 0 61.5285C0 27.5472 27.5345 0 61.5 0C95.4655 0 123 27.5472 123 61.5285Z" fill="#F40E0E"/>
<path d="M103.253 49.5581C105.267 49.2719 106.693 47.3984 106.186 45.429C104.882 40.3537 102.365 35.6574 98.8347 31.7627C95.3226 27.8886 90.9398 24.9543 86.0794 23.1918C84.1451 22.4904 82.1274 23.7645 81.6657 25.7741V25.7741C81.2081 27.7658 82.4577 29.7233 84.3505 30.482C87.7862 31.8592 90.8851 34.0084 93.4024 36.7852C95.9276 39.5708 97.7784 42.8894 98.8327 46.4797C99.4055 48.4306 101.239 49.8444 103.253 49.5581V49.5581Z" fill="#F0F8FF"/>
<path d="M107.051 59.037C109.065 58.7507 110.491 56.8773 109.985 54.9079C109.898 54.5688 109.805 54.2312 109.707 53.8952C109.135 51.9356 106.943 51.0645 105.065 51.87L104.668 52.0399C103.022 52.7461 102.274 54.6463 102.748 56.372V56.372C103.225 58.1035 104.847 59.3504 106.625 59.0976L107.051 59.037Z" fill="#F0F8FF"/>
</svg>
