<svg width="104" height="32" viewBox="0 0 104 32" fill="none" xmlns="http://www.w3.org/2000/svg">
<path d="M0 16C0 7.16344 6.75155 0 15.08 0H88.92C97.2484 0 104 7.16344 104 16C104 24.8366 97.2484 32 88.92 32H15.08C6.75154 32 0 24.8366 0 16Z" fill="#8AC926"/>
<path d="M26.4813 9.59375C26.8146 9.64583 27.1167 9.69271 27.3875 9.73438C27.6583 9.76562 27.8927 9.79167 28.0906 9.8125C28.3198 9.84375 28.5229 9.86979 28.7 9.89062C28.9188 9.92188 29.2469 9.88542 29.6844 9.78125C30.1219 9.66667 30.601 9.5625 31.1219 9.46875C31.6531 9.36458 32.1948 9.30729 32.7469 9.29688C33.299 9.27604 33.8042 9.375 34.2625 9.59375C34.7208 9.8125 35.0958 10.0312 35.3875 10.25C35.6792 10.4688 35.9083 10.7031 36.075 10.9531C36.2521 11.1927 36.3771 11.4479 36.45 11.7188C36.5229 11.9896 36.5646 12.2865 36.575 12.6094C36.5646 13.0885 36.45 13.5521 36.2313 14C36.1375 14.1875 36.0125 14.3854 35.8563 14.5938C35.7104 14.7917 35.5281 14.9844 35.3094 15.1719C35.0906 15.3594 34.8302 15.5365 34.5281 15.7031C34.2365 15.8698 33.8927 16.0156 33.4969 16.1406C33.8823 16.2552 34.2 16.3906 34.45 16.5469C34.7104 16.7031 34.9188 16.849 35.075 16.9844C35.2625 17.151 35.4031 17.3125 35.4969 17.4688C35.6115 17.6875 35.6896 17.875 35.7313 18.0312C35.7729 18.1875 35.799 18.3385 35.8094 18.4844C35.8302 18.6198 35.8563 18.7604 35.8875 18.9062C35.9188 19.0521 35.9865 19.2188 36.0906 19.4062C36.174 19.5521 36.2729 19.7031 36.3875 19.8594C36.4917 19.9948 36.6115 20.1406 36.7469 20.2969C36.8927 20.4531 37.0698 20.6042 37.2781 20.75C36.9865 20.7604 36.7156 20.7656 36.4656 20.7656C36.226 20.7656 36.0177 20.7656 35.8406 20.7656C35.6323 20.7656 35.4344 20.7604 35.2469 20.75C35.0594 20.7396 34.825 20.7344 34.5438 20.7344C34.3042 20.7344 33.9969 20.7344 33.6219 20.7344C33.2573 20.7344 32.8146 20.7396 32.2938 20.75C32.5229 20.5729 32.7104 20.3958 32.8563 20.2188C33.0021 20.0417 33.1167 19.8802 33.2 19.7344C33.2938 19.5677 33.3615 19.4062 33.4031 19.25C33.4552 18.9688 33.4604 18.6771 33.4188 18.375C33.3875 18.1146 33.3042 17.8281 33.1688 17.5156C33.0333 17.1927 32.8146 16.8698 32.5125 16.5469C32.2104 16.599 31.9552 16.6406 31.7469 16.6719C31.549 16.6927 31.3771 16.7135 31.2313 16.7344C31.0646 16.7552 30.9292 16.7708 30.825 16.7812C30.7313 16.7917 30.6271 16.8021 30.5125 16.8125C30.4188 16.8229 30.3146 16.8385 30.2 16.8594C30.0958 16.8698 29.9969 16.8854 29.9031 16.9062C29.8823 17.3542 29.8823 17.7448 29.9031 18.0781C29.924 18.401 29.95 18.6719 29.9813 18.8906C30.0229 19.151 30.0698 19.375 30.1219 19.5625C30.174 19.75 30.2469 19.9323 30.3406 20.1094C30.4135 20.2552 30.5073 20.4115 30.6219 20.5781C30.7365 20.7344 30.8667 20.8646 31.0125 20.9688C30.7417 20.9688 30.4813 20.9688 30.2313 20.9688C29.9917 20.9688 29.7729 20.9635 29.575 20.9531C29.3458 20.9531 29.1271 20.9479 28.9188 20.9375C28.7104 20.9271 28.476 20.9219 28.2156 20.9219C27.9969 20.9219 27.7365 20.9219 27.4344 20.9219C27.1427 20.9219 26.825 20.9271 26.4813 20.9375C26.7521 20.6562 26.9656 20.4167 27.1219 20.2188C27.2781 20.0208 27.3979 19.8542 27.4813 19.7188C27.575 19.5729 27.6323 19.4479 27.6531 19.3438C27.674 19.1771 27.6896 18.8802 27.7 18.4531C27.7208 18.0156 27.7365 17.5156 27.7469 16.9531C27.7573 16.3906 27.7625 15.8021 27.7625 15.1875C27.7625 14.5729 27.7573 14 27.7469 13.4688C27.7365 12.9271 27.726 12.4635 27.7156 12.0781C27.7052 11.6927 27.6948 11.4479 27.6844 11.3438C27.6531 11.1562 27.5854 10.9688 27.4813 10.7812C27.3979 10.6146 27.2781 10.4271 27.1219 10.2188C26.9656 10.0104 26.7521 9.80208 26.4813 9.59375ZM32.3875 15.0938C32.4917 15.0312 32.5802 14.9688 32.6531 14.9062C32.726 14.8438 32.7885 14.7448 32.8406 14.6094C32.8927 14.4635 32.9344 14.2604 32.9656 14C33.0073 13.7396 33.0542 13.3854 33.1063 12.9375C33.1479 12.4896 33.1167 12.1198 33.0125 11.8281C32.9188 11.5365 32.7885 11.3073 32.6219 11.1406C32.4656 10.9635 32.2885 10.8438 32.0906 10.7812C31.9031 10.7083 31.7365 10.6719 31.5906 10.6719C31.299 10.6719 31.0125 10.7604 30.7313 10.9375C30.45 11.1146 30.2365 11.3542 30.0906 11.6562C30.0385 11.7917 29.9917 12.0156 29.95 12.3281C29.9188 12.599 29.8979 12.974 29.8875 13.4531C29.8771 13.9323 29.8927 14.5625 29.9344 15.3438C30.3302 15.4062 30.6792 15.4323 30.9813 15.4219C31.2833 15.401 31.5385 15.3646 31.7469 15.3125C31.9969 15.2604 32.2104 15.1875 32.3875 15.0938ZM41.27 18.4844C41.5617 18.4844 41.8325 18.4531 42.0825 18.3906C42.2908 18.3385 42.4888 18.2552 42.6763 18.1406C42.8742 18.0156 43.0044 17.8333 43.0669 17.5938C43.2752 17.6354 43.4523 17.6719 43.5981 17.7031C43.744 17.724 43.869 17.7448 43.9731 17.7656C44.0877 17.7969 44.1867 17.8177 44.27 17.8281C44.3533 17.849 44.4523 17.8698 44.5669 17.8906C44.671 17.9115 44.796 17.9375 44.9419 17.9688C45.0981 17.9896 45.2804 18.0208 45.4888 18.0625C45.3325 18.0417 45.171 18.0573 45.0044 18.1094C44.8481 18.1615 44.6971 18.2188 44.5513 18.2812C44.3846 18.3542 44.2283 18.4427 44.0825 18.5469C43.9888 18.6094 43.8794 18.7031 43.7544 18.8281C43.6398 18.9531 43.4731 19.0729 43.2544 19.1875C43.0356 19.3021 42.744 19.401 42.3794 19.4844C42.0252 19.5573 41.5669 19.5833 41.0044 19.5625C40.3273 19.5417 39.7596 19.4219 39.3013 19.2031C38.8429 18.974 38.4731 18.6979 38.1919 18.375C37.9106 18.0417 37.7075 17.6823 37.5825 17.2969C37.4575 16.9115 37.3898 16.5521 37.3794 16.2188C37.369 15.8854 37.4679 15.5365 37.6763 15.1719C37.8846 14.8073 38.1763 14.474 38.5513 14.1719C38.9367 13.8698 39.4002 13.625 39.9419 13.4375C40.4835 13.2396 41.0773 13.1406 41.7231 13.1406C42.0981 13.1406 42.4419 13.1875 42.7544 13.2812C43.0773 13.3646 43.369 13.4792 43.6294 13.625C43.9002 13.7708 44.1346 13.9375 44.3325 14.125C44.5304 14.3021 44.6971 14.4844 44.8325 14.6719C44.9679 14.8698 45.0825 15.0781 45.1763 15.2969C45.2596 15.4844 45.3273 15.6979 45.3794 15.9375C45.4315 16.1771 45.4471 16.4219 45.4263 16.6719C44.6346 16.6927 43.994 16.7083 43.5044 16.7188C43.0252 16.7292 42.6502 16.7344 42.3794 16.7344H41.6763H41.145C40.9575 16.7344 40.7127 16.7396 40.4106 16.75C40.1085 16.7604 39.7388 16.776 39.3013 16.7969C39.3533 17.2135 39.4835 17.5365 39.6919 17.7656C39.9106 17.9844 40.1398 18.151 40.3794 18.2656C40.6502 18.3906 40.9471 18.4635 41.27 18.4844ZM39.8638 15.6719C40.1971 15.6927 40.4731 15.7083 40.6919 15.7188C40.921 15.7292 41.1085 15.7396 41.2544 15.75C41.4106 15.7604 41.5356 15.7656 41.6294 15.7656H42.02C42.2804 15.7656 42.7648 15.75 43.4731 15.7188C43.4419 15.2604 43.3429 14.9115 43.1763 14.6719C43.02 14.4323 42.8533 14.2552 42.6763 14.1406C42.4679 14.0156 42.2388 13.9427 41.9888 13.9219C41.3117 13.9323 40.8065 14.0729 40.4731 14.3438C40.1502 14.6146 39.9471 15.0573 39.8638 15.6719ZM47.5431 14.6719C47.5952 14.6094 47.6265 14.4948 47.6369 14.3281C47.6577 14.151 47.6994 13.9531 47.7619 13.7344C47.8348 13.5156 47.9546 13.2865 48.1213 13.0469C48.2879 12.8073 48.5588 12.5833 48.9338 12.375C49.2983 12.1667 49.6525 12.0417 49.9963 12C50.34 11.9583 50.6681 11.974 50.9806 12.0469C51.2931 12.1198 51.5848 12.2344 51.8556 12.3906C52.1369 12.5469 52.3921 12.7188 52.6213 12.9062C52.7775 13.0312 52.9025 13.2135 52.9963 13.4531C53.09 13.6823 53.1629 13.9427 53.215 14.2344C53.2671 14.526 53.3035 14.8333 53.3244 15.1562C53.3556 15.4688 53.3765 15.776 53.3869 16.0781C53.3973 16.3698 53.4025 16.6406 53.4025 16.8906C53.4129 17.1302 53.4338 17.3281 53.465 17.4844C53.5067 17.7135 53.5796 17.9115 53.6838 18.0781C53.7879 18.2344 53.9025 18.3698 54.0275 18.4844C54.1525 18.5885 54.2775 18.6719 54.4025 18.7344C54.5275 18.7969 54.6369 18.8438 54.7306 18.875C54.7931 18.9062 54.8504 18.9271 54.9025 18.9375C55.0067 18.9792 55.0796 18.9792 55.1213 18.9375C55.0588 19.0833 55.0015 19.2083 54.9494 19.3125C54.8973 19.4167 54.8556 19.5052 54.8244 19.5781C54.7827 19.6615 54.7463 19.7292 54.715 19.7812C54.6838 19.8438 54.6473 19.901 54.6056 19.9531C54.5744 20.0052 54.5327 20.0625 54.4806 20.125C54.4285 20.1875 54.3765 20.2552 54.3244 20.3281C54.189 20.276 54.0588 20.2135 53.9338 20.1406C53.8192 20.0677 53.715 20 53.6213 19.9375C53.5067 19.8646 53.4025 19.7917 53.3088 19.7188C53.215 19.6458 53.1265 19.5625 53.0431 19.4688C52.9702 19.3854 52.8921 19.2969 52.8088 19.2031C52.7358 19.1094 52.6733 19.0052 52.6213 18.8906C52.5588 19.026 52.4077 19.2188 52.1681 19.4688C51.939 19.7188 51.6369 19.9479 51.2619 20.1562C50.8869 20.3542 50.4494 20.4948 49.9494 20.5781C49.4598 20.6615 48.9181 20.6042 48.3244 20.4062C48.064 20.3229 47.8192 20.2031 47.59 20.0469C47.3608 19.8802 47.1629 19.6823 46.9963 19.4531C46.84 19.224 46.7254 18.9635 46.6525 18.6719C46.59 18.3698 46.5952 18.0365 46.6681 17.6719C46.741 17.3073 46.8713 17 47.0588 16.75C47.2463 16.5 47.4702 16.2969 47.7306 16.1406C47.991 15.9844 48.2827 15.8646 48.6056 15.7812C48.9285 15.6979 49.2619 15.6406 49.6056 15.6094C49.8765 15.599 50.1473 15.6146 50.4181 15.6562C50.6473 15.6979 50.8869 15.776 51.1369 15.8906C51.3869 15.9948 51.6004 16.1562 51.7775 16.375C51.7671 15.8229 51.7463 15.3854 51.715 15.0625C51.6942 14.7292 51.6733 14.474 51.6525 14.2969C51.6108 14.0885 51.5744 13.9427 51.5431 13.8594C51.491 13.7865 51.4338 13.7031 51.3713 13.6094C51.3192 13.5156 51.2515 13.4323 51.1681 13.3594C51.0848 13.276 50.9806 13.2083 50.8556 13.1562C50.7306 13.1042 50.5848 13.0833 50.4181 13.0938C50.241 13.1042 50.1004 13.151 49.9963 13.2344C49.8921 13.3177 49.8088 13.4167 49.7463 13.5312C49.6942 13.6354 49.6629 13.75 49.6525 13.875C49.6421 14 49.6473 14.1094 49.6681 14.2031C49.689 14.2656 49.7202 14.3333 49.7619 14.4062C49.8035 14.4688 49.8608 14.5365 49.9338 14.6094C50.0067 14.6823 50.1056 14.7448 50.2306 14.7969C49.991 14.8281 49.7775 14.8542 49.59 14.875C49.4025 14.8854 49.241 14.901 49.1056 14.9219C48.9494 14.9427 48.814 14.9583 48.6994 14.9688C48.5848 14.9792 48.4494 15 48.2931 15.0312C48.1577 15.0521 47.991 15.0781 47.7931 15.1094C47.5952 15.1406 47.366 15.1823 47.1056 15.2344C47.1681 15.1615 47.2254 15.0938 47.2775 15.0312C47.3296 14.9583 47.3765 14.8958 47.4181 14.8438C47.4598 14.7812 47.5015 14.724 47.5431 14.6719ZM49.8869 16.5312C49.6994 16.5417 49.5119 16.5885 49.3244 16.6719C49.1369 16.7448 48.9702 16.8542 48.8244 17C48.6785 17.1354 48.5535 17.2969 48.4494 17.4844C48.3556 17.6615 48.3088 17.8594 48.3088 18.0781C48.3088 18.2969 48.3608 18.4896 48.465 18.6562C48.5796 18.8125 48.7254 18.9427 48.9025 19.0469C49.09 19.151 49.2879 19.2135 49.4963 19.2344C49.715 19.2552 49.9285 19.2344 50.1369 19.1719C50.3348 19.099 50.5223 18.9844 50.6994 18.8281C50.8765 18.6615 51.0275 18.4844 51.1525 18.2969C51.2775 18.099 51.366 17.9062 51.4181 17.7188C51.4702 17.5208 51.4754 17.3594 51.4338 17.2344C51.3504 16.9635 51.1629 16.776 50.8713 16.6719C50.5796 16.5573 50.2515 16.5104 49.8869 16.5312ZM62.9569 9.03125C63.1548 9.04167 63.3683 9.04688 63.5975 9.04688C63.7954 9.04688 64.0194 9.05208 64.2694 9.0625C64.5298 9.0625 64.8006 9.05208 65.0819 9.03125C64.8319 9.14583 64.6131 9.3125 64.4256 9.53125C64.2381 9.75 64.0871 9.96875 63.9725 10.1875C63.8267 10.4479 63.7069 10.7188 63.6131 11C63.561 11.1667 63.5194 11.4635 63.4881 11.8906C63.4569 12.3073 63.4308 12.7969 63.41 13.3594C63.3996 13.9219 63.3944 14.5156 63.3944 15.1406C63.3944 15.7656 63.3996 16.3646 63.41 16.9375C63.4204 17.5 63.436 18 63.4569 18.4375C63.4777 18.875 63.5037 19.1823 63.535 19.3594C63.5767 19.5677 63.6287 19.7656 63.6912 19.9531C63.7433 20.1198 63.811 20.2917 63.8944 20.4688C63.9777 20.6354 64.0819 20.7708 64.2069 20.875L62.6131 21.5938C62.5298 21.4792 62.4621 21.3594 62.41 21.2344C62.3579 21.1198 62.3162 21.0156 62.285 20.9219C62.2433 20.8073 62.2173 20.7031 62.2069 20.6094C62.186 20.4844 62.1652 20.349 62.1444 20.2031C62.1235 20.0469 62.0975 19.901 62.0662 19.7656C62.0454 19.6198 62.0298 19.5 62.0194 19.4062C62.009 19.3125 62.009 19.2552 62.0194 19.2344C62.0298 19.2135 61.9673 19.3073 61.8319 19.5156C61.6965 19.7135 61.4933 19.9479 61.2225 20.2188C60.9621 20.4792 60.6392 20.7344 60.2537 20.9844C59.8683 21.224 59.436 21.375 58.9569 21.4375C58.4673 21.5 58.0142 21.4062 57.5975 21.1562C57.1912 20.9062 56.8423 20.5573 56.5506 20.1094C56.259 19.651 56.035 19.125 55.8787 18.5312C55.7329 17.9271 55.6756 17.3125 55.7069 16.6875C55.7277 16.2708 55.8215 15.901 55.9881 15.5781C56.1548 15.2448 56.3631 14.9583 56.6131 14.7188C56.8735 14.4688 57.1548 14.2604 57.4569 14.0938C57.7694 13.9167 58.0715 13.7708 58.3631 13.6562C58.6652 13.5417 58.9465 13.4583 59.2069 13.4062C59.4673 13.3542 59.6756 13.3177 59.8319 13.2969C60.0194 13.2865 60.2329 13.3177 60.4725 13.3906C60.6808 13.4531 60.9204 13.5573 61.1912 13.7031C61.4725 13.849 61.785 14.0677 62.1287 14.3594C62.0662 13.3177 62.009 12.4844 61.9569 11.8594C61.9048 11.224 61.8527 10.7396 61.8006 10.4062C61.7485 10.0104 61.7017 9.73958 61.66 9.59375C61.6079 9.48958 61.5402 9.38542 61.4569 9.28125C61.384 9.19792 61.2902 9.11458 61.1756 9.03125C61.0715 8.9375 60.9465 8.86458 60.8006 8.8125C61.0715 8.86458 61.3319 8.90104 61.5819 8.92188C61.8319 8.94271 62.061 8.96354 62.2694 8.98438C62.509 9.00521 62.7381 9.02083 62.9569 9.03125ZM59.035 14.8594C58.8371 14.9323 58.6756 15.0573 58.5506 15.2344C58.436 15.4115 58.3423 15.625 58.2694 15.875C58.1965 16.1146 58.1444 16.375 58.1131 16.6562C58.0923 16.9271 58.0767 17.1927 58.0662 17.4531C58.0662 17.7031 58.0662 17.9323 58.0662 18.1406C58.0662 18.349 58.0662 18.5052 58.0662 18.6094C58.0662 18.6719 58.0767 18.7865 58.0975 18.9531C58.1287 19.1094 58.1912 19.276 58.285 19.4531C58.3787 19.6198 58.509 19.7708 58.6756 19.9062C58.8527 20.0417 59.0871 20.1094 59.3787 20.1094C59.6183 20.0885 59.8735 20.0052 60.1444 19.8594C60.384 19.7344 60.6548 19.5365 60.9569 19.2656C61.2694 18.9844 61.6027 18.5833 61.9569 18.0625C61.936 17.7292 61.9204 17.4531 61.91 17.2344C61.91 17.0156 61.9048 16.8385 61.8944 16.7031C61.884 16.5469 61.8787 16.4219 61.8787 16.3281V16.0938C61.8787 16.0312 61.8787 15.9635 61.8787 15.8906C61.8787 15.8177 61.884 15.75 61.8944 15.6875C61.6027 15.4792 61.3423 15.3021 61.1131 15.1562C60.8944 15 60.6756 14.8854 60.4569 14.8125C60.2485 14.7292 60.0298 14.6927 59.8006 14.7031C59.5819 14.7031 59.3267 14.7552 59.035 14.8594ZM64.2769 13.0156C64.4852 13.0469 64.6727 13.0729 64.8394 13.0938C64.9956 13.1042 65.1362 13.1146 65.2612 13.125C65.3967 13.1354 65.5269 13.1406 65.6519 13.1406C65.7665 13.1406 65.9123 13.1354 66.0894 13.125C66.2352 13.1146 66.4227 13.1042 66.6519 13.0938C66.8915 13.0729 67.1727 13.0469 67.4956 13.0156C67.4748 13.0573 67.4331 13.1875 67.3706 13.4062C67.3081 13.6146 67.2456 13.875 67.1831 14.1875C67.1206 14.4896 67.0633 14.8281 67.0112 15.2031C66.9696 15.5677 66.9487 15.9323 66.9487 16.2969C66.9592 16.651 67.006 16.9896 67.0894 17.3125C67.1727 17.625 67.3081 17.8802 67.4956 18.0781C67.8915 18.4844 68.2404 18.7292 68.5425 18.8125C68.855 18.8958 69.1258 18.8854 69.355 18.7812C69.5842 18.6771 69.7717 18.5208 69.9175 18.3125C70.0633 18.1042 70.1675 17.9115 70.23 17.7344C70.3862 17.2552 70.48 16.75 70.5112 16.2188C70.5321 15.7604 70.4956 15.25 70.4019 14.6875C70.3081 14.125 70.0842 13.5521 69.73 12.9688C70.0008 12.9896 70.2352 13.0052 70.4331 13.0156C70.631 13.026 70.8029 13.0365 70.9487 13.0469C71.1154 13.0573 71.2612 13.0677 71.3862 13.0781C71.5008 13.0885 71.6362 13.0885 71.7925 13.0781C71.9279 13.0781 72.0894 13.0729 72.2769 13.0625C72.4748 13.0417 72.6935 13.0208 72.9331 13C72.9748 14.0208 73.0112 14.9323 73.0425 15.7344C73.0737 16.526 73.0946 17.2292 73.105 17.8438C73.1258 18.4479 73.1362 18.974 73.1362 19.4219C73.1362 19.8594 73.1362 20.2292 73.1362 20.5312C73.1258 21.25 73.0946 21.724 73.0425 21.9531C72.9592 22.276 72.8081 22.599 72.5894 22.9219C72.381 23.2448 72.1154 23.5312 71.7925 23.7812C71.4696 24.0417 71.0946 24.2396 70.6675 24.375C70.2508 24.5208 69.7925 24.5729 69.2925 24.5312C68.8029 24.4896 68.4123 24.4219 68.1206 24.3281C67.8394 24.2448 67.6154 24.1458 67.4487 24.0312C67.2925 23.9167 67.1779 23.7969 67.105 23.6719C67.0425 23.5469 66.9956 23.4167 66.9644 23.2812C66.9331 23.1562 66.9019 23.0365 66.8706 22.9219C66.8394 22.8073 66.7769 22.7083 66.6831 22.625C66.5685 22.5312 66.4487 22.4375 66.3237 22.3438C66.2092 22.2604 66.0842 22.1771 65.9487 22.0938C65.8237 22.0104 65.6987 21.9427 65.5737 21.8906L68.9019 21.7031C68.8081 21.8281 68.7404 21.9427 68.6987 22.0469C68.6571 22.151 68.631 22.2396 68.6206 22.3125C68.6102 22.4062 68.6154 22.4844 68.6362 22.5469C68.6779 22.6719 68.7508 22.8073 68.855 22.9531C68.9696 23.1094 69.1154 23.2292 69.2925 23.3125C69.4696 23.4062 69.6779 23.4375 69.9175 23.4062C70.1675 23.375 70.4487 23.2448 70.7612 23.0156C71.0217 22.8177 71.2404 22.5 71.4175 22.0625C71.5633 21.6875 71.6779 21.1615 71.7612 20.4844C71.8446 19.8073 71.829 18.9167 71.7144 17.8125C71.5269 18.4583 71.2717 18.9531 70.9487 19.2969C70.6258 19.6406 70.3029 19.8906 69.98 20.0469C69.605 20.2344 69.2144 20.3333 68.8081 20.3438C68.2665 20.3229 67.8029 20.2552 67.4175 20.1406C67.0321 20.0156 66.7144 19.849 66.4644 19.6406C66.2144 19.4323 66.0165 19.1875 65.8706 18.9062C65.7352 18.6146 65.6362 18.2917 65.5737 17.9375C65.5112 17.5833 65.48 17.2292 65.48 16.875C65.48 16.5104 65.48 16.1719 65.48 15.8594C65.4904 15.5469 65.4956 15.2656 65.4956 15.0156C65.4956 14.7552 65.4696 14.5469 65.4175 14.3906C65.355 14.2344 65.2717 14.0781 65.1675 13.9219C65.0842 13.7865 64.9696 13.6406 64.8237 13.4844C64.6675 13.3177 64.4852 13.1615 64.2769 13.0156ZM75.4406 9.73438C75.6385 9.78646 75.826 9.82812 76.0031 9.85938C76.1802 9.88021 76.3365 9.90104 76.4719 9.92188C76.6281 9.94271 76.774 9.95833 76.9094 9.96875C77.0552 9.97917 77.2271 9.98958 77.425 10C77.6021 10.0104 77.8156 10.0156 78.0656 10.0156C78.3156 10.0156 78.6125 10.0156 78.9562 10.0156C78.6542 10.7344 78.4094 11.3438 78.2219 11.8438C78.0344 12.3333 77.8885 12.7396 77.7844 13.0625C77.6698 13.4375 77.5865 13.7448 77.5344 13.9844C77.4927 14.224 77.4406 14.5156 77.3781 14.8594C77.326 15.1615 77.2531 15.5312 77.1594 15.9688C77.0656 16.4062 76.9615 16.9271 76.8469 17.5312L75.4719 17.4688C75.5552 16.9167 75.6125 16.4479 75.6437 16.0625C75.675 15.6667 75.701 15.3385 75.7219 15.0781C75.7427 14.776 75.7531 14.526 75.7531 14.3281C75.7531 14.1198 75.7375 13.8073 75.7062 13.3906C75.6854 13.0469 75.6542 12.5833 75.6125 12C75.5708 11.4062 75.5135 10.651 75.4406 9.73438ZM77.1594 18.7188C77.2323 18.8333 77.274 18.9635 77.2844 19.1094C77.3052 19.2448 77.2948 19.3854 77.2531 19.5312C77.2219 19.6667 77.1542 19.7969 77.05 19.9219C76.9562 20.0469 76.826 20.1458 76.6594 20.2188C76.326 20.375 76.0292 20.4167 75.7687 20.3438C75.5083 20.2604 75.3156 20.125 75.1906 19.9375C75.1177 19.8333 75.076 19.7188 75.0656 19.5938C75.0656 19.4583 75.0917 19.3281 75.1437 19.2031C75.1958 19.0677 75.2792 18.9427 75.3937 18.8281C75.5083 18.7135 75.6542 18.6198 75.8312 18.5469C76.175 18.401 76.4562 18.349 76.675 18.3906C76.9042 18.4323 77.0656 18.5417 77.1594 18.7188Z" fill="white"/>
</svg>
