<svg width="292" height="301" viewBox="0 0 292 301" fill="none" xmlns="http://www.w3.org/2000/svg">
<path d="M77.6271 51.7486C74.1105 58.8107 72.8127 68.5631 72.6034 72.5565L69.9836 95.4804L67.5798 103.453C59.9363 123.855 51.1448 111.875 47.4852 103.453L46.3863 98.8818L45.2873 94.3103L43.0895 85.1674C37.0611 51.3702 16.9509 70.2586 14.2035 85.1674C10.3276 106.2 13.9941 127.624 16.7153 136.242C17.72 146.33 33.0422 169.03 40.5777 179.119C68.7102 219.473 40.5777 235.461 22.2588 231.048C-8.51109 219.067 -0.975664 241.767 7.29585 254.153C12.8395 263.205 34.0887 275.172 44.3453 280.006C123.719 321.369 195.055 292.196 220.801 272.439C239.891 260.837 247.277 228.525 248.952 213.392C249.58 197.629 260.363 187.526 266.014 184.793C307.208 157.049 289.661 105.569 279.094 80.7536C271.558 57.0172 257.115 82.239 254.603 94.8499C246.063 129.656 236.919 109.759 233.361 95.2561C232.858 93.2384 231.12 84.7525 230.849 80.7536C228.857 51.3423 212.638 29.6795 203.847 22.7435C166.169 -1.97382 122.104 13.5096 103.373 22.7435C89.4502 29.6074 80.3482 44.3922 77.6271 51.7486Z" fill="#AC9F9F"/>
<path d="M77.6271 42.3423C74.1105 49.4044 72.8127 59.1568 72.6034 63.1503L69.9836 86.0741L67.5798 94.047C59.9363 114.449 51.1448 102.468 47.4852 94.047L46.3863 89.4755L45.2873 84.9041L43.0895 75.7612C37.0611 41.964 16.9509 60.8524 14.2035 75.7612C10.3276 96.7934 13.9941 118.218 16.7153 126.835C17.72 136.924 33.0422 159.624 40.5777 169.712C68.7102 210.067 40.5777 226.055 22.2588 221.641C-8.51109 209.661 -0.975664 232.36 7.29585 244.747C12.8395 253.799 34.0887 265.765 44.3453 270.599C123.719 311.963 195.055 282.79 220.801 263.033C239.891 251.431 247.277 219.119 248.952 203.986C249.58 188.222 260.363 178.12 266.014 175.387C307.208 147.643 289.661 96.1629 279.094 71.3473C271.558 47.6109 257.115 72.8327 254.603 85.4436C246.063 120.25 236.919 100.352 233.361 85.8499C232.858 83.8321 231.12 75.3462 230.849 71.3473C228.857 41.936 212.638 20.2733 203.847 13.3373C166.169 -11.3801 122.104 4.10332 103.373 13.3373C89.4502 20.2011 80.3482 34.986 77.6271 42.3423Z" fill="#FFF9EF"/>
<ellipse cx="154.28" cy="98.3916" rx="12.9895" ry="13.7354" fill="#2D1D27"/>
<ellipse cx="9.10168" cy="11.7616" rx="9.10168" ry="11.7616" transform="matrix(1 0 0.00542287 0.999985 116.41 46.3294)" fill="#2D1D27"/>
<ellipse cx="9.10168" cy="11.7616" rx="9.10168" ry="11.7616" transform="matrix(1 0 0.00543043 0.999985 172.688 47.0312)" fill="#2D1D27"/>
</svg>
