<svg width="282" height="52" viewBox="0 0 282 52" fill="none" xmlns="http://www.w3.org/2000/svg">
<path d="M43.7388 3.25C43.1554 4.58333 42.6346 5.75 42.1763 6.75C41.7179 7.75 41.3221 8.60417 40.9888 9.3125C40.6138 10.1042 40.3013 10.8125 40.0513 11.4375C39.8429 11.8958 39.5721 12.5208 39.2388 13.3125C38.9054 14.0208 38.4888 14.9583 37.9888 16.125C37.5304 17.25 36.9263 18.7083 36.1763 20.5C35.8013 18.9583 35.3429 17.6042 34.8013 16.4375C34.2596 15.2708 33.6763 14.25 33.0513 13.375C32.4263 12.5 31.7596 11.7917 31.0513 11.25C30.3846 10.6667 29.7179 10.1875 29.0513 9.8125C27.5096 8.97917 25.8846 8.52083 24.1763 8.4375C21.9263 8.5625 20.1554 8.9375 18.8638 9.5625C17.6138 10.1458 16.6971 10.8333 16.1138 11.625C15.5304 12.375 15.2179 13.1667 15.1763 14C15.1346 14.7917 15.2388 15.4583 15.4888 16C15.6971 16.5 16.4263 17.0833 17.6763 17.75C18.9679 18.4167 20.5096 19.1875 22.3013 20.0625C24.1346 20.8958 26.0929 21.8542 28.1763 22.9375C30.2596 23.9792 32.1763 25.1458 33.9263 26.4375C35.7179 27.6875 37.2179 29.0625 38.4263 30.5625C39.6763 32.0208 40.3638 33.5833 40.4888 35.25C40.6138 37.375 40.5929 39.2917 40.4263 41C40.2596 42.7083 39.6763 44.1667 38.6763 45.375C37.6763 46.5833 36.1138 47.5417 33.9888 48.25C31.9054 48.9583 29.0096 49.3958 25.3013 49.5625C21.4679 49.7292 18.3221 49.5208 15.8638 48.9375C13.4054 48.3542 11.4054 47.5625 9.86375 46.5625C8.36375 45.5625 7.23875 44.4583 6.48875 43.25C5.78042 42.0417 5.25959 40.8958 4.92625 39.8125C4.59292 38.6875 4.36375 37.7292 4.23875 36.9375C4.11375 36.1042 3.90542 35.6042 3.61375 35.4375C3.28042 35.2292 2.94709 35.0417 2.61375 34.875C2.32209 34.7083 2.00959 34.5625 1.67625 34.4375C1.34292 34.2708 1.00959 34.125 0.676254 34L18.8638 31.0625C17.8221 31.8958 17.0096 32.6667 16.4263 33.375C15.8846 34.0833 15.4679 34.7083 15.1763 35.25C14.8429 35.875 14.6138 36.4583 14.4888 37C14.4054 37.5833 14.5929 38.3125 15.0513 39.1875C15.5096 40.0625 16.1346 40.9167 16.9263 41.75C17.7596 42.5417 18.7179 43.2083 19.8013 43.75C20.8846 44.2917 22.0096 44.5208 23.1763 44.4375C24.6346 44.3125 25.8221 43.9583 26.7388 43.375C27.6554 42.75 28.3429 41.9792 28.8013 41.0625C29.3013 40.1458 29.5929 39.1458 29.6763 38.0625C29.7596 36.9792 29.6554 35.9167 29.3638 34.875C29.1138 33.7917 28.6971 32.7917 28.1138 31.875C27.5304 30.9167 26.8429 30.125 26.0513 29.5C25.3429 29 24.2388 28.5208 22.7388 28.0625C21.2804 27.6042 19.6346 27.1042 17.8013 26.5625C16.0096 26.0208 14.1554 25.3958 12.2388 24.6875C10.3638 23.9792 8.65542 23.1042 7.11375 22.0625C5.61375 21.0208 4.40542 19.7917 3.48875 18.375C2.61375 16.9583 2.28042 15.25 2.48875 13.25C2.65542 11.5417 3.19709 10.125 4.11375 9C5.07209 7.83333 6.25959 6.91667 7.67625 6.25C9.13459 5.54167 10.7388 5.02083 12.4888 4.6875C14.2804 4.35417 16.0929 4.16667 17.9263 4.125C19.8013 4.04167 21.6346 4.0625 23.4263 4.1875C25.2596 4.3125 26.9054 4.45833 28.3638 4.625C29.8221 4.79167 31.0513 4.95833 32.0513 5.125C33.0929 5.25 33.7388 5.33333 33.9888 5.375C35.0721 5.45833 36.1554 5.4375 37.2388 5.3125C38.1971 5.22917 39.2388 5.04167 40.3638 4.75C41.5304 4.41667 42.6554 3.91667 43.7388 3.25ZM45.9563 20.25C47.0396 20.4583 47.9771 20.625 48.7688 20.75C49.6021 20.8333 50.3104 20.9167 50.8938 21C51.5604 21.0833 52.1438 21.1458 52.6438 21.1875C53.1438 21.2292 53.7271 21.2708 54.3938 21.3125C55.5188 21.3542 57.1021 21.3542 59.1438 21.3125C57.9354 21.2292 56.9771 21.5417 56.2688 22.25C55.6021 22.9167 55.1021 23.6875 54.7688 24.5625C54.3521 25.6042 54.1229 26.8125 54.0813 28.1875C53.9979 30.0208 54.0396 31.6875 54.2063 33.1875C54.4146 34.6458 54.7688 35.8958 55.2688 36.9375C55.8104 37.9375 56.5188 38.6875 57.3938 39.1875C58.2688 39.6458 59.3938 39.7708 60.7688 39.5625C62.1438 39.3542 63.1854 38.875 63.8938 38.125C64.6438 37.3333 65.1854 36.375 65.5188 35.25C65.8521 34.0833 66.0396 32.7708 66.0813 31.3125C66.1646 29.8542 66.2271 28.3333 66.2688 26.75C66.2688 25.1667 66.2479 24.0417 66.2063 23.375C66.2063 22.6667 66.1854 22.2083 66.1438 22C66.1021 21.7917 66.0396 21.7083 65.9563 21.75C65.8729 21.75 65.7688 21.6458 65.6438 21.4375C65.5604 21.2708 65.4354 21.1042 65.2688 20.9375C65.1438 20.7708 64.9771 20.5833 64.7688 20.375C64.5604 20.125 64.3313 19.875 64.0813 19.625C65.1646 19.6667 66.1229 19.7083 66.9563 19.75C67.8313 19.75 68.5604 19.7708 69.1438 19.8125C69.8104 19.8542 70.3938 19.8958 70.8938 19.9375C71.3521 19.9792 71.9563 20.0417 72.7063 20.125C73.3313 20.2083 74.1438 20.2917 75.1438 20.375C76.1438 20.4583 77.3313 20.5833 78.7063 20.75C77.7479 20.9583 76.9771 21.2708 76.3938 21.6875C75.8104 22.1042 75.3521 22.5208 75.0188 22.9375C74.6438 23.3958 74.3729 23.8958 74.2063 24.4375C74.0813 25.1458 74.0813 26.2292 74.2063 27.6875C74.2896 28.9792 74.4979 30.75 74.8313 33C75.1646 35.25 75.6854 38.2083 76.3938 41.875L71.4563 44.8125L70.4563 36.5C69.2479 38.5417 67.9563 40.125 66.5813 41.25C65.2479 42.3333 63.9979 43.125 62.8313 43.625C61.4563 44.2083 60.1229 44.5417 58.8313 44.625C57.1229 44.625 55.6438 44.5208 54.3938 44.3125C53.1854 44.0625 52.1438 43.75 51.2688 43.375C50.3938 43 49.6854 42.5833 49.1438 42.125C48.6438 41.625 48.2688 41.125 48.0188 40.625C47.4354 39.5833 47.1229 38.25 47.0813 36.625C47.0396 34.9583 47.1021 33.3125 47.2688 31.6875C47.4354 30.0208 47.6229 28.5 47.8313 27.125C48.0396 25.75 48.1021 24.8125 48.0188 24.3125C47.9354 23.9375 47.8104 23.5208 47.6438 23.0625C47.4771 22.6875 47.2688 22.2708 47.0188 21.8125C46.7688 21.3125 46.4146 20.7917 45.9563 20.25ZM115.861 26.8125C115.361 26.7292 114.736 26.6667 113.986 26.625C113.278 26.5833 112.59 26.5625 111.924 26.5625C111.174 26.5625 110.382 26.5833 109.549 26.625C108.674 26.6667 107.799 26.7083 106.924 26.75C106.174 26.7917 105.32 26.8542 104.361 26.9375C103.445 26.9792 102.549 27.0417 101.674 27.125C102.007 26.9583 102.299 26.7292 102.549 26.4375C102.84 26.1458 103.09 25.8542 103.299 25.5625C103.507 25.2292 103.695 24.875 103.861 24.5C104.07 23.875 104.049 23.125 103.799 22.25C103.549 21.3333 103.09 20.5 102.424 19.75C101.799 19 100.986 18.4167 99.9863 18C99.0279 17.5417 97.9654 17.4375 96.7988 17.6875C95.5488 17.9792 94.4238 18.4167 93.4238 19C92.4654 19.5833 91.6529 20.3958 90.9863 21.4375C90.3613 22.4375 89.9029 23.6875 89.6113 25.1875C89.3613 26.6458 89.2988 28.3958 89.4238 30.4375C89.5904 32.9792 90.0071 35 90.6738 36.5C91.3404 38 92.1529 39.125 93.1113 39.875C94.0696 40.625 95.1113 41.0833 96.2363 41.25C97.4029 41.375 98.5488 41.375 99.6738 41.25C100.465 41.0833 101.195 40.7292 101.861 40.1875C102.403 39.7292 102.903 39.0625 103.361 38.1875C103.82 37.3125 104.028 36.1042 103.986 34.5625L111.611 34.25C110.736 36.7083 109.674 38.6667 108.424 40.125C107.174 41.5417 105.965 42.6458 104.799 43.4375C103.424 44.3542 102.049 44.9792 100.674 45.3125C98.9654 45.6042 97.4446 45.7292 96.1113 45.6875C94.7779 45.6042 93.5696 45.3958 92.4863 45.0625C91.4029 44.7292 90.4029 44.3125 89.4863 43.8125C88.5696 43.3125 87.6946 42.7708 86.8613 42.1875C86.3196 41.8125 85.7154 41.1875 85.0488 40.3125C84.3821 39.4375 83.7571 38.3958 83.1738 37.1875C82.5904 35.9375 82.1113 34.5625 81.7363 33.0625C81.3613 31.5625 81.2154 30.0208 81.2988 28.4375C81.3821 26.8125 81.7571 25.1875 82.4238 23.5625C83.0904 21.9375 84.1529 20.375 85.6113 18.875C87.8196 16.625 90.1738 15.1667 92.6738 14.5C95.2154 13.7917 97.6113 13.6042 99.8613 13.9375C102.111 14.2292 104.111 14.875 105.861 15.875C107.611 16.875 108.84 17.9583 109.549 19.125C110.257 20.2917 110.778 21.1875 111.111 21.8125C111.486 22.3958 111.757 22.8542 111.924 23.1875C112.132 23.4792 112.299 23.7083 112.424 23.875C112.59 24 112.82 24.1875 113.111 24.4375C113.32 24.6458 113.57 24.875 113.861 25.125C114.111 25.3333 114.403 25.5833 114.736 25.875C115.07 26.1667 115.445 26.4792 115.861 26.8125ZM151.141 26.8125C150.641 26.7292 150.016 26.6667 149.266 26.625C148.558 26.5833 147.87 26.5625 147.204 26.5625C146.454 26.5625 145.662 26.5833 144.829 26.625C143.954 26.6667 143.079 26.7083 142.204 26.75C141.454 26.7917 140.6 26.8542 139.641 26.9375C138.725 26.9792 137.829 27.0417 136.954 27.125C137.287 26.9583 137.579 26.7292 137.829 26.4375C138.12 26.1458 138.37 25.8542 138.579 25.5625C138.787 25.2292 138.975 24.875 139.141 24.5C139.35 23.875 139.329 23.125 139.079 22.25C138.829 21.3333 138.37 20.5 137.704 19.75C137.079 19 136.266 18.4167 135.266 18C134.308 17.5417 133.245 17.4375 132.079 17.6875C130.829 17.9792 129.704 18.4167 128.704 19C127.745 19.5833 126.933 20.3958 126.266 21.4375C125.641 22.4375 125.183 23.6875 124.891 25.1875C124.641 26.6458 124.579 28.3958 124.704 30.4375C124.87 32.9792 125.287 35 125.954 36.5C126.62 38 127.433 39.125 128.391 39.875C129.35 40.625 130.391 41.0833 131.516 41.25C132.683 41.375 133.829 41.375 134.954 41.25C135.745 41.0833 136.475 40.7292 137.141 40.1875C137.683 39.7292 138.183 39.0625 138.641 38.1875C139.1 37.3125 139.308 36.1042 139.266 34.5625L146.891 34.25C146.016 36.7083 144.954 38.6667 143.704 40.125C142.454 41.5417 141.245 42.6458 140.079 43.4375C138.704 44.3542 137.329 44.9792 135.954 45.3125C134.245 45.6042 132.725 45.7292 131.391 45.6875C130.058 45.6042 128.85 45.3958 127.766 45.0625C126.683 44.7292 125.683 44.3125 124.766 43.8125C123.85 43.3125 122.975 42.7708 122.141 42.1875C121.6 41.8125 120.995 41.1875 120.329 40.3125C119.662 39.4375 119.037 38.3958 118.454 37.1875C117.87 35.9375 117.391 34.5625 117.016 33.0625C116.641 31.5625 116.495 30.0208 116.579 28.4375C116.662 26.8125 117.037 25.1875 117.704 23.5625C118.37 21.9375 119.433 20.375 120.891 18.875C123.1 16.625 125.454 15.1667 127.954 14.5C130.495 13.7917 132.891 13.6042 135.141 13.9375C137.391 14.2292 139.391 14.875 141.141 15.875C142.891 16.875 144.12 17.9583 144.829 19.125C145.537 20.2917 146.058 21.1875 146.391 21.8125C146.766 22.3958 147.037 22.8542 147.204 23.1875C147.412 23.4792 147.579 23.7083 147.704 23.875C147.87 24 148.1 24.1875 148.391 24.4375C148.6 24.6458 148.85 24.875 149.141 25.125C149.391 25.3333 149.683 25.5833 150.016 25.875C150.35 26.1667 150.725 26.4792 151.141 26.8125ZM167.734 38.9375C168.9 38.9375 169.984 38.8125 170.984 38.5625C171.817 38.3542 172.609 38.0208 173.359 37.5625C174.15 37.0625 174.671 36.3333 174.921 35.375C175.755 35.5417 176.463 35.6875 177.046 35.8125C177.63 35.8958 178.13 35.9792 178.546 36.0625C179.005 36.1875 179.4 36.2708 179.734 36.3125C180.067 36.3958 180.463 36.4792 180.921 36.5625C181.338 36.6458 181.838 36.75 182.421 36.875C183.046 36.9583 183.775 37.0833 184.609 37.25C183.984 37.1667 183.338 37.2292 182.671 37.4375C182.046 37.6458 181.442 37.875 180.859 38.125C180.192 38.4167 179.567 38.7708 178.984 39.1875C178.609 39.4375 178.171 39.8125 177.671 40.3125C177.213 40.8125 176.546 41.2917 175.671 41.75C174.796 42.2083 173.63 42.6042 172.171 42.9375C170.755 43.2292 168.921 43.3333 166.671 43.25C163.963 43.1667 161.692 42.6875 159.859 41.8125C158.025 40.8958 156.546 39.7917 155.421 38.5C154.296 37.1667 153.484 35.7292 152.984 34.1875C152.484 32.6458 152.213 31.2083 152.171 29.875C152.13 28.5417 152.525 27.1458 153.359 25.6875C154.192 24.2292 155.359 22.8958 156.859 21.6875C158.4 20.4792 160.255 19.5 162.421 18.75C164.588 17.9583 166.963 17.5625 169.546 17.5625C171.046 17.5625 172.421 17.75 173.671 18.125C174.963 18.4583 176.13 18.9167 177.171 19.5C178.255 20.0833 179.192 20.75 179.984 21.5C180.775 22.2083 181.442 22.9375 181.984 23.6875C182.525 24.4792 182.984 25.3125 183.359 26.1875C183.692 26.9375 183.963 27.7917 184.171 28.75C184.38 29.7083 184.442 30.6875 184.359 31.6875C181.192 31.7708 178.63 31.8333 176.671 31.875C174.755 31.9167 173.255 31.9375 172.171 31.9375H169.359H167.234C166.484 31.9375 165.505 31.9583 164.296 32C163.088 32.0417 161.609 32.1042 159.859 32.1875C160.067 33.8542 160.588 35.1458 161.421 36.0625C162.296 36.9375 163.213 37.6042 164.171 38.0625C165.255 38.5625 166.442 38.8542 167.734 38.9375ZM162.109 27.6875C163.442 27.7708 164.546 27.8333 165.421 27.875C166.338 27.9167 167.088 27.9583 167.671 28C168.296 28.0417 168.796 28.0625 169.171 28.0625H170.734C171.775 28.0625 173.713 28 176.546 27.875C176.421 26.0417 176.025 24.6458 175.359 23.6875C174.734 22.7292 174.067 22.0208 173.359 21.5625C172.525 21.0625 171.609 20.7708 170.609 20.6875C167.9 20.7292 165.88 21.2917 164.546 22.375C163.255 23.4583 162.442 25.2292 162.109 27.6875ZM204.389 38.9375C205.555 38.9375 206.639 38.8125 207.639 38.5625C208.472 38.3542 209.264 38.0208 210.014 37.5625C210.805 37.0625 211.326 36.3333 211.576 35.375C212.41 35.5417 213.118 35.6875 213.701 35.8125C214.285 35.8958 214.785 35.9792 215.201 36.0625C215.66 36.1875 216.055 36.2708 216.389 36.3125C216.722 36.3958 217.118 36.4792 217.576 36.5625C217.993 36.6458 218.493 36.75 219.076 36.875C219.701 36.9583 220.43 37.0833 221.264 37.25C220.639 37.1667 219.993 37.2292 219.326 37.4375C218.701 37.6458 218.097 37.875 217.514 38.125C216.847 38.4167 216.222 38.7708 215.639 39.1875C215.264 39.4375 214.826 39.8125 214.326 40.3125C213.868 40.8125 213.201 41.2917 212.326 41.75C211.451 42.2083 210.285 42.6042 208.826 42.9375C207.41 43.2292 205.576 43.3333 203.326 43.25C200.618 43.1667 198.347 42.6875 196.514 41.8125C194.68 40.8958 193.201 39.7917 192.076 38.5C190.951 37.1667 190.139 35.7292 189.639 34.1875C189.139 32.6458 188.868 31.2083 188.826 29.875C188.785 28.5417 189.18 27.1458 190.014 25.6875C190.847 24.2292 192.014 22.8958 193.514 21.6875C195.055 20.4792 196.91 19.5 199.076 18.75C201.243 17.9583 203.618 17.5625 206.201 17.5625C207.701 17.5625 209.076 17.75 210.326 18.125C211.618 18.4583 212.785 18.9167 213.826 19.5C214.91 20.0833 215.847 20.75 216.639 21.5C217.43 22.2083 218.097 22.9375 218.639 23.6875C219.18 24.4792 219.639 25.3125 220.014 26.1875C220.347 26.9375 220.618 27.7917 220.826 28.75C221.035 29.7083 221.097 30.6875 221.014 31.6875C217.847 31.7708 215.285 31.8333 213.326 31.875C211.41 31.9167 209.91 31.9375 208.826 31.9375H206.014H203.889C203.139 31.9375 202.16 31.9583 200.951 32C199.743 32.0417 198.264 32.1042 196.514 32.1875C196.722 33.8542 197.243 35.1458 198.076 36.0625C198.951 36.9375 199.868 37.6042 200.826 38.0625C201.91 38.5625 203.097 38.8542 204.389 38.9375ZM198.764 27.6875C200.097 27.7708 201.201 27.8333 202.076 27.875C202.993 27.9167 203.743 27.9583 204.326 28C204.951 28.0417 205.451 28.0625 205.826 28.0625H207.389C208.43 28.0625 210.368 28 213.201 27.875C213.076 26.0417 212.68 24.6458 212.014 23.6875C211.389 22.7292 210.722 22.0208 210.014 21.5625C209.18 21.0625 208.264 20.7708 207.264 20.6875C204.555 20.7292 202.535 21.2917 201.201 22.375C199.91 23.4583 199.097 25.2292 198.764 27.6875ZM255.481 1.125C256.273 1.16667 257.127 1.1875 258.044 1.1875C258.835 1.1875 259.731 1.20833 260.731 1.25C261.773 1.25 262.856 1.20833 263.981 1.125C262.981 1.58333 262.106 2.25 261.356 3.125C260.606 4 260.002 4.875 259.544 5.75C258.96 6.79167 258.481 7.875 258.106 9C257.898 9.66667 257.731 10.8542 257.606 12.5625C257.481 14.2292 257.377 16.1875 257.294 18.4375C257.252 20.6875 257.231 23.0625 257.231 25.5625C257.231 28.0625 257.252 30.4583 257.294 32.75C257.335 35 257.398 37 257.481 38.75C257.565 40.5 257.669 41.7292 257.794 42.4375C257.96 43.2708 258.169 44.0625 258.419 44.8125C258.627 45.4792 258.898 46.1667 259.231 46.875C259.565 47.5417 259.981 48.0833 260.481 48.5L254.106 51.375C253.773 50.9167 253.502 50.4375 253.294 49.9375C253.085 49.4792 252.919 49.0625 252.794 48.6875C252.627 48.2292 252.523 47.8125 252.481 47.4375C252.398 46.9375 252.315 46.3958 252.231 45.8125C252.148 45.1875 252.044 44.6042 251.919 44.0625C251.835 43.4792 251.773 43 251.731 42.625C251.69 42.25 251.69 42.0208 251.731 41.9375C251.773 41.8542 251.523 42.2292 250.981 43.0625C250.44 43.8542 249.627 44.7917 248.544 45.875C247.502 46.9167 246.21 47.9375 244.669 48.9375C243.127 49.8958 241.398 50.5 239.481 50.75C237.523 51 235.71 50.625 234.044 49.625C232.419 48.625 231.023 47.2292 229.856 45.4375C228.69 43.6042 227.794 41.5 227.169 39.125C226.585 36.7083 226.356 34.25 226.481 31.75C226.565 30.0833 226.94 28.6042 227.606 27.3125C228.273 25.9792 229.106 24.8333 230.106 23.875C231.148 22.875 232.273 22.0417 233.481 21.375C234.731 20.6667 235.94 20.0833 237.106 19.625C238.315 19.1667 239.44 18.8333 240.481 18.625C241.523 18.4167 242.356 18.2708 242.981 18.1875C243.731 18.1458 244.585 18.2708 245.544 18.5625C246.377 18.8125 247.335 19.2292 248.419 19.8125C249.544 20.3958 250.794 21.2708 252.169 22.4375C251.919 18.2708 251.69 14.9375 251.481 12.4375C251.273 9.89583 251.065 7.95833 250.856 6.625C250.648 5.04167 250.46 3.95833 250.294 3.375C250.085 2.95833 249.815 2.54167 249.481 2.125C249.19 1.79167 248.815 1.45833 248.356 1.125C247.94 0.75 247.44 0.458333 246.856 0.25C247.94 0.458333 248.981 0.604167 249.981 0.6875C250.981 0.770833 251.898 0.854167 252.731 0.9375C253.69 1.02083 254.606 1.08333 255.481 1.125ZM239.794 24.4375C239.002 24.7292 238.356 25.2292 237.856 25.9375C237.398 26.6458 237.023 27.5 236.731 28.5C236.44 29.4583 236.231 30.5 236.106 31.625C236.023 32.7083 235.96 33.7708 235.919 34.8125C235.919 35.8125 235.919 36.7292 235.919 37.5625C235.919 38.3958 235.919 39.0208 235.919 39.4375C235.919 39.6875 235.96 40.1458 236.044 40.8125C236.169 41.4375 236.419 42.1042 236.794 42.8125C237.169 43.4792 237.69 44.0833 238.356 44.625C239.065 45.1667 240.002 45.4375 241.169 45.4375C242.127 45.3542 243.148 45.0208 244.231 44.4375C245.19 43.9375 246.273 43.1458 247.481 42.0625C248.731 40.9375 250.065 39.3333 251.481 37.25C251.398 35.9167 251.335 34.8125 251.294 33.9375C251.294 33.0625 251.273 32.3542 251.231 31.8125C251.19 31.1875 251.169 30.6875 251.169 30.3125V29.375C251.169 29.125 251.169 28.8542 251.169 28.5625C251.169 28.2708 251.19 28 251.231 27.75C250.065 26.9167 249.023 26.2083 248.106 25.625C247.231 25 246.356 24.5417 245.481 24.25C244.648 23.9167 243.773 23.7708 242.856 23.8125C241.981 23.8125 240.96 24.0208 239.794 24.4375ZM267.699 3.9375C268.49 4.14583 269.24 4.3125 269.949 4.4375C270.657 4.52083 271.282 4.60417 271.824 4.6875C272.449 4.77083 273.032 4.83333 273.574 4.875C274.157 4.91667 274.845 4.95833 275.636 5C276.345 5.04167 277.199 5.0625 278.199 5.0625C279.199 5.0625 280.386 5.0625 281.761 5.0625C280.553 7.9375 279.574 10.375 278.824 12.375C278.074 14.3333 277.49 15.9583 277.074 17.25C276.615 18.75 276.282 19.9792 276.074 20.9375C275.907 21.8958 275.699 23.0625 275.449 24.4375C275.24 25.6458 274.949 27.125 274.574 28.875C274.199 30.625 273.782 32.7083 273.324 35.125L267.824 34.875C268.157 32.6667 268.386 30.7917 268.511 29.25C268.636 27.6667 268.74 26.3542 268.824 25.3125C268.907 24.1042 268.949 23.1042 268.949 22.3125C268.949 21.4792 268.886 20.2292 268.761 18.5625C268.678 17.1875 268.553 15.3333 268.386 13C268.22 10.625 267.99 7.60417 267.699 3.9375ZM274.574 39.875C274.865 40.3333 275.032 40.8542 275.074 41.4375C275.157 41.9792 275.115 42.5417 274.949 43.125C274.824 43.6667 274.553 44.1875 274.136 44.6875C273.761 45.1875 273.24 45.5833 272.574 45.875C271.24 46.5 270.053 46.6667 269.011 46.375C267.97 46.0417 267.199 45.5 266.699 44.75C266.407 44.3333 266.24 43.875 266.199 43.375C266.199 42.8333 266.303 42.3125 266.511 41.8125C266.72 41.2708 267.053 40.7708 267.511 40.3125C267.97 39.8542 268.553 39.4792 269.261 39.1875C270.636 38.6042 271.761 38.3958 272.636 38.5625C273.553 38.7292 274.199 39.1667 274.574 39.875Z" fill="#8AC926"/>
</svg>
