<svg width="168" height="164" viewBox="0 0 168 164" fill="none" xmlns="http://www.w3.org/2000/svg">
<mask id="mask0_68_222" style="mask-type:alpha" maskUnits="userSpaceOnUse" x="0" y="0" width="168" height="164">
<rect width="167.258" height="164" fill="#D9D9D9"/>
</mask>
<g mask="url(#mask0_68_222)">
<path d="M65.3662 160.745C70.8164 159.973 74.6733 154.905 73.2974 149.577C69.7637 135.891 62.9554 123.227 53.4055 112.724C43.8913 102.259 32.0162 94.3353 18.8478 89.58C13.6281 87.6951 8.19076 91.1266 6.94316 96.5424V96.5424C5.70342 101.924 9.08478 107.218 14.2054 109.265C23.504 112.982 31.8912 118.782 38.7046 126.276C45.5331 133.786 50.5396 142.733 53.3947 152.411C54.9517 157.69 59.916 161.517 65.3662 160.745V160.745Z" fill="#FFF9EF"/>
<path d="M104.823 142.927C111.905 141.923 116.917 135.338 115.129 128.413C110.537 110.629 101.69 94.172 89.2797 80.5227C76.9097 66.9174 61.4688 56.6168 44.3462 50.4383C37.5767 47.9956 30.5198 52.4722 28.9019 59.4952V59.4952C27.2942 66.4741 31.6728 73.3659 38.314 76.0182C50.4075 80.8479 61.3157 88.389 70.1758 98.134C79.0494 107.894 85.5554 119.519 89.2656 132.097C91.289 138.956 97.74 143.93 104.823 142.927V142.927Z" fill="#FFF9EF"/>
<path d="M154.646 118.161C161.755 117.154 166.772 110.552 165.125 103.565C159.695 80.5273 148.508 59.1864 132.534 41.6171C116.589 24.0802 96.5072 10.9955 74.2444 3.51374C67.4225 1.22112 60.3815 5.65852 58.7636 12.6815L57.3861 18.6612C55.7785 25.64 60.1485 32.5208 66.8626 34.9831C82.9003 40.8649 97.3628 50.5663 108.973 63.3365C120.587 76.11 128.912 91.4749 133.318 108.084C135.158 115.022 141.649 120.002 148.758 118.995L154.646 118.161Z" fill="#FFF9EF"/>
</g>
</svg>
