<svg width="320" height="304" viewBox="0 0 320 304" fill="none" xmlns="http://www.w3.org/2000/svg">
<path d="M132.506 14.9507C100.269 27.7334 81.1996 53.5649 75.6947 64.8829C72.5238 57.4264 66.9631 54.4119 64.0624 53.6575C47.6796 49.3966 32.2339 54.7586 26.8107 56.9863C19.1419 60.1364 8.53421 70.4308 5.01102 76.2008C-1.33069 87.9182 0.607058 101.056 2.36864 106.16C4.48255 114.149 12.0574 110.82 15.5805 108.157L26.8107 100.834C30.372 98.2636 34.9962 96.9321 37.3802 97.5052C48.0277 100.065 46.4083 117.034 43.9861 124.801L28.7924 166.079L9.63519 216.011C7.52129 221.87 6.99281 228.216 6.99281 230.658C9.63519 248.766 33.1964 244.417 44.6467 239.978C55.2162 235.717 60.501 246.192 61.8222 251.962C62.8791 256.223 65.2436 264.704 67.1069 267.94C80.5772 291.335 111.367 277.483 124.579 267.94C132.506 261.016 137.57 269.05 139.112 273.932L143.075 281.256C160.515 315.343 181.61 288.357 189.978 270.603L224.989 200.033C227.103 194.706 236.88 179.172 241.504 172.071C255.773 152.897 262.863 167.188 264.625 176.731L268.588 188.715C270.702 196.704 277.837 192.043 281.14 188.715C286.953 183.388 289.727 174.512 290.388 170.739C293.559 156.359 287.305 141.667 283.782 136.119C271.627 111.087 250.532 112.818 241.504 116.812C243.089 88.0513 236.88 67.5459 233.577 60.8883C209.795 3.89909 156.287 6.51775 132.506 14.9507Z" fill="#AC9F9F"/>
<path d="M132.506 5.37626C100.269 18.1589 81.1996 43.9905 75.6947 55.3084C72.5238 47.8519 66.9631 44.8375 64.0624 44.083C47.6796 39.8222 32.2339 45.1841 26.8107 47.4118C19.1419 50.5619 8.53421 60.8564 5.01102 66.6263C-1.33069 78.3437 0.607058 91.4814 2.36864 96.5856C4.48255 104.575 12.0574 101.246 15.5805 98.5829L26.8107 91.2595C30.372 88.6891 34.9962 87.3576 37.3802 87.9307C48.0277 90.4904 46.4083 107.46 43.9861 115.227L28.7924 156.504L9.63519 206.436C7.52129 212.295 6.99281 218.642 6.99281 221.083C9.63519 239.192 33.1964 234.842 44.6467 230.404C55.2162 226.143 60.501 236.618 61.8222 242.387C62.8791 246.648 65.2436 255.13 67.1069 258.366C80.5772 281.76 111.367 267.908 124.579 258.366C132.506 251.442 137.57 259.475 139.112 264.358L143.075 271.681C160.515 305.768 181.61 278.782 189.978 261.029L224.989 190.458C227.103 185.132 236.88 169.597 241.504 162.496C255.773 143.322 262.863 157.614 264.625 167.156L268.588 179.14C270.702 187.129 277.837 182.469 281.14 179.14C286.953 173.814 289.727 164.937 290.388 161.165C293.559 146.784 287.305 132.093 283.782 126.545C271.627 101.512 250.532 103.243 241.504 107.238C243.089 78.4769 236.88 57.9714 233.577 51.3138C209.795 -5.67538 156.287 -3.05672 132.506 5.37626Z" fill="#FFF9EF"/>
<ellipse cx="9.25682" cy="11.9729" rx="9.25682" ry="11.9729" transform="matrix(-0.938831 -0.344379 0.339673 -0.940544 163.706 77.8391)" fill="#2D1D27"/>
<ellipse cx="9.25682" cy="11.9729" rx="9.25682" ry="11.9729" transform="matrix(-0.938831 -0.344379 0.339673 -0.940544 214.778 97.614)" fill="#2D1D27"/>
<ellipse cx="174.937" cy="102.67" rx="13.2119" ry="13.981" fill="#2D1D27"/>
</svg>
